<?xml version="1.0" encoding="UTF-8"?>
<svg id="_レイヤー_2" data-name="レイヤー 2" xmlns="http://www.w3.org/2000/svg" width="343.75" height="148.68" viewBox="0 0 343.75 148.68">
  <defs>
    <style>
      .cls-1 {
        fill: #d3e9ea;
      }

      .cls-2 {
        fill: #edece8;
      }

      .cls-3 {
        fill: #479d93;
      }
    </style>
  </defs>
  <g id="_レイヤー_1-2" data-name="レイヤー 1">
    <g>
      <rect class="cls-1" width="170" height="39.26"/>
      <rect class="cls-1" x="173.75" width="170" height="39.26"/>
      <rect class="cls-2" y="42.29" width="170" height="33.45"/>
      <rect class="cls-2" x="173.75" y="42.29" width="170" height="33.45"/>
      <rect class="cls-2" y="78.76" width="170" height="33.45"/>
      <rect class="cls-2" x="173.75" y="78.76" width="170" height="33.45"/>
      <rect class="cls-2" y="115.23" width="170" height="33.45"/>
      <rect class="cls-2" x="173.75" y="115.23" width="170" height="33.45"/>
      <g>
        <path class="cls-3" d="M245.46,14.92c0-.74-.02-1.07-.1-1.57h1.84c-.08.48-.1.85-.1,1.55v1.26h.85c.34,0,.53-.02.77-.05v1.58c-.27-.03-.51-.05-.8-.05h-.82v2.34c.46-.16.69-.24,1.34-.5l.02,1.5q-.91.35-1.36.51v4.47c0,.67-.24,1.12-.69,1.26-.32.11-.91.18-1.49.18-.27,0-.48-.02-.93-.05-.06-.67-.13-.98-.37-1.6.58.08.99.11,1.36.11s.46-.08.46-.46v-3.34q-1.41.45-1.7.58l-.34-1.71c.66-.08.75-.1,2.03-.45v-2.83h-.78c-.38,0-.66.02-1.09.06v-1.63c.35.06.64.08,1.1.08h.77v-1.25ZM256.64,20.74q-.11.14-.4.62c-.8,1.33-1.39,2.11-2.24,2.93,1.18.75,2.21,1.15,3.79,1.46-.42.51-.72,1.06-.96,1.66-1.89-.58-3.01-1.1-4.19-1.98-1.25.91-2.54,1.5-4.32,2.02-.34-.69-.54-1.04-.94-1.54,1.6-.34,2.61-.75,4.02-1.63-.9-.96-1.31-1.6-1.92-2.99-.29.02-.48.03-.74.06v-1.62c.34.06.7.08,1.23.08h4.85c.42,0,.7-.02.93-.06l.9.99ZM257.64,16.44c-.18,2.31-.35,2.5-2.37,2.5-.74,0-1.1-.03-1.34-.11-.46-.16-.61-.43-.61-1.15v-2.34h-1.86c-.06,2.26-.66,3.46-2.19,4.47-.37-.48-.67-.75-1.23-1.15,1.39-.77,1.84-1.78,1.84-4.18,0-.24-.02-.43-.05-.77.29.03.66.05,1.01.05h3.17c.34,0,.67-.02.96-.05-.03.19-.05.54-.05.98v2.35c0,.24.02.3.13.34.06.03.26.05.42.05.22,0,.45-.03.51-.08.14-.11.19-.42.19-1.25v-.18c0-.11,0-.29-.02-.51.88.48,1.02.54,1.5.7l-.02.34ZM251.16,21.29c.4.78.88,1.42,1.54,2.03.74-.62,1.1-1.06,1.71-2.03h-3.25Z"/>
        <path class="cls-3" d="M266.07,15.69c-.45.48-.85.83-1.46,1.3-.35-.48-.62-.74-1.04-1.02,1.22-.8,2.13-1.84,2.46-2.75l1.62.29q-.11.16-.27.43c-.08.14-.19.3-.34.5h4.51c.66,0,1.01-.02,1.28-.06l.91.72c-.13.16-.16.21-.27.38-.58.83-.78,1.1-1.42,1.73-.46-.26-.86-.42-1.42-.59.5-.34.67-.5,1.02-.91h-2.37c.48,1.52,2.08,2.35,4.85,2.5-.32.54-.46.88-.62,1.5-.64-.11-.88-.16-1.41-.29-.02.45-.02.86-.02,1.31v2.85q.02,1.36.06,1.63c-.34-.03-.98-.05-1.63-.05h-.72c1.23.58,2.27.83,4.26,1.02-.38.45-.56.72-.96,1.41-2.27-.38-3.38-.77-5.01-1.76l.9-.67h-4.21l.94.67c-1.6.98-2.62,1.34-4.87,1.76-.35-.64-.48-.82-.94-1.36,2.03-.24,3.06-.51,4.1-1.07h-.62c-.72,0-1.26.02-1.63.05.03-.29.06-.91.06-1.54v-3.04c0-.7-.02-1.14-.06-1.57.3.02.88.03,1.57.03h.8c-.18-.38-.35-.64-.64-.99-.82.38-1.04.48-2.23.96-.22.1-.38.16-.66.3l-.61-1.58c1.02-.19,2.39-.69,3.76-1.38l.46,1.34-.54.27c1.07-.14,1.75-.3,2.32-.56.96-.43,1.42-.93,1.63-1.76h-1.55ZM262.81,16.18c-.88-.7-1.42-1.04-2.43-1.5l.99-1.17c1.14.53,1.58.78,2.5,1.41l-1.06,1.26ZM263.42,20.77h7.08v-.58h-7.08v.58ZM263.42,22.38h7.08v-.61h-7.08v.61ZM263.42,23.94h7.08v-.58h-7.08v.58ZM270.59,19.08h.53c-1.28-.46-2.02-1.06-2.62-2.03-.4.66-.75.99-1.42,1.39-.48.29-.94.46-1.73.64h5.25Z"/>
      </g>
      <g>
        <path class="cls-3" d="M49.69,14.15c.72-.14,1.41-.21,2.03-.21.32,0,.43.08.43.3,0,.06,0,.11-.05.27-.02.1-.03.21-.03.32,0,.29.03.56.24,1.73,1.3-.21,2.82-.54,3.51-.75.11-.05.14-.05.24-.05.11,0,.16.1.22.4.06.3.19,1.12.19,1.25,0,.19-.06.22-.69.29-.4.03-.62.06-1.42.21q-.29.05-1.75.3.27,1.41.42,2.16.35-.06.7-.13c1.6-.29,2.69-.53,3.42-.75.26-.08.42-.13.46-.13.13,0,.18.06.22.22.13.42.29,1.18.29,1.44,0,.14-.03.16-.51.24q-.26.05-.78.14-.87.14-3.47.59.42,2.02.99,4.34c.03.13.05.22.05.26,0,.16-.06.21-.34.3-.45.16-1.28.34-1.5.34-.16,0-.19-.05-.24-.35-.11-.77-.37-2.19-.78-4.55-3.26.61-3.52.67-4.43.99-.21.06-.27.08-.35.08-.13,0-.21-.06-.29-.24-.19-.4-.35-.91-.54-1.7.83-.03,1.71-.16,5.31-.78-.19-.94-.32-1.63-.43-2.18q-2.91.51-3.73.75c-.13.05-.16.05-.19.05q-.26,0-.72-1.87.88-.02,4.32-.58c-.26-1.22-.51-2.13-.8-2.72ZM57.18,16.34c-.34-.62-.69-1.09-1.18-1.6-.1-.1-.1-.11-.1-.16,0-.1.1-.19.37-.4.26-.19.35-.24.45-.24.13,0,.29.13.69.56.51.58.88,1.07.88,1.2,0,.19-.72.77-.93.77-.06,0-.11-.03-.18-.13ZM59.41,15.12c-.1.06-.24.16-.29.18t-.08.03s-.03.02-.05.02c-.05,0-.11-.05-.14-.13-.22-.42-.82-1.18-1.23-1.58t-.08-.11q.1-.16.26-.27c.24-.16.5-.32.53-.32q.19.03.38.19c.43.38,1.2,1.34,1.2,1.54,0,.08-.18.24-.5.46Z"/>
        <path class="cls-3" d="M71.79,18.26c.16-.1.22-.11.34-.11.38,0,1.42,1.06,1.42,1.44,0,.11-.05.18-.16.27-.22.19-.3.27-.51.62-.42.69-1.01,1.46-1.63,2.11-.26.27-.4.37-.53.37-.1,0-.19-.05-.3-.13-.43-.34-.66-.45-1.34-.69.9-.59,1.5-1.17,2.21-2.15q-2.08.5-3.33.82c.67,2.66.91,3.52,1.5,5.51.03.14.05.21.05.27,0,.14-.16.24-.59.35-.27.08-.82.18-.96.18-.19,0-.22-.06-.3-.53-.14-.85-.72-3.17-1.31-5.36-1.18.34-1.38.38-1.99.67-.18.08-.27.11-.35.11-.3,0-.66-.72-.93-1.84.8-.03,1.18-.1,2.85-.46-.34-1.25-.5-1.7-.88-2.4.86-.14,1.5-.21,1.92-.21.27,0,.38.08.38.26,0,.05,0,.08-.02.18-.03.1-.03.16-.03.24,0,.32.06.64.29,1.58,3.07-.69,3.83-.88,4.21-1.1Z"/>
        <path class="cls-3" d="M91.12,18.18c.08.16.11.27.11.37,0,.16-.06.27-.27.56-.88,1.15-1.83,2.08-3.25,3.18-1.6,1.25-2.96,2.08-4.88,2.99-1.23.58-1.3.61-1.49.78-.13.13-.19.16-.29.16-.14,0-.27-.13-.51-.48-.32-.48-.62-1.14-.8-1.7,1.62-.37,3.55-1.23,5.43-2.42,2.46-1.55,4.02-3.09,5.22-5.19.18.59.32.91.74,1.73ZM80.46,15.49c.27-.3.38-.38.53-.38.3.02,1.5.78,2.5,1.58.61.5.8.7.8.86,0,.11-.29.54-.67.98-.35.4-.53.54-.66.54q-.11,0-.77-.62c-.42-.4-1.25-1.07-1.67-1.33q-.56-.37-.67-.43c-.06-.05-.1-.1-.1-.14,0-.14.3-.59.7-1.06Z"/>
        <path class="cls-3" d="M100.72,17.16c-2.87.02-4.88.11-5.39.26-.02.02-.03.02-.05.02-.3,0-.4-.53-.45-2.18.78.11,1.81.16,4.18.16,2.14,0,4.66-.05,5.06-.1.29-.03.38-.05.67-.16.08-.03.11-.03.18-.03.27,0,.61.26,1.12.86.3.38.37.48.37.66,0,.11-.05.21-.16.35-.16.19-.18.24-.53,1.36-.9,2.82-2.67,5.35-5.07,7.2-.96.74-1.87,1.3-2.11,1.3-.18,0-.21-.02-.58-.38-.43-.43-.77-.69-1.2-.91,2.35-1.18,3.63-2.16,4.87-3.73,1.1-1.39,1.79-2.9,2.16-4.69q-1.25.02-3.06.02ZM107.63,15.54c-.35.3-.56.45-.66.45s-.1,0-.38-.48c-.26-.43-.64-.93-1.01-1.3-.06-.06-.08-.1-.08-.14,0-.13.61-.58.78-.58.13,0,.32.16.8.71.43.5.74.93.74,1.04s-.05.18-.19.3ZM108.35,14.72c-.38-.66-.75-1.12-1.18-1.54-.06-.06-.08-.1-.08-.13,0-.08.08-.16.35-.35.21-.16.3-.19.42-.19.18.02.59.42,1.14,1.12.22.29.37.53.37.61s-.05.16-.24.3c-.26.19-.5.34-.59.34-.06,0-.11-.03-.18-.16Z"/>
        <path class="cls-3" d="M115.74,15.3c.13.05.19.14.19.27,0,.06,0,.1-.03.22-.1.35-.11.61-.11,1.25-.03,3.91-.74,6.4-2.42,8.53-.37.45-.51.59-.67.59-.06,0-.14-.03-.27-.1-.43-.27-.83-.42-1.55-.58,1.1-1.12,1.54-1.71,2.02-2.8.67-1.5.94-3.03.94-5.31,0-1.06-.03-1.54-.16-2.34.9.02,1.63.11,2.06.26ZM117.45,16.85c0-.78-.05-1.41-.14-2.08,1.73.06,2.35.19,2.35.51,0,.1-.02.14-.08.32-.05.1-.1.35-.11.59q-.05.43-.08,7.48c2.03-1.15,3.36-2.26,4.71-3.95.03.83.1,1.44.24,1.92.05.14.05.19.05.27,0,.26-.16.46-.9,1.15-1.18,1.09-1.98,1.65-3.47,2.43-.35.18-.56.32-.75.5-.11.1-.26.16-.37.16-.19,0-.77-.38-1.18-.78-.32-.32-.46-.56-.46-.77,0-.08.02-.13.06-.27.11-.3.14-.59.14-1.47v-6Z"/>
      </g>
      <g>
        <path d="M205.13,58.97c.34-1.19.43-2.03.43-3.54l1.08.24c-.03,1.46-.15,2.58-.43,3.75l-1.08-.45ZM208.31,63.58c0,.69.03,1.16.08,1.67h-1.55c.06-.46.08-1.05.08-1.7v-9.33c0-.6-.03-.95-.08-1.41h1.55c-.07.48-.08.81-.08,1.41v1.12l.8-.31c.34.66.36.74.69,1.75l-.35.17c.35.03.57.04,1.12.04h1.99v-.56h-1.53c-.53,0-.78.01-1.13.06v-1.18c.34.03.59.04,1.15.04h1.51v-.5h-1.74c-.71,0-.97.01-1.33.06v-1.26c.38.06.69.07,1.4.07h1.67c0-.39-.01-.6-.07-.9h1.53c-.06.31-.07.49-.07.9h2.06c.71,0,.99-.01,1.39-.07v1.26c-.39-.04-.71-.06-1.37-.06h-2.07v.5h1.89c.57,0,.8-.01,1.11-.04v1.18c-.35-.04-.59-.06-1.13-.06h-1.86v.56h2.34c.64,0,.98-.01,1.34-.08v1.33c-.41-.06-.77-.07-1.34-.07h-5.72c-.67,0-.98.01-1.36.07v-1.18l-.42.18c-.13-.56-.27-1-.48-1.5v7.83ZM211.24,63.7c0,.67.03,1.12.07,1.53h-1.54c.06-.45.07-.74.07-1.53v-3.88c0-.5-.01-.74-.04-1.15.34.03.62.04,1.08.04h4.73c.57,0,.91-.01,1.21-.06-.04.31-.06.73-.06,1.39v3.78c0,1.02-.36,1.3-1.72,1.3-.32,0-.42,0-1.2-.04-.08-.56-.14-.81-.31-1.3.55.08.98.13,1.32.13.42,0,.5-.06.5-.34v-.45h-4.1v.57ZM215.34,60.38v-.55h-4.1v.55h4.1ZM215.34,62.02v-.55h-4.1v.55h4.1Z"/>
        <path d="M223.67,56.4c.56,0,.83-.01,1.18-.07v1.43c-.25-.04-.45-.06-.76-.06-.14.67-.22.94-.43,1.5.66,0,.87-.01,1.19-.06v1.4c-.35-.04-.66-.06-1.18-.06h-1.04v1.08h.92c.5,0,.76-.01,1.11-.06v1.41c-.35-.04-.63-.06-1.11-.06h-.92v.98c0,.45.03.97.06,1.39h-1.46c.06-.45.07-.84.07-1.39v-.98h-.97c-.5,0-.76.01-1.12.06v-1.41c.35.04.6.06,1.12.06h.97v-1.08h-1.19c-.5,0-.81.01-1.18.06v-1.4c.34.04.56.06,1.18.06h.14c-.08-.55-.15-.88-.34-1.5-.48,0-.67.01-.98.06v-1.43c.34.06.63.07,1.18.07h1.2v-1.04h-.91c-.48,0-.77.01-1.12.06v-1.4c.32.04.59.06,1.12.06h.91v-.24c0-.38-.03-.84-.07-1.02h1.44c-.04.31-.06.59-.06,1.02v.24h.79c.53,0,.8-.01,1.12-.06v1.4c-.34-.04-.64-.06-1.12-.06h-.79v1.04h1.04ZM222.38,59.21c.18-.49.31-.94.42-1.5h-1.62c.18.64.24.84.35,1.5h.85ZM230.92,58.25c-.07.17-.08.25-.17.59-.28,1.25-.67,2.41-1.15,3.33.55.64.97,1.01,1.86,1.57-.41.63-.55.88-.77,1.42-.78-.62-1.23-1.02-1.83-1.74-.46.64-.91,1.12-1.6,1.74-.25-.48-.43-.74-.76-1.18.01.55.04.83.1,1.26h-1.53c.07-.55.08-.9.08-1.6v-9.01c0-.46-.03-1.01-.06-1.36.38.04.77.06,1.26.06h3.31c.57,0,1.02-.03,1.25-.06-.04.39-.06.55-.07.87-.15,2.48-.35,2.76-1.82,2.76-.36,0-.6-.01-1.22-.07-.08-.6-.14-.84-.29-1.26.53.1,1.09.15,1.39.15.42,0,.48-.13.53-1.13h-2.93v2.96h2.54c.62,0,.99-.01,1.27-.06l.6.76ZM226.51,63.79c.63-.49,1.05-.92,1.5-1.55-.59-.97-.83-1.61-1.27-3.4h-.22v4.96ZM227.95,58.83c.24.94.42,1.46.8,2.13.29-.62.46-1.16.67-2.13h-1.47Z"/>
        <path d="M238.37,60.9c-1.39.81-1.78,1.22-1.78,1.83,0,.25.1.42.31.55.31.18,1,.28,1.88.28.76,0,1.81-.07,2.52-.17.29-.04.46-.08,1.02-.22h.07c.1,0,.17.07.21.17.08.29.14.71.14,1.22,0,.21-.07.29-.25.34-.34.07-1.89.15-2.91.15-1.71,0-2.62-.11-3.29-.39-.81-.34-1.22-.97-1.22-1.85,0-.81.38-1.53,1.13-2.13.6-.48.74-.57,2.03-1.3-.11-.46-.32-.66-.76-.66-.57,0-1.18.22-1.83.66-.41.28-.88.67-1.18.97-.42.43-.46.46-.58.46-.14,0-.43-.32-.73-.81-.14-.24-.22-.42-.22-.52,0-.13.03-.15.36-.36,1.15-.77,2.1-1.75,2.68-2.76-1,.07-1.51.08-2.06.08-.21,0-.25-.04-.32-.28-.04-.18-.11-.92-.13-1.3.48.07.76.08,1.43.08.55,0,1.15-.01,1.78-.04.29-.8.39-1.3.41-1.96,1.25.21,1.82.42,1.82.66,0,.06-.01.08-.06.17-.1.18-.21.41-.39.84q-.03.06-.04.1c.8-.11,1.5-.25,1.99-.36.31-.08.38-.1.45-.1.11,0,.17.04.2.13.06.25.14.9.14,1.09,0,.15-.06.22-.24.27-.45.13-1.99.36-3.28.49-.42.77-.71,1.22-1.15,1.7.63-.29,1.11-.41,1.67-.41.63,0,1.05.36,1.33,1.15,1.39-.76,2.13-1.16,2.21-1.22.64-.38.91-.59,1.22-.94.57.59,1.19,1.47,1.19,1.71,0,.08-.06.14-.24.18-.69.18-1.96.73-4.09,1.76.01.25.04.9.04,1.34v.67c0,.17-.03.25-.1.29-.07.07-.45.11-.87.11-.48,0-.56-.04-.56-.27v-.06c.03-.41.04-.94.04-1.27v-.07Z"/>
        <path d="M245.93,55.09c.32.04.57.06,1.08.06h2.33c.55,0,.78-.01,1.08-.06v1.37c-.29-.03-.46-.04-1.02-.04h-2.38c-.46,0-.78.01-1.08.06v-1.39ZM252.2,56.01c0,2.94-.14,5.34-.38,6.79-.17.94-.36,1.61-.74,2.45-.43-.45-.69-.69-.99-.87,0,.27.01.38.04.57h-1.25v-.41h-1.33v.67h-1.32c.04-.39.07-.88.07-1.29v-2.02c0-.41-.01-.71-.06-1.05.25.03.41.04.91.04h2.16q.64-.01.8-.03c-.03.22-.03.42-.03.97v2.2c.29-.66.43-1.19.56-2.16.2-1.44.28-3.39.28-6.19,0-1.5-.01-1.93-.07-2.49.43.04.73.06,1.43.06h4.26c.73,0,1.02-.01,1.42-.06-.06.46-.07.8-.07,1.53v9.04c0,.46-.14.83-.38,1.02-.25.2-.63.27-1.39.27-.42,0-.7,0-1.23-.03-.06-.63-.1-.8-.28-1.39.67.1,1.06.13,1.42.13.45,0,.55-.06.55-.34v-8.91h-4.37v1.48ZM246.32,57.09c.24.03.43.04.85.04h2.07c.42,0,.62-.01.83-.04v1.26c-.25-.03-.42-.04-.83-.04h-2.07c-.43,0-.59.01-.85.04v-1.26ZM246.32,58.97c.25.03.45.04.85.04h2.07c.42,0,.6-.01.83-.04v1.26c-.24-.03-.45-.04-.85-.04h-2.06c-.38,0-.6.01-.84.04v-1.26ZM246.33,53.2c.31.04.55.06,1.09.06h1.62c.55,0,.77-.01,1.09-.06v1.32c-.32-.03-.6-.04-1.09-.04h-1.62c-.49,0-.76.01-1.09.04v-1.32ZM247.52,63.38h1.37v-1.33h-1.37v1.33ZM253.35,56.82c-.32,0-.55.01-.8.04v-1.22c.27.04.5.06.79.06h.41c0-.41-.01-.62-.06-.87h1.32c-.04.25-.06.39-.06.87h.45c.32,0,.57-.01.81-.06v1.22c-.25-.03-.43-.04-.81-.04h-.45v.95h.55c.35,0,.58-.01.81-.06v1.25c-.22-.04-.42-.06-.81-.06h-2.27c-.35,0-.55.01-.8.06v-1.25c.24.04.48.06.78.06h.53v-.95h-.39ZM255.89,62.46c0,.36.01.52.03.71-.11-.01-.17-.01-.29-.01-.14-.01-.24-.01-.27-.01-.18-.01-.31-.01-.34-.01h-1.33v.94h-1.15c.04-.28.06-.6.06-1.11v-2.51c0-.41-.01-.67-.04-.92.25.03.52.04.9.04h1.57c.45,0,.7-.01.91-.04-.03.28-.04.48-.04.88v2.05ZM253.69,61.97h1.11v-1.26h-1.11v1.26Z"/>
        <path d="M262.5,56.78c.59-.66.88-.83,1.46-.83s.9.17,1.47.78c1.15,1.23,1.68,1.74,2.93,2.72.81.64,1.88,1.32,2.91,1.83.32.17.36.21.36.31,0,.15-.32.76-.67,1.25-.2.28-.25.34-.36.34-.17,0-.76-.36-1.82-1.13-.99-.7-2.37-1.95-3.61-3.29q-.91-1-1.16-1c-.27,0-.29.01-.92.8-.45.55-.85,1.02-1.51,1.79-.34.39-.49.59-.59.76-.1.17-.17.22-.27.22-.15,0-.41-.18-.77-.56-.29-.29-.39-.42-.67-.92.92-.6,1.69-1.33,3.24-3.07ZM268.39,57.57c-.06,0-.11-.03-.15-.11-.35-.52-.64-.87-1.16-1.33-.07-.07-.08-.1-.08-.14,0-.08.17-.25.46-.46.14-.11.17-.13.25-.13.11,0,.42.25.85.7.45.46.6.66.6.77,0,.15-.6.7-.77.7ZM270.5,55.83c0,.14-.58.66-.73.66-.06,0-.11-.04-.17-.14-.25-.36-.67-.83-1.16-1.28-.06-.04-.07-.07-.07-.1,0-.13.55-.56.7-.56.25,0,1.43,1.18,1.43,1.42Z"/>
        <path d="M275.3,56.7c-.36.08-.49.13-.99.31-.18.07-.28.1-.36.1-.31,0-.59-.57-.84-1.78.9-.04,1.22-.08,2.77-.32,1.68-.25,3.81-.57,4.93-.71,1.26-.17,2.27-.34,2.8-.45.1-.03.14-.03.21-.03.18,0,.25.08.38.43.11.29.2.71.2.91,0,.17-.06.22-.25.22-.29,0-.56.03-.83.07-2.37.39-4.26,2.46-4.26,4.65,0,1.64,1.29,2.72,3.47,2.91.2.01.27.08.27.25,0,.35-.14,1.02-.27,1.33-.07.15-.18.22-.36.22s-.6-.08-1.04-.21c-2.38-.7-3.63-2.21-3.63-4.36,0-1.16.38-2.24,1.11-3.17.39-.5.73-.78,1.53-1.33-1.83.31-3.77.67-4.83.94Z"/>
        <path d="M289.37,62.33c.41.73.84,1.04,1.68,1.19-.17-.27-.5-.62-.88-.92.95-.31,1.5-.59,2.04-1.05h-1.53c-.5,0-.76.01-1.05.06v-1.21c.31.04.52.06,1.04.06h1.02v-.84h-.29c-.67,0-.91.01-1.26.06v-1.19c.34.04.56.06,1.26.06h.28c-.01-.34-.01-.46-.06-.69h1.5c-.04.22-.06.36-.07.69h1.81c0-.32-.01-.43-.06-.69h1.48c-.04.22-.06.36-.07.69h.71c.69,0,.91-.01,1.25-.06v1.19c-.35-.04-.59-.06-1.26-.06h-.7v.84h1.04c.71,0,.95-.01,1.29-.06v1.21c-.36-.04-.6-.06-1.29-.06h-1.44c.71.45,1.34.69,2.51.94-.34.35-.56.64-.78,1.02q.27-.01,1.37-.15c-.24.63-.28.8-.39,1.54-1.28.06-2.89.08-4.62.08-2.12,0-2.9-.06-3.56-.28-.69-.22-1.19-.59-1.67-1.23-.55.53-.77.73-1.3,1.13-.28.21-.38.29-.6.48l-.66-1.53c.53-.22,1.05-.59,1.85-1.3v-2.9h-.69c-.38,0-.56.01-.91.07v-1.46c.36.06.59.07,1.08.07h.97c.46,0,.66-.01,1.01-.06-.04.39-.04.62-.04,1.46v2.9ZM287.51,53.04c.97.85,1.43,1.34,2.06,2.14l-1.12,1.09c-.7-.98-1.04-1.36-2-2.24l1.06-.99ZM293.65,55.11c0,.34.01.56.03.73-.28-.01-.55-.03-.85-.03h-1.74v.41c0,.29.04.31.64.31,1,0,1.02-.01,1.05-.63.34.21.66.34,1.11.42-.08.76-.21,1.02-.57,1.15-.28.1-.69.13-1.83.13-1.34,0-1.61-.14-1.61-.87v-1.13c0-.38-.01-.5-.04-.8.27.03.45.03.94.03h1.61v-.55h-1.57c-.53,0-.77.01-1.09.04v-1.18c.31.04.7.06,1.11.06h1.68c.64,0,.91-.01,1.18-.04-.03.2-.03.31-.03.74v1.22ZM293.53,62.08c-.97.87-1.32,1.11-2.2,1.49.62.07,1.43.1,2.42.1.92,0,1.86-.03,3.29-.11-1.04-.36-1.77-.78-2.54-1.43l.81-.57h-2.63l.84.53ZM293.05,60.45h1.82v-.84h-1.82v.84ZM298.15,55.11c0,.34,0,.53.03.73-.29-.01-.55-.03-.85-.03h-1.71v.41c0,.27.08.31.73.31.98,0,1-.01,1.04-.64.41.22.67.32,1.18.43-.15,1.19-.28,1.26-2.35,1.26-.92,0-1.23-.03-1.47-.13-.28-.13-.39-.35-.39-.76v-1.05q-.01-.55-.01-.58t-.03-.28c.27.03.45.03.94.03h1.6v-.55h-1.48c-.55,0-.77.01-1.11.04v-1.18c.31.04.7.06,1.12.06h1.62c.66,0,.92-.01,1.19-.04-.03.22-.03.31-.03.74v1.22Z"/>
        <path d="M303.59,62.15c.1.15.13.25.13.34,0,.15-.2.43-.52.7-.45.41-.91.6-1.37.6-.64,0-1.21-.41-1.68-1.23-.18-.31-.32-.66-.32-.8,0-.11.06-.21.22-.36.27-.27.7-.56.83-.56q.11,0,.24.31c.22.53.56.91.83.91.34,0,.84-.39,1.29-1.02.06.41.18.81.36,1.12ZM305.68,62.93c.66,0,1-.2,1-.59,0-.34-.18-.62-.79-1.19-1.11-1.09-1.47-1.74-1.47-2.63,0-.52.18-.97.57-1.47.21-.24.31-.31.43-.31.14.01.55.21.87.42.2.14.24.2.24.29s-.03.14-.14.27c-.24.25-.36.53-.36.83,0,.38.21.71.74,1.22,1.01.97,1.22,1.22,1.46,1.75.13.28.2.64.2.99,0,.7-.32,1.3-.88,1.62-.36.22-.97.34-1.74.34-.57,0-1.09-.06-1.27-.14-.13-.04-.17-.14-.18-.36-.06-.48-.18-.95-.41-1.4.74.28,1.16.36,1.74.36ZM308.12,56.25c-.14.24-.22.32-.32.32-.06,0-.11-.03-.2-.08-.92-.63-2.27-1.16-3.33-1.33-.24-.03-.31-.07-.31-.17,0-.14.14-.48.36-.88.2-.35.29-.45.43-.45.59,0,1.97.42,3,.9.62.29.78.42.78.57,0,.21-.2.76-.42,1.12ZM310.77,62.88c-.32-.71-.39-.84-.71-1.29-.35-.46-.64-.78-1.09-1.15-.08-.08-.13-.14-.13-.2,0-.2.8-.9,1.04-.9.56,0,2.38,2.17,2.38,2.82,0,.14-.1.25-.36.48-.36.28-.71.48-.87.48-.11,0-.17-.06-.25-.24ZM309.85,57.57c-.27-.42-.67-.91-.94-1.15-.04-.04-.06-.07-.06-.1,0-.13.57-.56.74-.56.22,0,1.4,1.3,1.4,1.55,0,.04-.04.11-.1.17-.22.22-.6.49-.7.49q-.08,0-.35-.41ZM312.39,56.33c0,.1-.06.17-.34.38-.21.15-.35.24-.42.24-.08,0-.11-.01-.18-.14-.21-.36-.73-.98-1.06-1.32-.04-.04-.07-.07-.07-.1,0-.14.55-.53.73-.53.22,0,1.34,1.22,1.34,1.47Z"/>
      </g>
      <g>
        <path d="M202.07,100.75c0,.63.01.98.08,1.37h-1.62c.06-.41.08-.77.08-1.4v-3.38c-.55.49-.83.7-1.5,1.15-.17-.52-.41-1.01-.69-1.4.94-.55,1.58-1.05,2.31-1.82.63-.66,1.02-1.22,1.46-2.07h-2.19c-.48,0-.8.01-1.12.06v-1.5c.35.04.62.06,1.05.06h.69v-1.12c0-.36-.03-.71-.08-1.02h1.61c-.06.29-.07.62-.07,1.04v1.11h.56c.41,0,.56-.01.77-.04l.64.7c-.11.18-.2.35-.29.57-.45.98-.69,1.39-1.34,2.3.63.71,1.25,1.21,2.13,1.7-.31.43-.5.8-.73,1.33-.71-.45-1.13-.83-1.75-1.51v3.89ZM207.78,100.11h1.61c.67,0,1.13-.03,1.54-.07v1.61c-.48-.06-.99-.08-1.54-.08h-4.59c-.56,0-1.05.03-1.51.08v-1.61c.42.04.9.07,1.53.07h1.47v-5.25h-1.01c-.45,0-.9.03-1.32.07v-1.53c.38.06.76.07,1.32.07h1.01v-2.37c0-.56-.03-.88-.08-1.4h1.67c-.07.53-.08.8-.08,1.4v2.37h1.41c.62,0,.97-.01,1.33-.07v1.53c-.43-.04-.85-.07-1.33-.07h-1.41v5.25Z"/>
        <path d="M214.88,94.11c-.9.56-1.21.73-2.16,1.16-.24-.55-.45-.91-.79-1.39,1.43-.56,2.37-1.08,3.38-1.86.9-.69,1.57-1.41,2.13-2.27h1.58c.71.99,1.26,1.53,2.28,2.24,1.13.81,2.24,1.39,3.46,1.82-.38.58-.56.95-.76,1.51-.84-.36-1.36-.64-2.28-1.23v1.05c-.36-.04-.7-.06-1.21-.06h-4.5c-.38,0-.78.01-1.15.06v-1.04ZM214.13,97.57c-.7,0-1.15.03-1.58.08v-1.55c.42.04.95.07,1.58.07h8.36c.67,0,1.13-.03,1.58-.07v1.55c-.45-.06-.9-.08-1.58-.08h-4.61c-.45,1.02-.87,1.81-1.4,2.61q2.33-.13,4.26-.34c-.43-.48-.67-.73-1.42-1.48l1.33-.59c1.44,1.46,2.03,2.14,3.11,3.57l-1.3.85c-.38-.57-.49-.74-.8-1.16-1.12.14-1.92.24-2.42.28-1.4.14-3.95.38-4.52.42-.76.04-1.43.11-1.74.18l-.21-1.64c.41.03.57.04.76.04.11,0,.52-.01,1.2-.06.66-1.01,1.08-1.81,1.43-2.69h-2.03ZM220.51,93.69c.18,0,.31,0,.59-.01-1.22-.81-2-1.54-2.82-2.62-.7.95-1.51,1.72-2.79,2.62.22.01.34.01.55.01h4.47Z"/>
        <path d="M234.63,91.9c1.89,0,3.08,1.13,3.08,2.96s-1.32,2.89-3.5,2.89c-.48,0-.97-.06-1.15-.13-.11-.04-.17-.11-.2-.24-.1-.46-.28-.91-.62-1.47.87.21,1.4.29,1.99.29,1.13,0,1.81-.52,1.81-1.42,0-.35-.1-.7-.24-.9-.25-.35-.8-.57-1.43-.57-.8,0-1.91.35-4.22,1.34q.88,2.2,1.37,3.54c.59,1.58,1.08,3.01,1.08,3.14,0,.11-.08.18-.36.31-.41.18-.92.35-1.11.35-.14,0-.15-.03-.29-.55-.64-2.35-1.22-4.06-2.07-6.15-1.06.49-1.57.77-1.86,1.05-.08.07-.17.11-.27.11-.18,0-.35-.14-.62-.52-.28-.39-.39-.6-.63-1.05.9-.25,1.47-.45,2.79-.99-.73-1.67-.83-1.86-1.37-2.56.9-.35,1.4-.5,1.72-.5.29,0,.36.08.41.46.04.39.07.53.24.92.01.03.14.32.43,1.08,1.23-.5,1.67-.67,2.59-.97-.06-.03-.07-.04-.11-.1-.48-.62-.77-.92-1.39-1.44-.03-.06-.04-.08-.04-.13q0-.08.48-.5c.18-.17.46-.34.55-.34.07,0,.14.03.22.08.85.64,1.44,1.23,1.44,1.47,0,.11-.42.57-.76.83.77-.21,1.44-.31,2.03-.31Z"/>
        <path d="M246.1,89.88c-.04.22-.08.88-.08,1.39,0,2.19.35,3.59,1.32,5.31.56,1,1.16,1.71,2.12,2.55.8.69,1.2.98,2.07,1.44-.5.53-.73.85-1.04,1.5-1.62-1.13-2.46-1.92-3.42-3.17-.83-1.09-1.33-2.14-1.78-3.68-.27,1.08-.5,1.69-1.07,2.72-.53.98-1.12,1.71-2.06,2.58-.71.64-1.15.98-2.09,1.55-.31-.63-.57-.97-1.05-1.39,1.39-.74,2.1-1.27,2.94-2.25,1.74-1.99,2.47-4.19,2.47-7.41,0-.52-.01-.77-.07-1.13h1.74Z"/>
        <path d="M258.05,98.71c-.67,1.16-1.6,1.81-2.55,1.81-1.46,0-2.49-1.43-2.49-3.42,0-2.21,1.12-4.12,3.04-5.13.94-.5,1.95-.73,3.28-.73,2.93,0,5.1,2.07,5.1,4.85,0,2.45-1.2,4.22-3.53,5.21-.46.2-.83.31-1.01.31-.17,0-.24-.06-.42-.32-.24-.36-.5-.63-.88-.88,2.89-.74,4.19-2.1,4.19-4.37,0-1.16-.49-2.14-1.36-2.76-.49-.34-.88-.48-1.65-.6-.39,2.96-.85,4.57-1.71,6.04ZM256.04,93.75c-.94.83-1.47,2-1.47,3.32,0,1.08.35,1.71.94,1.71.7,0,1.42-.97,1.95-2.63.34-1.05.5-1.85.71-3.4-.99.21-1.48.45-2.13,1.01Z"/>
        <path d="M272.73,91.46c-.07,1.15-.25,1.76-.71,2.45-.29.45-.59.74-1.23,1.23-.28-.45-.48-.67-.87-1.01-.21.31-.46.66-.6.83-.21.27-.22.28-.32.43v5.01c0,.66.03,1.22.08,1.7h-1.61c.06-.41.08-.97.08-1.7v-2.87s0-.18.01-.38v-.34c-.25.31-.63.67-1.06,1.01-.15-.6-.34-1.04-.64-1.48.98-.66,1.69-1.39,2.62-2.66.31-.42.45-.64.6-.98l1.16.88c.8-.74,1.08-1.48,1.08-2.9,0-.21-.01-.34-.04-.6.34.03.56.04,1.05.04h2.61c.49,0,.69-.01.99-.04-.03.27-.04.48-.04.97v1.91c0,.22.1.28.5.28.7,0,.73-.04.77-1.58.6.32.85.41,1.3.5-.07,1.11-.15,1.6-.32,1.88-.22.35-.77.5-1.89.5-1.53,0-1.82-.15-1.82-.97v-2.12h-1.69ZM270.22,90.5q-.13.14-.36.41c-1.05,1.21-1.76,1.82-2.98,2.56-.29-.6-.46-.87-.84-1.26.98-.52,1.68-1.06,2.44-1.89.32-.35.41-.48.53-.69l1.22.87ZM277.5,96.11q-.21.27-.63.94c-.56.88-1.26,1.72-1.93,2.33.99.57,2.02.91,3.49,1.16-.35.6-.42.77-.64,1.55-1.74-.42-2.79-.85-4.08-1.74-1.06.73-2.13,1.22-3.74,1.72-.17-.55-.34-.87-.74-1.43,1.41-.35,2.28-.7,3.26-1.29-.69-.7-1.16-1.42-1.82-2.7-.55.01-.62.01-.92.06v-1.46c.29.06.63.07,1.11.07h4.97c.48,0,.76-.01.94-.06l.74.84ZM272.17,96.66c.6.95.91,1.33,1.53,1.86.66-.53,1.04-.97,1.7-1.86h-3.22Z"/>
        <path d="M283.43,98.03c.04.07.06.13.06.2,0,.1-.01.11-.14.42-.28.64-.62,1.65-.78,2.41-.04.15-.08.24-.14.27-.07.03-.55.1-.7.1h-.06c-.07,0-.17-.01-.28-.01-.18,0-.22-.04-.28-.21-.27-.91-.48-2.79-.48-4.2,0-1.54.1-2.49.49-4.59.14-.76.21-1.18.27-1.64.59.11,1.09.25,1.51.45.24.1.31.17.31.31,0,.1-.01.14-.17.36-.46.74-.98,3.71-.98,5.71,0,.32.01.76.06,1.46.39-.88.53-1.15.85-1.83.13.29.21.43.46.81ZM286.47,99.03c.45.24.98.32,1.92.32s1.43-.07,2.3-.32c.08-.03.15-.04.2-.04.1,0,.17.06.18.2.07.48.13,1.04.13,1.32,0,.14-.04.18-.24.24-.76.2-1.53.29-2.47.29-1.29,0-2.09-.15-2.75-.55-.62-.38-1.26-1.15-1.26-1.53,0-.2.29-.46,1.05-.92.25.5.49.76.94.99ZM285.49,91.88c.31.07,1.2.13,1.89.13.92,0,1.85-.07,2.72-.22q.07-.01.13-.01c.1,0,.14.04.17.15.03.14.07.76.07,1.13,0,.21-.04.28-.2.31-.57.11-1.53.18-2.54.18-1.21,0-2.28-.07-2.42-.15-.07-.04-.1-.14-.1-.39,0-.38.04-.94.07-1.05.01-.06.06-.08.14-.08.01,0,.04,0,.07.01Z"/>
        <path d="M299.65,99.97c.83-1.71,1.86-5.06,2.02-6.44l1.74.49c-.14.29-.18.39-.45,1.3-.49,1.58-1.23,3.6-1.72,4.65h2.41c.67,0,1.26-.03,1.71-.08v1.62c-.45-.07-1.02-.1-1.71-.1h-8.75c-.71,0-1.3.03-1.75.1v-1.62c.48.06,1.04.08,1.75.08h4.76ZM298.39,90.81c0-.39-.03-.66-.08-1.04h1.68c-.06.31-.08.66-.08,1.02v.91h3.25c.71,0,1.32-.03,1.72-.1v1.61c-.45-.06-1.04-.08-1.72-.08h-7.84c-.67,0-1.26.03-1.69.08v-1.61c.39.07.98.1,1.69.1h3.08v-.9ZM296.65,93.65c.59,1.62.91,2.72,1.53,5.24l-1.5.55c-.35-1.92-.85-3.67-1.48-5.27l1.46-.52Z"/>
        <path d="M309.39,92.79c2.33-.66,3.53-.87,4.85-.87,1.41,0,2.52.38,3.26,1.11.62.63.95,1.5.95,2.52,0,1.79-.97,3.31-2.65,4.17-.9.45-1.81.76-3.05.99-.55.11-.83.15-1.04.15-.17,0-.25-.06-.34-.21-.32-.64-.45-.84-.87-1.28,2.09-.25,3.22-.53,4.31-1.08,1.19-.59,1.85-1.55,1.85-2.73,0-1.32-.9-2.17-2.27-2.17-1.67,0-3.52.48-5.65,1.46-.38.17-.57.27-.71.35-.25.14-.32.17-.41.17-.27,0-.74-.85-1.06-1.93.64-.08,1.29-.24,2.82-.66Z"/>
      </g>
      <g>
        <path d="M194.78,129.31c-.53.78-.88,1.19-1.5,1.79-.38-.41-.66-.64-1.18-.98.98-.9,1.6-1.7,2.06-2.66.27-.56.45-1.06.52-1.46l1.54.38q-.11.22-.34.76c-.1.25-.18.45-.34.77h1.82v-.2c0-1.19-.01-1.5-.08-1.95h1.64q-.07.42-.07,2.14h2.68c.76,0,1.26-.03,1.62-.08v1.57c-.46-.06-1.02-.08-1.62-.08h-2.7c-.04.81-.07,1.25-.15,1.92h3.66c.76,0,1.22-.03,1.64-.08v1.57c-.42-.06-.98-.08-1.67-.08h-3.12c.46.88.97,1.5,1.82,2.19,1.05.83,1.92,1.27,3.33,1.68-.45.66-.55.83-.85,1.54-1.36-.53-2.23-1.04-3.17-1.83-1.05-.91-1.67-1.7-2.21-2.83-.45,1.12-1.02,1.91-1.98,2.73-.98.84-2.03,1.43-3.43,1.93-.24-.6-.45-.99-.81-1.48,1.15-.27,2.23-.76,3.04-1.36.92-.7,1.51-1.47,1.93-2.56h-3.08c-.62,0-1.15.03-1.64.08v-1.57c.5.06.88.08,1.53.08h3.53c.08-.64.11-1.04.15-1.92h-2.56Z"/>
        <path d="M208.15,135.59c-.6,1.27-.94,1.75-1.81,2.65-.45-.53-.6-.67-1.06-1,.83-.71,1.23-1.26,1.68-2.31l1.19.66ZM209.64,134.9c.43.69.8,1.16,1.26,1.65,1.09-.62,1.89-1.26,2.51-2.02-.69-1.08-1.15-2.09-1.51-3.29-.25.38-.36.53-.69.91-.22-.35-.31-.48-.5-.73v2.13c0,.52.01.98.04,1.27-.27-.01-.59-.03-.97-.03h-2.82c-.34,0-.73.01-.94.03.03-.25.04-.76.04-1.3v-6.21c0-.46-.01-.88-.06-1.19.35.03.69.04,1.19.04h2.41c.53,0,.84-.01,1.13-.04-.03.34-.04.74-.04,1.09v3.21c.7-.95,1.13-1.81,1.46-2.9.2-.67.34-1.4.35-1.79l1.57.27q-.07.24-.18.66c-.18.67-.22.85-.34,1.19h2.66c.64,0,1.11-.03,1.43-.07v1.47c-.27-.03-.45-.04-.97-.06-.22,2.38-.62,3.71-1.53,5.24.81.88,1.55,1.44,2.76,2.09-.45.55-.62.81-.97,1.53-1.22-.84-1.96-1.51-2.69-2.37-.81.98-1.51,1.54-3.01,2.47-.21-.45-.42-.8-.69-1.12-.22.21-.34.31-.62.62-.56-.7-.92-1.22-1.41-2.07l1.11-.67ZM207.44,128.67h1.95v-1.25h-1.95v1.25ZM207.44,131.06h1.95v-1.23h-1.95v1.23ZM207.44,133.55h1.95v-1.32h-1.95v1.32ZM213.06,129.2c-.13.29-.14.32-.24.5.18.77.28,1.09.59,1.85.31.77.52,1.2.84,1.71.55-1.04.87-2.3,1.02-4.06h-2.21Z"/>
        <path d="M223.49,126.31c.35.1.45.17.45.32,0,.1-.01.14-.08.34-.15.41-.27,1.12-.32,2.1-.11,2.25-.17,4.01-.17,5.39,0,.45.04.79.11,1.01.15.46.64.7,1.43.7,1.26,0,2.45-.52,3.54-1.54.5-.48.81-.85,1.33-1.62.08.45.2.74.5,1.37.04.11.07.2.07.32,0,.25-.27.59-.97,1.22-1.39,1.25-2.93,1.89-4.54,1.89-1.06,0-1.85-.27-2.35-.77-.53-.56-.74-1.29-.74-2.68,0-1.09.01-1.93.13-5.2.01-.49.03-.78.03-.91,0-1.19-.01-1.54-.1-2.14.71.03,1.26.08,1.68.2Z"/>
        <path d="M234.81,129.53c-.36.08-.49.13-.99.31-.18.07-.28.1-.36.1-.31,0-.59-.57-.84-1.78.9-.04,1.22-.08,2.77-.32,1.68-.25,3.81-.57,4.93-.71,1.26-.17,2.27-.34,2.8-.45.1-.03.14-.03.21-.03.18,0,.25.08.38.43.11.29.2.71.2.91,0,.17-.06.22-.25.22-.29,0-.56.03-.83.07-2.37.39-4.26,2.46-4.26,4.65,0,1.64,1.29,2.72,3.47,2.91.2.01.27.08.27.25,0,.35-.14,1.02-.27,1.33-.07.15-.18.22-.36.22s-.6-.08-1.04-.21c-2.38-.7-3.63-2.21-3.63-4.36,0-1.16.38-2.24,1.11-3.17.39-.5.73-.78,1.53-1.33-1.83.31-3.77.67-4.83.94Z"/>
        <path d="M249.75,130.12c-1-.2-1.75-.49-2.27-.85-.25-.17-.31-.24-.31-.36,0-.15.11-.43.5-1.22.69.43,1.46.74,2.34.92.2-.98.28-1.79.29-2.7.71.13,1.34.34,1.7.53.15.08.21.17.2.28,0,.06-.03.11-.1.25-.21.43-.22.48-.52,1.85.14.01.32.01.43.01h.1c.34-.01.59-.01.71-.01h.04c.13,0,.17.06.17.24,0,.62-.04,1.12-.1,1.22-.04.07-.22.1-.81.1-.27,0-.48-.01-.87-.03q-.29,1.44-.42,2.2c.48.04.57.04.81.04h.79c.14-.01.21.01.25.08.06.08.1.53.1,1.04,0,.25-.01.32-.1.36-.07.03-.38.04-.91.04-.25,0-.63-.01-1.12-.04-.01.25-.01.42-.01.53,0,1.29.6,1.88,1.92,1.88,1.47,0,2.35-.71,2.35-1.92,0-.43-.1-.83-.32-1.26-.28-.53-.55-.84-1.22-1.37h.13c.22,0,.7-.07,1.12-.15.22-.04.31-.06.38-.06.21,0,.35.1.63.45.64.78.97,1.61.97,2.48,0,1.97-1.6,3.28-4.02,3.28-2.27,0-3.4-1.13-3.4-3.43,0-.2,0-.35.03-.59-1.39-.29-2.14-.98-2.14-1.98,0-.52.15-.9.55-1.29.04-.06.1-.07.15-.07.08,0,.18.07.5.34.25.21.29.25.29.32q0,.06-.08.18c-.06.1-.11.25-.11.34,0,.18.11.34.32.43.2.1.25.11.7.21l.36-2.27Z"/>
        <path d="M261.17,134.37c-.7,0-1.22.03-1.64.08v-1.48c.48.06,1.01.08,1.62.08h3.67v-.1c0-.27-.01-.49-.04-.73h.59c.57-.29,1.01-.6,1.58-1.09h-3.7c-.56,0-.97.01-1.36.06v-1.33c.39.04.8.06,1.37.06h4.44c.52,0,.8-.01,1.02-.06l.74.81q-.2.17-.49.41c-.95.81-1.64,1.33-2.67,1.96h0s3.49.01,3.49.01c.64,0,1.26-.03,1.65-.08v1.48c-.38-.06-.95-.08-1.67-.08h-3.47v2.35c0,.69-.14.98-.52,1.12-.34.13-.76.17-1.55.17-.17,0-.6-.01-1.33-.04-.14-.73-.21-.95-.45-1.43.66.08,1.26.13,1.67.13.6,0,.7-.04.7-.31v-1.99h-3.66ZM261.87,127.73c-.32-.6-.49-.87-1.01-1.51l1.34-.41c.49.59.76,1.01,1.23,1.92h1.42c-.24-.69-.43-1.09-.81-1.7l1.4-.39c.55,1.02.63,1.22.92,2.09h1.13c.41-.52.87-1.39,1.11-2.02l1.46.41c-.31.56-.71,1.21-1.02,1.61h.62c.92,0,1.16-.01,1.65-.06-.04.35-.06.62-.06,1.12v1.25c0,.36.03.7.07,1.02h-1.47v-2.09h-8.75v2.09h-1.47c.06-.31.07-.62.07-1.04v-1.23c0-.48-.01-.8-.06-1.12.62.06.69.06,1.6.06h.63Z"/>
        <path d="M275.06,127.46c1.5,0,2.34-.11,3.04-.39.07-.03.11-.04.15-.04.11,0,.21.07.36.28.31.38.5.76.5.92,0,.13-.08.2-.41.36-2.12,1.04-3.46,3.04-3.46,5.11,0,1.61.94,2.62,2.42,2.62,1.32,0,2.33-.71,2.84-2.02.38-.92.55-2.05.55-3.5,0-1.08-.21-2.2-.6-3.26-.01-.06-.03-.1-.03-.14,0-.14.1-.21.49-.32.38-.1.83-.2.95-.2.11,0,.2.06.24.14t.06.27c.08.74.64,2.13,1.25,3.08.43.7,1.06,1.5,1.67,2.12.07.08.1.14.1.21-.01.29-.84,1.22-1.08,1.22-.13,0-.15-.03-.66-.7-.38-.49-.95-1.78-1.43-3.14.24,1.29.27,1.58.27,2.49,0,1.62-.43,3.01-1.26,3.98-.79.91-1.89,1.37-3.26,1.37-1.23,0-2.2-.35-2.91-1.05-.73-.73-1.12-1.79-1.12-3.04,0-.95.21-1.82.66-2.73.48-1,.94-1.57,1.96-2.48-.73.14-.74.14-1.6.27-.08.01-.15.03-.21.04-.08.01-.15.03-.2.03-.25,0-.41-.52-.48-1.58.31.06.77.08,1.19.08ZM283.56,128.4c-.25-.43-.55-.83-.81-1.13-.2-.22-.21-.24-.21-.29,0-.11.5-.49.67-.49.08,0,.13.03.29.2.56.57,1.05,1.22,1.05,1.39,0,.08-.06.15-.27.32-.24.18-.39.28-.49.28-.07,0-.1-.03-.24-.27ZM284.8,127.35c-.21-.35-.38-.57-.85-1.09-.04-.04-.06-.08-.06-.11,0-.11.5-.46.67-.46.1,0,.21.1.49.39.46.49.83,1,.83,1.15,0,.06-.04.13-.14.21-.25.2-.52.35-.6.35q-.07,0-.34-.43Z"/>
        <path d="M287.67,131.2c-.11.03-.17.06-.25.1-.07.04-.11.06-.17.06-.31,0-.53-.53-.7-1.57h.27c.59,0,2.09-.18,2.98-.36.29-1.22.45-2.16.45-2.82,0-.06,0-.14-.01-.24.6.06,1.18.18,1.57.35.22.08.34.2.34.34,0,.07-.01.13-.08.24q-.21.36-.64,1.91c.34-.04.71-.07.95-.07.57,0,1.02.11,1.34.34.56.41.84,1.23.84,2.51,0,2.09-.38,3.88-1.02,4.76-.45.62-1.04.91-1.86.91-.5,0-.98-.07-1.12-.15q-.11-.07-.15-.59c-.04-.38-.13-.71-.29-1.11.73.25.91.29,1.36.29.67,0,.95-.32,1.26-1.46.21-.74.32-1.69.32-2.73,0-1.09-.27-1.48-1.01-1.48-.25,0-.66.04-.98.08-.04.17-.06.18-.11.36-.39,1.44-1.11,3.32-1.82,4.83-.74,1.53-.92,1.83-1.11,1.83-.11,0-.49-.2-.9-.46-.32-.2-.41-.28-.41-.39q0-.07.57-.98c.77-1.19,1.78-3.52,2.13-4.9-1.04.24-1.61.36-1.74.41ZM296.47,128.33c-.22.17-.38.24-.45.24-.04,0-.08-.03-.13-.1-.29-.48-.78-1.02-1.19-1.37-.03-.03-.04-.06-.04-.08,0-.06.1-.15.34-.34.24-.17.31-.21.41-.21.22,0,1.46,1.25,1.46,1.47,0,.08-.11.18-.39.39ZM294.99,129.81c0-.1.13-.22.53-.55.28-.21.42-.29.53-.29.18,0,.81.67,1.4,1.5.49.7,1.02,1.7,1.02,1.93,0,.14-.04.18-.49.55-.28.22-.6.41-.71.41-.1,0-.14-.04-.24-.28-.27-.67-.5-1.13-.88-1.74-.38-.6-.41-.63-1.08-1.36-.06-.07-.08-.11-.08-.17ZM296.82,125.51c.24,0,1.43,1.19,1.43,1.43,0,.07-.08.15-.36.35-.25.2-.38.27-.43.27q-.07,0-.35-.39c-.24-.32-.69-.8-.94-1.01-.04-.04-.07-.07-.07-.11,0-.11.57-.53.73-.53Z"/>
        <path d="M303.78,129.11c-.64.04-1.25.06-1.78.06-.59,0-.63,0-.66-.08-.04-.08-.08-.67-.08-1.08v-.27c.66.03.94.04,1.29.04s.88-.01,1.3-.03c.07-.81.08-1.09.08-1.37,0-.13,0-.21-.01-.41.67.01,1.19.06,1.6.15.11.03.17.08.17.18,0,.07-.01.13-.08.29-.11.27-.2.63-.25,1.07.9-.07,1.98-.21,2.41-.31.42-.1.71-.15.78-.15.29-.03.5-.08.59-.15.01-.01.03-.01.03-.01.03,0,.04.01.07.01.06,0,.1.06.13.15.03.21.07.7.07,1.01,0,.21-.04.27-.18.29-.83.17-2.54.38-4.01.5-.01.06-.01.08-.01.22-.03.27-.03.29-.04,1,.62-.14,1.16-.21,1.85-.21.1-.45.11-.56.14-.88,1.08.22,1.61.42,1.61.59,0,.06-.01.1-.13.28-.04.06-.07.1-.1.2,1.81.42,2.96,1.75,2.96,3.47,0,1.53-.83,2.75-2.41,3.59-.59.31-1.42.59-1.72.59-.15,0-.27-.06-.35-.17-.29-.42-.48-.62-.92-.99,1.46-.27,2.17-.56,2.87-1.13.64-.55.95-1.18.95-1.96,0-1.12-.66-1.96-1.78-2.28-.84,1.93-1.4,2.84-2.41,3.88.07.24.13.38.25.67.06.11.07.15.07.2,0,.14-.06.18-.38.35-.35.18-.76.32-.9.32-.13,0-.15-.04-.31-.48-.81.57-1.68.88-2.54.88-.95,0-1.6-.77-1.6-1.89,0-1.75,1.28-3.46,3.39-4.51.01-.73.03-1.34.04-1.62ZM301.8,135c0,.35.21.56.56.56.48,0,1.11-.27,1.74-.73-.2-.95-.28-1.6-.35-2.65-1.23.91-1.95,1.96-1.95,2.82ZM306.7,131.13c-.63.06-.97.11-1.54.31.03.99.06,1.42.17,2.13.59-.74.98-1.44,1.37-2.44Z"/>
        <path d="M320.94,130.61c1.97,0,3.38,1.34,3.38,3.25,0,1.3-.69,2.48-1.83,3.17-.8.48-1.78.71-2.88.71-1.78,0-2.82-.71-2.82-1.93,0-1.11.92-1.89,2.24-1.89,1.19,0,2.04.6,2.62,1.83.71-.52,1.01-1.06,1.01-1.82,0-1.2-.85-1.99-2.2-1.99s-2.84.69-4.06,1.91c-.22.22-.43.46-.69.78-.1.14-.17.2-.25.2-.25,0-1.25-.98-1.25-1.23,0-.13.06-.2.36-.42.32-.25.78-.66,1.37-1.22,1.36-1.29,2.35-2.37,3.82-4.16-1.75.22-2.93.42-3.36.57-.07.01-.11.03-.15.03-.11,0-.18-.07-.27-.28-.17-.42-.25-.88-.29-1.5.38.06.64.07.95.07.67,0,1.81-.1,3.28-.27.52-.06.69-.1,1.08-.25.13-.06.2-.07.28-.07.2,0,.39.17.76.73.27.36.35.55.35.66,0,.18-.04.24-.35.43-.25.15-.41.28-.73.59-.7.67-.71.67-1.58,1.55-.62.63-.69.7-1.25,1.26.91-.5,1.62-.71,2.47-.71ZM319.6,135.46c-.21-.14-.45-.21-.71-.21-.43,0-.71.21-.71.55,0,.41.43.66,1.11.66.31,0,.57-.03.92-.13-.17-.46-.31-.67-.6-.87Z"/>
      </g>
      <g>
        <path d="M15.13,134.27c.04.06.06.1.06.15q0,.08-.24.73c-.29.85-.48,1.55-.53,2.1-.01.18-.07.25-.25.29-.2.06-.57.08-.94.08-.14,0-.21-.03-.25-.11-.13-.27-.35-1.23-.46-2.02-.1-.66-.14-1.34-.14-2.06,0-1.61.18-3.14.69-5.88.08-.45.11-.66.15-1.09.64.08,1.09.21,1.5.41.21.11.29.21.29.34,0,.08-.03.15-.1.27-.57.98-1.11,4.01-1.11,6.25,0,.34.01.87.06,1.54.34-.87.49-1.26.8-1.93.1.38.2.56.48.94ZM17.48,130.58c-.67,0-.81-.03-.85-.18-.04-.13-.08-.57-.08-.9,0-.11,0-.22.01-.48.38.03.6.04,1.06.04.76,0,1.23-.01,1.96-.07-.01-1.78-.03-2-.17-2.66.69.01,1.21.07,1.65.18.21.06.29.13.29.27,0,.06-.01.1-.06.21-.14.32-.21.87-.24,1.85.52-.07.97-.17,1.81-.36.07-.03.1-.03.14-.03.08,0,.13.04.15.14.03.13.07.66.07.95,0,.35-.01.41-.15.46-.22.11-.84.21-2.03.36,0,.97.08,2.56.18,3.47.88.38,1.48.7,2.1,1.13.39.28.48.38.48.48,0,.15-.25.63-.55,1.04-.17.24-.25.31-.35.31s-.1,0-.42-.31c-.31-.31-.63-.55-1.25-.95v.11c0,1.23-1.02,2.04-2.58,2.04s-2.62-.84-2.62-2.1,1.06-2.2,2.48-2.2c.52,0,.78.01,1.16.07q-.06-1.09-.1-2.97c-.6.04-1.55.08-2.12.08ZM18.63,134.7c-.7,0-1.16.32-1.16.81,0,.45.43.73,1.11.73.74,0,1.13-.34,1.13-.98,0-.2-.01-.35-.01-.35-.36-.14-.69-.21-1.06-.21Z"/>
        <path d="M30.82,129.53c-3.07.18-4.26.32-5.14.56-.06.01-.11.03-.15.03-.1,0-.18-.07-.22-.18-.13-.35-.2-.81-.24-1.53.17.01.28.01.34.01.45,0,.87-.01,2.21-.1,1.04-.06,1.92-.1,3.18-.15-.01-1.26-.03-1.44-.15-2.09,1.08.03,1.62.08,1.82.17.08.03.13.1.13.24,0,.03-.01.08-.04.15-.13.31-.17.63-.2,1.48,2.04-.04,2.35-.04,3.75-.04.38,0,.43,0,.48.04.06.06.08.27.08.74,0,.64-.01.71-.2.71h-.06c-.6-.07-2.1-.13-3.08-.13q-.32,0-1.02.01l-.03,2.3c.21.48.28.85.28,1.53,0,1.76-.64,3.11-2,4.1-.56.42-1.28.78-1.53.78-.13,0-.2-.04-.31-.15-.39-.45-.69-.69-1.19-.97.84-.24,1.28-.42,1.82-.77.41-.25.77-.56,1.04-.85.18-.21.32-.42.53-.88-.42.43-.74.57-1.26.57-1.18,0-1.95-.9-1.95-2.26,0-1.43.91-2.45,2.17-2.45.41,0,.66.04.94.17v-1.06ZM29.13,132.8c0,.59.34,1,.84,1,.53,0,.85-.38.85-1.01s-.31-1.04-.84-1.04c-.5,0-.85.43-.85,1.05ZM34.48,127.7c-.39-.7-.7-1.12-1.05-1.47-.03-.03-.04-.07-.04-.11,0-.06.13-.18.32-.31q.34-.21.41-.21c.13,0,.32.18.73.69.36.45.6.8.6.91,0,.07-.04.11-.22.27-.22.2-.5.36-.59.36-.07,0-.11-.03-.15-.13ZM36.24,125.4c.39.43.74.94.74,1.06,0,.1-.08.18-.36.38-.2.13-.36.21-.42.21q-.08,0-.34-.42c-.21-.38-.48-.71-.84-1.09-.03-.03-.04-.08-.04-.11,0-.1.08-.18.31-.31.18-.11.35-.18.42-.18.1,0,.25.13.53.46Z"/>
        <path d="M41.11,129.93c-.63.13-1.23.28-1.62.42-.1.04-.18.06-.25.06-.13,0-.2-.07-.28-.31-.1-.31-.2-.8-.25-1.29.21.01.31.03.43.03.53,0,1.11-.07,1.99-.24l.03-.84c.01-.2.01-.34.01-.38,0-.6-.01-.97-.07-1.34.74.03,1.21.08,1.65.2.18.04.27.13.27.25,0,.06-.01.1-.08.25-.13.27-.14.43-.24,1.6.31.21.57.5.57.64,0,.08-.04.15-.17.31-.21.22-.28.32-.55.71q-.03.36-.03.46c.46-.41.77-.67,1.25-1.02.53-.41,1.12-.78,1.54-.99.55-.29.92-.39,1.43-.39.74,0,1.27.28,1.57.81.17.34.24.66.24,1.2,0,.48-.03.92-.11,1.95-.11,1.21-.17,2.1-.17,2.65s.13.71.52.71c.56,0,1.25-.41,1.85-1.09.01.55.06.71.24,1.27.04.11.06.18.06.24,0,.15-.07.28-.31.46-.57.46-1.4.76-2.14.76-1.23,0-1.79-.64-1.79-2.06,0-.64.04-1.47.18-3.43.04-.46.06-.85.06-1.05,0-.57-.2-.84-.62-.84s-1.25.45-2.35,1.3c-.56.42-.88.71-1.47,1.32v.64c0,1.05.07,3.47.13,4.33v.17c0,.11-.01.15-.04.2-.07.08-.48.14-1.12.14-.41,0-.49-.06-.49-.29,0-.08,0-.22.01-.38v-.32q.01-.49.07-3.15-.8,1.04-1.28,1.81c-.13.2-.21.27-.32.27s-.36-.22-.8-.7c-.27-.31-.36-.43-.36-.52,0-.07.03-.13.13-.22.88-.91,1.62-1.78,2.68-3.1l.03-1.19Z"/>
        <path d="M59.47,130.61c1.97,0,3.38,1.34,3.38,3.25,0,1.3-.69,2.48-1.83,3.17-.8.48-1.78.71-2.88.71-1.78,0-2.82-.71-2.82-1.93,0-1.11.92-1.89,2.24-1.89,1.19,0,2.04.6,2.62,1.83.71-.52,1.01-1.06,1.01-1.82,0-1.2-.85-1.99-2.2-1.99s-2.84.69-4.06,1.91c-.22.22-.43.46-.69.78-.1.14-.17.2-.25.2-.25,0-1.25-.98-1.25-1.23,0-.13.06-.2.36-.42.32-.25.78-.66,1.37-1.22,1.36-1.29,2.35-2.37,3.82-4.16-1.75.22-2.93.42-3.36.57-.07.01-.11.03-.15.03-.11,0-.18-.07-.27-.28-.17-.42-.25-.88-.29-1.5.38.06.64.07.95.07.67,0,1.81-.1,3.28-.27.52-.06.69-.1,1.08-.25.13-.06.2-.07.28-.07.2,0,.39.17.76.73.27.36.35.55.35.66,0,.18-.04.24-.35.43-.25.15-.41.28-.73.59-.7.67-.71.67-1.58,1.55-.62.63-.69.7-1.25,1.26.91-.5,1.62-.71,2.47-.71ZM58.12,135.46c-.21-.14-.45-.21-.71-.21-.43,0-.71.21-.71.55,0,.41.43.66,1.11.66.31,0,.57-.03.92-.13-.17-.46-.31-.67-.6-.87Z"/>
        <path d="M69.59,130.37c-.18-.62-.24-.99-.41-2.72-.06-.67-.11-1.01-.25-1.48.85.01,1.4.06,1.78.15.21.06.31.15.31.31,0,.06-.01.13-.04.24-.1.34-.14.59-.14.95,0,.69.14,1.81.29,2.3.08.27.17.36.32.36.34,0,1.57-.64,2.24-1.16.18-.14.21-.15.28-.15.13,0,.25.1.46.36.35.48.63,1,.63,1.19,0,.15-.1.25-.34.32-.87.24-2.3.8-3.26,1.26-1.71.84-2.48,1.61-2.48,2.48s.71,1.21,2.52,1.21c1.05,0,2-.1,3.29-.31.06-.01.15-.03.18-.03.11,0,.18.06.24.17.04.14.14.99.14,1.33,0,.2-.06.27-.24.32-.31.07-2,.17-3.07.17-1.79,0-2.98-.24-3.73-.74-.63-.43-.97-1.12-.97-1.96,0-.64.18-1.22.56-1.78.49-.73,1.02-1.19,2.2-1.89-.29-.27-.41-.46-.53-.9Z"/>
        <path d="M81.81,136.36c0,.73.03,1.23.07,1.72h-1.58c.06-.53.08-1.02.08-1.74v-3.75c0-.64.01-.99.04-1.5-.31.53-.62.95-1.06,1.49-.25-.67-.45-1.04-.76-1.5.94-1.01,1.62-2.04,2.18-3.32.35-.81.62-1.64.71-2.27l1.47.53c-.56,1.64-.6,1.72-1.16,2.98v7.35ZM84.6,127.74c-.7,0-1.18.01-1.57.07v-1.48c.45.06.92.08,1.54.08h5.07c.57,0,1.05-.03,1.53-.08v1.47c-.36-.04-.52-.04-.99-.06v8.68c0,.66-.2,1.05-.6,1.21-.35.14-.91.2-1.76.2-.08,0-.29,0-.6-.01h-.49c-.08-.78-.14-1.02-.36-1.51.59.08,1.13.13,1.64.13.63,0,.76-.06.76-.36v-8.32h-4.15ZM87.53,133.39c0,.53.01.76.04,1.05-.28-.03-.49-.04-1.04-.04h-2.02v.97h-1.4c.04-.32.06-.67.06-1.05v-4.15c0-.45-.01-.77-.06-1.06.28.03.6.04,1.08.04h2.34c.55,0,.79-.01,1.04-.04-.03.28-.04.52-.04,1.05v3.24ZM84.51,133.12h1.69v-2.72h-1.69v2.72Z"/>
        <path d="M96.24,130.12c-1-.2-1.75-.49-2.27-.85-.25-.17-.31-.24-.31-.36,0-.15.11-.43.5-1.22.69.43,1.46.74,2.34.92.2-.98.28-1.79.29-2.7.71.13,1.34.34,1.7.53.15.08.21.17.2.28,0,.06-.03.11-.1.25-.21.43-.22.48-.52,1.85.14.01.32.01.43.01h.1c.34-.01.59-.01.71-.01h.04c.13,0,.17.06.17.24,0,.62-.04,1.12-.1,1.22-.04.07-.22.1-.81.1-.27,0-.48-.01-.87-.03q-.29,1.44-.42,2.2c.48.04.57.04.81.04h.79c.14-.01.21.01.25.08.06.08.1.53.1,1.04,0,.25-.01.32-.1.36-.07.03-.38.04-.91.04-.25,0-.63-.01-1.12-.04-.01.25-.01.42-.01.53,0,1.29.6,1.88,1.92,1.88,1.47,0,2.35-.71,2.35-1.92,0-.43-.1-.83-.32-1.26-.28-.53-.55-.84-1.22-1.37h.13c.22,0,.7-.07,1.12-.15.22-.04.31-.06.38-.06.21,0,.35.1.63.45.64.78.97,1.61.97,2.48,0,1.97-1.6,3.28-4.02,3.28-2.27,0-3.4-1.13-3.4-3.43,0-.2,0-.35.03-.59-1.39-.29-2.14-.98-2.14-1.98,0-.52.15-.9.55-1.29.04-.06.1-.07.15-.07.08,0,.18.07.5.34.25.21.29.25.29.32q0,.06-.08.18c-.06.1-.11.25-.11.34,0,.18.11.34.32.43.2.1.25.11.7.21l.36-2.27Z"/>
        <path d="M108.02,131.51c.43.35.52.43.95.85.2-.71.28-1.13.42-2.13h-1.23c-.42,1.25-.92,2.16-1.72,3.05-.2-.46-.41-.76-.84-1.22.74-.83,1.15-1.58,1.5-2.76.2-.62.27-1.01.34-1.72h-.31c-.45,0-.73.01-1.06.07v-1.43c.36.04.8.07,1.39.07h2.44c.55,0,1.05-.03,1.43-.07v1.42c-.36-.04-.64-.06-1.01-.06h-1.53c-.07.62-.11.84-.25,1.44h1.19c.53,0,.84-.01,1.12-.04-.01.06-.01.07-.03.15,0,.01,0,.04-.01.08q-.06.41-.15,1.29c-.15,1.57-.63,3.21-1.3,4.52-.36.73-.87,1.46-1.39,2.02-.25.28-.45.45-1.15,1.06-.35-.55-.59-.84-.97-1.19,1.25-.9,1.97-1.78,2.67-3.26-.36-.42-.7-.76-1.13-1.15l.64-1.01ZM117.49,133.76q-.17.18-.42.43c-.49.5-.87.85-1.33,1.22.41.6.84,1.02,1.08,1.02.28,0,.38-.39.46-1.78.36.31.79.57,1.16.77-.21,1.88-.59,2.54-1.46,2.54-.77,0-1.65-.64-2.38-1.76-1.21.74-2.54,1.32-3.98,1.72-.25-.56-.43-.85-.78-1.3,1.61-.35,2.89-.84,4.15-1.58-.27-.66-.39-1.05-.56-1.89l-1.34.14c-.46.06-.88.11-1.23.2l-.13-1.39h.25c.27,0,.45-.01.99-.07l1.25-.13c-.06-.41-.06-.42-.11-.88l-.77.07c-.41.04-.73.1-1.05.15l-.1-1.3h.18c.18,0,.56-.03.87-.06l.74-.07q-.01-.15-.03-.36t-.03-.48l-.74.06c-.35.04-.71.08-.85.11-.11.01-.17.03-.18.03-.06,0-.08,0-.13-.01l-.13-1.27h.25c.24,0,.57-.01.95-.06l.74-.07c-.06-.94-.06-.95-.08-1.36-.01-.25-.01-.27-.08-.66h1.62c-.04.25-.06.5-.06.81,0,.1.01.84.03,1.08l1.68-.15c-.42-.43-.84-.78-1.42-1.16l.92-.66c.63.35,1.06.67,1.53,1.13l-.8.67h.07c.48-.06.91-.13,1.21-.2l.13,1.33h-.18c-.22,0-.43.01-1.09.07l-1.99.18c.01.28.01.29.04.84l1.71-.17c.63-.06.91-.1,1.27-.2l.11,1.33h-.17c-.27,0-.45.01-1.11.07l-1.71.17c.07.5.1.8.11.87l2.2-.21c.64-.07.88-.11,1.23-.2l.14,1.34h-.15c-.27,0-.66.03-1.13.08l-2.09.22c.11.52.2.81.36,1.25.69-.52,1-.84,1.21-1.25l1.13.76Z"/>
        <path d="M127.23,130.92c1.92,0,3.17,1.13,3.17,2.86s-1.05,2.82-3.15,3.49c-.76.24-2,.46-2.56.46-.29,0-.36-.07-.56-.48-.15-.32-.32-.52-.74-.81,3.52-.28,5.25-1.18,5.25-2.7,0-.85-.6-1.36-1.61-1.36-1.27,0-2.59.66-3.67,1.82-.2.2-.38.43-.5.64-.13.21-.21.28-.34.28-.21,0-.7-.21-1.04-.46-.17-.13-.22-.22-.22-.45q0-.11.04-.45s0-.14.01-.29c.07-.9.11-1.27.28-2.54q.03-.15.13-.81s.04-.31.11-.83c.01-.13.03-.24.03-.46.67.1,1.3.25,1.57.41.11.06.17.13.15.21,0,.06-.03.1-.07.18-.15.24-.2.36-.32.9s-.32,1.76-.35,2.23c1.43-1.32,2.67-1.83,4.4-1.83ZM126.98,126.93c.55.32.71.48.71.63,0,.13-.22.55-.46.9-.22.32-.31.39-.42.39-.07,0-.11-.03-.28-.15-.94-.71-1.68-1.12-2.73-1.49-.21-.08-.25-.11-.25-.22,0-.14.11-.38.36-.74.22-.34.32-.42.48-.42.34,0,1.71.59,2.59,1.11Z"/>
        <path d="M134.49,129.84c-.25.01-.41.03-.58.04-.13.01-.14.01-.15.01-.11,0-.17-.04-.21-.18-.07-.22-.17-.97-.18-1.39.15.01.56.03,1.06.03.15,0,1.26-.07,1.75-.11.24-1.13.32-1.72.32-2.48,1.44.2,1.96.36,1.96.63,0,.1-.01.13-.22.45-.11.17-.15.32-.39,1.19.66-.11,1.05-.21,1.57-.38.1-.03.14-.04.21-.04.1,0,.13.07.21.48.07.35.11.64.11.8,0,.17-.04.2-.41.28-.48.11-1.29.25-2.16.36-.52,1.57-.87,2.41-1.51,3.73-.49.98-.77,1.5-1.15,2.09-.11.17-.18.22-.28.22-.14,0-.53-.21-1.02-.57-.22-.15-.28-.22-.28-.32s.06-.18.24-.43c.41-.5.94-1.37,1.4-2.3.39-.77.53-1.09.94-2.2-.55.04-.59.06-1.23.1ZM139.1,137.91c-1.53,0-2.56-.84-2.56-2.09s1.08-2.26,2.52-2.26c.34,0,.49.01,1.06.1-.06-.67-.06-.94-.11-2.24,0-.27-.03-.63-.06-1.08.71.07,1.26.15,1.53.27.11.04.17.11.17.22,0,.07-.01.13-.03.22-.07.29-.08.5-.08.88,0,.52.04,1.4.08,2.09.99.45,1.4.67,2.1,1.22.31.24.42.36.42.48,0,.14-.07.27-.46.9-.17.28-.29.41-.39.41q-.08,0-.48-.36c-.31-.31-.66-.55-1.15-.84,0,1.3-.95,2.09-2.56,2.09ZM139.07,134.91c-.67,0-1.13.32-1.13.81,0,.46.42.76,1.05.76.74,0,1.13-.38,1.13-1.12,0-.11,0-.22-.01-.22-.28-.14-.66-.22-1.04-.22ZM144.31,130.94c-.17.24-.25.31-.35.31-.07,0-.13-.03-.22-.13-.35-.34-.84-.7-1.36-1.02q-.34-.21-.95-.49c-.2-.08-.27-.14-.27-.25,0-.1.07-.22.28-.55.34-.49.42-.57.55-.57.27,0,1.3.53,2.05,1.04.6.41.78.57.78.73,0,.11-.22.53-.5.94Z"/>
        <path d="M147.26,128.65c0-.41-.01-.95-.04-1.26.64.07,1.12.17,1.5.31.34.13.45.21.45.36q0,.08-.06.22c-.18.48-.24,1.01-.24,2.28,0,1.79.11,2.91.39,3.77.21.66.53,1.04.91,1.04.57,0,1.05-.67,1.57-2.23.27.71.36.92.76,1.43.07.1.11.2.11.29,0,.22-.21.7-.49,1.11-.55.8-1.25,1.23-1.99,1.23-1.08,0-1.89-.87-2.4-2.59-.32-1.12-.48-2.54-.48-4.5v-1.47ZM155.59,128.88c.08,0,.15.04.27.14.7.67,1.43,1.79,1.89,2.88.31.74.6,1.74.6,2.03,0,.14-.07.21-.36.36-.32.17-.98.39-1.15.39-.13,0-.18-.07-.22-.32-.18-1.08-.43-1.86-.87-2.77-.39-.81-.42-.85-1.37-2.03.59-.43,1.05-.69,1.22-.69Z"/>
      </g>
      <g>
        <path d="M31.62,59.15c.35.06.57.07,1.08.07h1c.38,0,.7-.01,1.02-.06-.04.39-.06.73-.06,1.46v3.01c.35.59.67.84,1.37,1.05.49.14,1.3.2,3.12.2,2.19,0,3.75-.07,5.06-.21-.24.59-.32.88-.41,1.43-1.79.07-2.93.1-4.54.1-.8,0-1.89-.03-2.47-.07-1.32-.1-2.12-.49-2.87-1.44-.64.6-.97.87-1.55,1.29-.1.07-.22.17-.39.29l-.66-1.53c.49-.2,1.12-.62,1.92-1.3v-2.9h-.71c-.36,0-.56.01-.91.07v-1.46ZM32.77,54.17c1.04,1.04,1.3,1.36,2.02,2.37l-1.06,1.16c-.71-1.15-1.22-1.78-2.05-2.54l1.09-1ZM36.83,57.39c-.42,0-.71.01-1,.06v-.49h-.91c.04-.28.06-.49.06-.83v-.84c0-.34-.01-.62-.04-.87.39.03.71.04,1.29.04h6.26c.55,0,.9-.01,1.29-.06-.04.27-.06.49-.06.85v.81c0,.36.01.6.06.88h-.95v.49c-.28-.04-.52-.06-.98-.06h-1.91v.57h2.04c.57,0,.77-.01,1.09-.04-.03.32-.04.56-.04,1v2.02c0,.45.01.66.04.98-.39-.03-.69-.04-1.09-.04h-2.04v.62h2.72c.55,0,.77-.01,1.06-.06v1.26c-.31-.04-.57-.06-1.11-.06h-2.68c.01.45.03.66.08.98h-1.5c.06-.38.07-.52.08-.98h-2.49c-.48,0-.77.01-1.08.06v-1.26c.32.03.69.06,1.06.06h2.51v-.62h-1.92c-.49,0-.71.01-1.08.04.04-.32.04-.43.04-.98v-2.02q0-.67-.04-1c.34.03.57.04,1.08.04h1.92v-.57h-1.78ZM38.61,55.61h-2.27v.66c.15.01.25.01.42.01h1.85v-.67ZM36.97,58.9v.59h1.64v-.59h-1.64ZM36.97,60.37v.55h1.64v-.55h-1.64ZM41.97,56.28h.36v-.67h-2.4v.67h2.03ZM39.94,59.49h1.75v-.59h-1.75v.59ZM39.94,60.92h1.75v-.55h-1.75v.55Z"/>
        <path d="M50.55,59.25q-.03-.69-.04-1.55c-.13.01-.25.01-.31.01-.92,0-2.12-.1-2.61-.22-.14-.04-.17-.07-.17-.21,0-.31.04-.69.14-1.23.78.15,1.75.25,2.59.25.07,0,.2,0,.35-.01v-.92c0-.49-.01-.71-.04-1.2.7.04,1.18.08,1.51.17.28.06.36.13.36.28,0,.07-.01.1-.11.32-.1.24-.11.29-.17,1.26.84-.1,1.51-.24,2.17-.43.04-.01.06-.01.07-.01.1,0,.1.01.25.46.1.29.2.66.2.77,0,.1-.04.15-.18.2-.46.15-1.67.36-2.55.46,0,1,0,1.04.01,1.53.98-.13,1.51-.27,2.62-.67.07-.03.1-.04.14-.04.08,0,.11.04.25.38.14.35.27.74.27.88,0,.07-.06.13-.15.17-.77.28-2.17.62-3.05.71.03.53.06.83.14,1.92.78.24,1.11.36,1.71.69.67.34,1.04.57,1.64,1.05.11.08.15.15.15.27,0,.1-.13.34-.39.76-.31.46-.46.64-.56.64-.04,0-.08-.01-.13-.06-.84-.8-1.39-1.19-2.33-1.65-.06.67-.21,1.05-.59,1.4-.48.46-1.27.71-2.27.71-1.72,0-2.79-.76-2.79-1.97,0-.53.22-1.05.6-1.4.55-.5,1.37-.77,2.42-.77.34,0,.63.03.98.07-.07-.91-.1-1.23-.11-1.53-.32.01-.5.01-.67.01-.97,0-2.14-.15-2.8-.35-.14-.04-.2-.11-.2-.22,0-.21.08-.66.21-1.23.87.21,1.98.34,3.01.34h.41ZM49.58,63.52c-.9,0-1.39.27-1.39.74,0,.42.41.64,1.19.64.91,0,1.33-.32,1.33-1.02v-.24c-.36-.1-.64-.13-1.13-.13Z"/>
        <path d="M60.14,59.24c-.11.03-.17.06-.25.1-.07.04-.11.06-.18.06-.29,0-.52-.55-.69-1.58.11.01.21.01.27.01.59,0,2.09-.18,2.98-.36.29-1.23.45-2.16.45-2.83,0-.06,0-.13-.01-.24.6.07,1.18.2,1.57.35.22.08.34.21.34.35,0,.07-.01.11-.08.22q-.21.38-.64,1.92c.34-.04.71-.07.95-.07.57,0,1.02.11,1.34.34.56.41.84,1.23.84,2.51,0,2.09-.38,3.87-1.02,4.75-.45.62-1.04.91-1.86.91-.5,0-.98-.07-1.12-.15q-.11-.07-.15-.59c-.04-.38-.13-.7-.29-1.09.73.24.91.28,1.36.28.67,0,.95-.32,1.26-1.44.21-.74.32-1.71.32-2.73,0-1.09-.27-1.49-1.01-1.49-.25,0-.66.03-.98.08-.04.15-.06.17-.11.36-.39,1.43-1.11,3.32-1.82,4.83-.74,1.53-.92,1.83-1.11,1.83-.11,0-.49-.2-.9-.46-.32-.2-.41-.28-.41-.39q0-.07.57-.98c.77-1.19,1.78-3.53,2.13-4.9-1.04.22-1.61.36-1.74.41ZM67.28,57.67c0-.1.13-.22.53-.55.28-.21.42-.29.52-.29.08,0,.15.04.34.22.83.8,1.6,1.86,2.04,2.79.14.31.22.5.22.59,0,.14-.04.18-.49.55-.28.22-.6.41-.71.41-.1,0-.14-.04-.24-.28-.28-.69-.55-1.22-.88-1.74-.36-.56-.43-.64-1.26-1.53-.06-.08-.07-.13-.07-.17Z"/>
        <path d="M76.48,59.67v.85c0,2.06.01,2.48.13,2.77.18.5.66.69,1.79.69,1.22,0,2.7-.14,3.35-.31.14-.04.15-.04.2-.04.08,0,.15.04.18.14.08.2.15.74.15,1.13,0,.31-.04.39-.24.45-.28.07-2.14.17-3.17.17-2.49,0-3.53-.62-3.78-2.23-.07-.43-.08-.77-.08-3.39-.08.01-.1.03-.2.04-1.01.17-1.44.28-1.85.46-.11.06-.2.08-.25.08-.21,0-.45-.64-.62-1.7h.13c.31,0,.52-.03,2.77-.31-.04-2.2-.06-2.33-.2-3,.7.03,1.3.1,1.64.2.24.08.32.15.32.32,0,.08-.01.14-.08.29-.11.27-.17.85-.18,1.99,1.82-.22,1.9-.24,3.38-.36v-.83c0-1.26-.04-1.86-.15-2.28.67.03,1.27.11,1.64.22.17.06.22.13.22.27,0,.1-.01.14-.07.31-.11.29-.11.36-.14,2.02v.17c2.04-.15,2.4-.18,2.63-.18.08,0,.14.03.17.07.03.07.07.67.07,1.15,0,.2-.01.24-.08.28t-1.25.03c-.55,0-.97.01-1.6.06-.06,1.19-.14,1.95-.29,2.4-.25.76-.74,1.04-1.82,1.04-.38,0-.8-.07-.94-.15-.13-.08-.14-.14-.22-.6-.08-.46-.13-.6-.29-.95.53.18.87.24,1.25.24.34,0,.48-.06.59-.22.14-.2.17-.42.24-1.65-1.33.1-2.35.22-3.33.38Z"/>
        <path d="M88.05,57.88c-.36.08-.49.13-.99.31-.18.07-.28.1-.36.1-.31,0-.59-.57-.84-1.78.9-.04,1.22-.08,2.77-.32,1.68-.25,3.81-.57,4.93-.71,1.26-.17,2.27-.34,2.8-.45.1-.03.14-.03.21-.03.18,0,.25.08.38.43.11.29.2.71.2.91,0,.17-.06.22-.25.22-.29,0-.56.03-.83.07-2.37.39-4.26,2.46-4.26,4.65,0,1.64,1.29,2.72,3.47,2.91.2.01.27.08.27.25,0,.35-.14,1.02-.27,1.33-.07.15-.18.22-.36.22s-.6-.08-1.04-.21c-2.38-.7-3.63-2.21-3.63-4.36,0-1.16.38-2.24,1.11-3.17.39-.5.73-.78,1.53-1.33-1.83.31-3.77.67-4.83.94ZM95.23,58.24c.2,0,1.39,1.33,1.39,1.54,0,.07-.08.15-.34.38-.27.22-.28.22-.39.27q-.07.03-.1.03c-.06,0-.07-.01-.32-.41-.22-.35-.46-.66-.91-1.12-.03-.03-.07-.1-.07-.11.03-.07.04-.11.06-.11.04-.06.28-.25.34-.29.14-.07.22-.13.24-.14.01-.03.04-.03.04-.03h.07ZM97.62,59.21c-.21.15-.34.24-.41.24-.06,0-.08-.03-.15-.14-.42-.63-.63-.9-1.08-1.33-.03-.04-.06-.08-.06-.11,0-.07.08-.15.28-.29.2-.14.36-.22.43-.22.1,0,.27.13.56.42.41.42.78.94.78,1.06,0,.08-.1.18-.36.38Z"/>
        <path d="M99.83,57.43c.97.53,1.47.9,2.42,1.7l-.85,1.26c-.92-.85-1.44-1.26-2.42-1.85l.85-1.11ZM102.21,62c-.52,1.58-.98,2.68-1.61,3.8q-.1.18-.17.32t-.11.2l-1.29-1.12c.76-.91,1.32-2.02,2-4.03l1.18.84ZM100.4,54.11c.95.56,1.48.97,2.37,1.79l-.94,1.2c-.85-.88-1.27-1.23-2.35-1.92l.92-1.08ZM107.39,61.12c.8,1.75,2.12,2.94,4.12,3.74-.36.48-.52.78-.79,1.53-2.02-1.02-3.53-2.54-4.23-4.2-.66,1.92-1.81,3.18-3.91,4.3-.24-.55-.46-.87-.92-1.36,2.13-.9,3.24-2.1,3.67-4.01h-1.29c-.63,0-1.09.03-1.51.08v-1.58c.42.04.9.07,1.5.07h1.51c.06-.79.08-1.54.1-2.3h-1.11c-.57,0-1.08.03-1.43.07v-1.53c.43.06.84.07,1.43.07h1.09v-.71c0-.63-.03-.9-.08-1.28h1.62c-.07.39-.08.63-.08,1.25v.74h2.07c.62,0,.94-.01,1.25-.06-.04.27-.06.56-.06,1.08v2.66q.56-.01,1.12-.08v1.6c-.43-.06-.9-.08-1.48-.08h-2.59ZM108.93,59.69v-2.3h-1.86c-.01,1.06-.04,1.7-.1,2.3h1.96Z"/>
        <path d="M118.03,59.25q-.03-.69-.04-1.55c-.13.01-.25.01-.31.01-.92,0-2.12-.1-2.61-.22-.14-.04-.17-.07-.17-.21,0-.31.04-.69.14-1.23.78.15,1.75.25,2.59.25.07,0,.2,0,.35-.01v-.92c0-.49-.01-.71-.04-1.2.7.04,1.18.08,1.51.17.28.06.36.13.36.28,0,.07-.01.1-.11.32-.1.24-.11.29-.17,1.26.84-.1,1.51-.24,2.17-.43.04-.01.06-.01.07-.01.1,0,.1.01.25.46.1.29.2.66.2.77,0,.1-.04.15-.18.2-.46.15-1.67.36-2.55.46,0,1,0,1.04.01,1.53.98-.13,1.51-.27,2.62-.67.07-.03.1-.04.14-.04.08,0,.11.04.25.38.14.35.27.74.27.88,0,.07-.06.13-.15.17-.77.28-2.17.62-3.05.71.03.53.06.83.14,1.92.78.24,1.11.36,1.71.69.67.34,1.04.57,1.64,1.05.11.08.15.15.15.27,0,.1-.13.34-.39.76-.31.46-.46.64-.56.64-.04,0-.08-.01-.13-.06-.84-.8-1.39-1.19-2.33-1.65-.06.67-.21,1.05-.59,1.4-.48.46-1.27.71-2.27.71-1.72,0-2.79-.76-2.79-1.97,0-.53.22-1.05.6-1.4.55-.5,1.37-.77,2.42-.77.34,0,.63.03.98.07-.07-.91-.1-1.23-.11-1.53-.32.01-.5.01-.67.01-.97,0-2.14-.15-2.8-.35-.14-.04-.2-.11-.2-.22,0-.21.08-.66.21-1.23.87.21,1.98.34,3.01.34h.41ZM117.06,63.52c-.9,0-1.39.27-1.39.74,0,.42.41.64,1.19.64.91,0,1.33-.32,1.33-1.02v-.24c-.36-.1-.64-.13-1.13-.13Z"/>
        <path d="M133.7,58.96c1.97,0,3.38,1.34,3.38,3.25,0,1.3-.69,2.48-1.83,3.17-.8.48-1.78.71-2.88.71-1.78,0-2.82-.71-2.82-1.93,0-1.11.92-1.89,2.24-1.89,1.19,0,2.04.6,2.62,1.83.71-.52,1.01-1.06,1.01-1.82,0-1.2-.85-1.99-2.2-1.99s-2.84.69-4.06,1.91c-.22.22-.43.46-.69.78-.1.14-.17.2-.25.2-.25,0-1.25-.98-1.25-1.23,0-.13.06-.2.36-.42.32-.25.78-.66,1.37-1.22,1.36-1.29,2.35-2.37,3.82-4.16-1.75.22-2.93.42-3.36.57-.07.01-.11.03-.15.03-.11,0-.18-.07-.27-.28-.17-.42-.25-.88-.29-1.5.38.06.64.07.95.07.67,0,1.81-.1,3.28-.27.52-.06.69-.1,1.08-.25.13-.06.2-.07.28-.07.2,0,.39.17.76.73.27.36.35.55.35.66,0,.18-.04.24-.35.43-.25.15-.41.28-.73.59-.7.67-.71.67-1.58,1.55-.62.63-.69.7-1.25,1.26.91-.5,1.62-.71,2.47-.71ZM132.35,63.81c-.21-.14-.45-.21-.71-.21-.43,0-.71.21-.71.55,0,.41.43.66,1.11.66.31,0,.57-.03.92-.13-.17-.46-.31-.67-.6-.87Z"/>
      </g>
      <g>
        <path d="M29.46,91.35c.29-.59.49-1.15.62-1.78l1.69.17c-.24.63-.43,1.08-.69,1.61h3.11c.78,0,1.2-.01,1.67-.06-.06.45-.07.8-.07,1.64v7.54c0,.78.01,1.12.08,1.54h-1.55v-.67h-6.63v.67h-1.53c.06-.34.08-.91.08-1.56v-7.52c0-.78-.01-1.19-.07-1.64.45.04.87.06,1.64.06h1.64ZM27.71,94.24h6.62v-1.51h-6.62v1.51ZM27.71,97.05h6.62v-1.53h-6.62v1.53ZM27.71,99.98h6.62v-1.62h-6.62v1.62Z"/>
        <path d="M41.94,95.68c-.45,0-.79.01-1.13.07v-.97c-.63.66-.98.97-1.68,1.5-.22-.45-.56-.87-1.04-1.32,1.67-1.16,2.69-2.27,3.54-3.87.32-.59.46-.95.53-1.36l1.61.59c-.14.21-.21.34-.36.69-.49,1.05-1.29,2.27-2.16,3.26.35.03.42.03.7.03h4.93c.34,0,.52,0,.84-.01-.94-1.05-1.62-2.12-2.21-3.38-.06-.14-.18-.38-.28-.56l1.49-.59c.11.36.24.66.53,1.18.9,1.62,2.03,2.83,3.71,3.89-.55.64-.66.81-1.02,1.46-.74-.56-1.09-.85-1.65-1.41-.01.18-.01.22-.01.46,0,2.79-.21,4.92-.56,5.62-.29.59-.78.78-1.93.78-.28,0-.55-.01-1.43-.06-.07-.59-.15-.92-.39-1.57.62.1,1.23.17,1.61.17.5,0,.66-.06.77-.25.21-.39.42-2.18.42-3.59v-.77h-2.58c-.11,1.43-.41,2.38-1.05,3.43-.74,1.25-1.83,2.17-3.42,2.97-.25-.49-.46-.78-.98-1.32.83-.31,1.39-.64,2.07-1.23.94-.81,1.54-1.86,1.76-3.07.04-.24.07-.38.1-.78h-.73Z"/>
        <path d="M57.31,98.71c-.67,1.16-1.6,1.81-2.55,1.81-1.46,0-2.49-1.43-2.49-3.42,0-2.21,1.12-4.12,3.04-5.13.94-.5,1.95-.73,3.28-.73,2.93,0,5.1,2.07,5.1,4.85,0,2.45-1.2,4.22-3.53,5.21-.46.2-.83.31-1.01.31-.17,0-.24-.06-.42-.32-.24-.36-.5-.63-.88-.88,2.89-.74,4.19-2.1,4.19-4.37,0-1.16-.49-2.14-1.36-2.76-.49-.34-.88-.48-1.65-.6-.39,2.96-.85,4.57-1.71,6.04ZM55.29,93.75c-.94.83-1.47,2-1.47,3.32,0,1.08.35,1.71.94,1.71.7,0,1.42-.97,1.95-2.63.34-1.05.5-1.85.71-3.4-.99.21-1.48.45-2.13,1.01Z"/>
        <path d="M69.25,94.15c-1-.2-1.75-.49-2.27-.85-.25-.17-.31-.24-.31-.36,0-.15.11-.43.5-1.22.69.43,1.46.74,2.34.92.2-.98.28-1.79.29-2.7.71.13,1.34.34,1.7.53.15.08.21.17.2.28,0,.06-.03.11-.1.25-.21.43-.22.48-.52,1.85.14.01.32.01.43.01h.1c.34-.01.59-.01.71-.01h.04c.13,0,.17.06.17.24,0,.62-.04,1.12-.1,1.22-.04.07-.22.1-.81.1-.27,0-.48-.01-.87-.03q-.29,1.44-.42,2.2c.48.04.57.04.81.04h.79c.14-.01.21.01.25.08.06.08.1.53.1,1.04,0,.25-.01.32-.1.36-.07.03-.38.04-.91.04-.25,0-.63-.01-1.12-.04-.01.25-.01.42-.01.53,0,1.29.6,1.88,1.92,1.88,1.47,0,2.35-.71,2.35-1.92,0-.43-.1-.83-.32-1.26-.28-.53-.55-.84-1.22-1.37h.13c.22,0,.7-.07,1.12-.15.22-.04.31-.06.38-.06.21,0,.35.1.63.45.64.78.97,1.61.97,2.48,0,1.97-1.6,3.28-4.02,3.28-2.27,0-3.4-1.13-3.4-3.43,0-.2,0-.35.03-.59-1.39-.29-2.14-.98-2.14-1.98,0-.52.15-.9.55-1.29.04-.06.1-.07.15-.07.08,0,.18.07.5.34.25.21.29.25.29.32q0,.06-.08.18c-.06.1-.11.25-.11.34,0,.18.11.34.32.43.2.1.25.11.7.21l.36-2.27Z"/>
        <path d="M83.29,93.55c.91-.24,1.51-.32,2.17-.32,1.99,0,3.14,1.18,3.14,3.19,0,1.75-.76,3.17-2.28,4.29-.81.6-2.04,1.2-2.45,1.2-.18,0-.22-.04-.52-.46-.21-.32-.42-.52-.77-.77,1.61-.55,2.28-.9,3.01-1.53.84-.74,1.26-1.64,1.26-2.7,0-1.13-.53-1.78-1.47-1.78-.76,0-1.74.29-3.01.91-.18.08-.28.15-.52.32-.06.03-.11.06-.17.06-.27,0-.71-.78-1.02-1.83.52-.04.79-.11,2.63-.57ZM84.23,90.13c.5.15,1.26.29,1.95.38.28.03.38.04,1.09.07.21,0,.27.06.27.21,0,.46-.1,1.22-.18,1.36-.03.08-.1.11-.2.11-.32,0-1.46-.15-2.12-.29-1.11-.22-2.07-.5-2.27-.66-.04-.04-.07-.1-.07-.15,0-.11.29-.87.43-1.13.07-.11.11-.14.2-.14q.07,0,.9.25Z"/>
        <path d="M94.13,90.61v-.2c.88.15,1.33.28,1.69.46.1.04.13.1.13.2,0,.06-.03.13-.08.22-.13.22-.17.39-.38,1.32-.27,1.2-.41,2.55-.41,4.02,0,.78.03,1.22.11,1.96l.74-1.5c.08.29.2.53.36.73.11.14.13.18.13.29s0,.11-.27.7c-.29.63-.46,1.18-.62,1.89-.04.22-.08.29-.15.32-.11.06-.59.13-.87.13-.2,0-.27-.04-.31-.17-.34-.95-.62-2.91-.62-4.31,0-1.21.15-2.87.41-4.62.08-.57.13-.99.13-1.29v-.15ZM98.91,94.57c-.78,0-1.01-.03-1.08-.13-.1-.13-.18-.7-.18-1.22v-.21c.56.06,1.01.08,1.72.08.55,0,.85-.01,1.42-.06-.04-1.46-.13-2.33-.29-2.77h.38c.49,0,1.09.04,1.4.11.14.03.21.11.21.22,0,.06-.01.11-.04.21-.07.2-.11.5-.11.87,0,.21.01.87.01,1.04v.14c.7-.11,1.04-.18,1.62-.38.06-.01.11-.03.17-.03.08,0,.13.04.15.13.06.15.11.7.11,1.01,0,.22-.04.32-.15.36-.18.07-1.04.24-1.86.35.01.39.01.6.01.83,0,2.06-.25,3.53-.81,4.64-.5.99-1.6,2.16-2.05,2.16-.13,0-.18-.03-.34-.17-.46-.41-.55-.48-1.09-.73.98-.55,1.61-1.13,2.04-1.93.46-.85.71-2.03.71-3.32,0-.1,0-.34-.01-.67-.01-.14-.01-.35-.03-.63-.5.04-1.64.1-1.92.1Z"/>
        <path d="M107.18,95.23c-.11.03-.17.06-.25.1-.07.04-.11.06-.17.06-.31,0-.53-.53-.7-1.57h.27c.59,0,2.09-.18,2.98-.36.29-1.22.45-2.16.45-2.82,0-.06,0-.14-.01-.24.6.06,1.18.18,1.57.35.22.08.34.2.34.34,0,.07-.01.13-.08.24q-.21.36-.64,1.91c.34-.04.71-.07.95-.07.57,0,1.02.11,1.34.34.56.41.84,1.23.84,2.51,0,2.09-.38,3.88-1.02,4.76-.45.62-1.04.91-1.86.91-.5,0-.98-.07-1.12-.15q-.11-.07-.15-.59c-.04-.38-.13-.71-.29-1.11.73.25.91.29,1.36.29.67,0,.95-.32,1.26-1.46.21-.74.32-1.69.32-2.73,0-1.09-.27-1.48-1.01-1.48-.25,0-.66.04-.98.08-.04.17-.06.18-.11.36-.39,1.44-1.11,3.32-1.82,4.83-.74,1.53-.92,1.83-1.11,1.83-.11,0-.49-.2-.9-.46-.32-.2-.41-.28-.41-.39q0-.07.57-.98c.77-1.19,1.78-3.52,2.13-4.9-1.04.24-1.61.36-1.74.41ZM115.97,92.36c-.22.17-.38.24-.45.24-.04,0-.08-.03-.13-.1-.29-.48-.78-1.02-1.19-1.37-.03-.03-.04-.06-.04-.08,0-.06.1-.15.34-.34.24-.17.31-.21.41-.21.22,0,1.46,1.25,1.46,1.47,0,.08-.11.18-.39.39ZM114.49,93.85c0-.1.13-.22.53-.55.28-.21.42-.29.53-.29.18,0,.81.67,1.4,1.5.49.7,1.02,1.7,1.02,1.93,0,.14-.04.18-.49.55-.28.22-.6.41-.71.41-.1,0-.14-.04-.24-.28-.27-.67-.5-1.13-.88-1.74-.38-.6-.41-.63-1.08-1.36-.06-.07-.08-.11-.08-.17ZM116.32,89.55c.24,0,1.43,1.19,1.43,1.43,0,.07-.08.15-.36.35-.25.2-.38.27-.43.27q-.07,0-.35-.39c-.24-.32-.69-.8-.94-1.01-.04-.04-.07-.07-.07-.11,0-.11.57-.53.73-.53Z"/>
        <path d="M128.8,90.26c.63,0,1.04-.01,1.44-.07-.06.53-.07.92-.07,1.37v8.83c0,.69.01,1.16.08,1.64h-1.61v-.76h-6.3v.76h-1.61c.06-.45.08-.94.08-1.53v-8.88c0-.5-.03-1-.07-1.43.43.06.87.07,1.5.07h6.56ZM128.64,93.41v-1.72h-6.3v1.72h6.3ZM122.34,96.55h6.3v-1.72h-6.3v1.72ZM122.34,99.84h6.3v-1.89h-6.3v1.89Z"/>
        <path d="M134.7,91.66c.27-.62.45-1.26.57-1.96l1.54.21c-.29.87-.36,1.05-.69,1.75h.74c.67-.01,1.06-.03,1.16-.04q-.01.11-.03.41s-.01.07-.01.76v1.12c.85-1,1.77-2.94,1.96-4.25l1.54.27c-.07.18-.1.27-.18.52-.06.2-.28.87-.39,1.13h2.87c.55,0,.87-.01,1.15-.06-.04.27-.04.36-.06.57v.42q0,.07-.1,3.25c-.1,2.87-.27,4.37-.57,5.16-.32.77-.87,1.02-2.2,1.02-.32,0-.66-.01-1.34-.04-.06-.62-.15-.98-.38-1.54.88.14,1.3.18,1.72.18.57,0,.78-.11.91-.49.28-.84.46-3.42.49-7.07h-3.11c-.53,1.05-.94,1.62-1.74,2.54-.2-.28-.24-.34-.58-.67v5.17c0,.49.01.98.06,1.32h-1.44v-.8h-1.9v1.18h-1.47c.06-.41.07-.9.07-1.74v-6.99c0-.7-.01-1.01-.06-1.36.22.03.52.04.71.04h.74ZM134.69,95.34h1.92v-2.38h-1.92v2.38ZM134.69,99.24h1.92v-2.59h-1.92v2.59ZM141.02,98.64c-.46-1.32-1.09-2.58-1.74-3.42l1.23-.66c.8,1.15,1.22,1.89,1.86,3.33l-1.36.74Z"/>
      </g>
    </g>
  </g>
</svg>