<?xml version="1.0" encoding="UTF-8"?>
<svg id="_レイヤー_2" data-name="レイヤー 2" xmlns="http://www.w3.org/2000/svg" width="339.66" height="214.75" viewBox="0 0 339.66 214.75">
  <defs>
    <style>
      .cls-1 {
        fill: #211815;
      }

      .cls-2 {
        fill: #f5f19b;
      }

      .cls-3 {
        fill: #ecbb6e;
      }

      .cls-4 {
        fill: #93c9ce;
      }

      .cls-5 {
        fill: #5c948d;
      }

      .cls-6, .cls-7 {
        fill: #fff;
      }

      .cls-8 {
        fill: #de8a4c;
      }

      .cls-9 {
        fill: #ceeaeb;
      }

      .cls-10 {
        fill: #f2d496;
      }

      .cls-7 {
        stroke: #ceeaeb;
        stroke-miterlimit: 10;
        stroke-width: 2.83px;
      }
    </style>
  </defs>
  <g id="_レイヤー_1-2" data-name="レイヤー 1">
    <g>
      <path class="cls-7" d="M9.89,124.58h239.38c4.68,0,8.47,3.79,8.47,8.47v43.68s9.69,9.69,9.69,9.69h-9.69s0,.5,0,.5c0,4.68-3.79,8.47-8.47,8.47H9.89c-4.68,0-8.47-3.79-8.47-8.47v-53.87c0-4.68,3.79-8.47,8.47-8.47Z"/>
      <circle class="cls-9" cx="308.24" cy="184.75" r="30"/>
      <g>
        <path class="cls-2" d="M310.42,202.18c1.36-.08,2.67-.26,3.94-.54,9.94-2.19,10.3-7.26,10.17-11.48-.13-4.22-1.05-19.35-13.24-20.18-12.19-.82-15.33,8.87-17.69,12.02s-10.95,12.98,5.17,18.47c1.57.54,3.13.95,4.67,1.23"/>
        <path class="cls-3" d="M312.08,195.98c-.68-1.85-3.68-3.84-5.2-3.62-1.53.22-4.74,2.07-5.75,2.02s-1.7-.74-1.81,1.6,1.71,3.54,4.16,2.68c3.4,1.94,9.76.49,8.6-2.68Z"/>
        <path class="cls-3" d="M312.08,198.37c-.76,3.71-4.97,5.89-6.25,5.34-1.27-.55-2.88-1.43-1.48-4.66,2.52.54,6.97-.12,7.09-1.65.12-1.53.64.97.64.97Z"/>
        <path class="cls-8" d="M305.6,199.38c-.73,1.36-.38,3.09,1.85,2.01s2.23-2.31,2.23-2.31c0,0,1.46-.73-.49,0-1.95.73-3.58.3-3.58.3Z"/>
        <polygon class="cls-5" points="322.53 166.39 316.36 165.81 319.11 171.37 325.4 172.04 322.53 166.39"/>
        <rect class="cls-5" x="315.77" y="169.52" width="6.72" height="2.92" transform="translate(175.55 -161.38) rotate(38.45)"/>
        <path class="cls-10" d="M289.91,187.9c5.1.33,8.05,5.73,6.16,11.51-4.98-2.71-7.76-5.46-6.16-11.51Z"/>
        <path class="cls-10" d="M324.02,190.06c-5.89-.81-10.4,4.26-9.48,10.84,6.25-1.75,10.01-4.04,9.48-10.84Z"/>
        <ellipse class="cls-1" cx="302.07" cy="190.24" rx="1.85" ry="1.71" transform="translate(67.15 459.04) rotate(-81.05)"/>
        <ellipse class="cls-1" cx="312.29" cy="191.3" rx="1.71" ry="1.85" transform="translate(-9.27 16.03) rotate(-2.9)"/>
        <path class="cls-1" d="M301.9,180.48c1.67-.68,3.18-.04,3.88,1.27.17.3-.14.57-.47.4-1.05-.53-2.08-.79-3.21-1.01-.38-.07-.52-.54-.2-.67Z"/>
        <path class="cls-1" d="M315.18,183.03c-1.24-1.31-2.87-1.35-4.06-.46-.28.21-.11.58.26.56,1.18-.05,2.22.15,3.34.42.37.09.69-.27.46-.52Z"/>
        <path class="cls-1" d="M310.42,202.81c-.33,0-.61-.26-.63-.59-.02-.35.25-.65.59-.67,1.31-.08,2.6-.25,3.84-.53,9.95-2.2,9.78-7.4,9.68-10.85-.13-4.34-.82-8.09-2.05-11.15-2.11-5.25-5.67-8.08-10.6-8.42-9.76-.66-13.4,5.55-15.82,9.66-.49.83-.91,1.55-1.33,2.11-.12.16-.25.33-.39.51-1.68,2.19-4.81,6.26-3.62,10.16.85,2.81,3.84,5.1,8.88,6.82,1.52.52,3.06.93,4.58,1.21.34.06.57.39.5.74-.06.34-.39.57-.74.5-1.58-.3-3.17-.72-4.75-1.26-5.45-1.86-8.71-4.43-9.68-7.65-1.37-4.52,2.14-9.1,3.83-11.3.14-.18.27-.35.38-.5.37-.5.78-1.19,1.25-1.99,2.41-4.11,6.45-10.99,16.99-10.28,5.45.37,9.38,3.47,11.68,9.21,1.28,3.2,2,7.09,2.14,11.58.15,4.69-.55,9.88-10.67,12.12-1.3.29-2.66.47-4.04.55-.01,0-.02,0-.04,0Z"/>
        <path class="cls-1" d="M301.13,189.62c-.07,0-.14-.02-.2-.07-.77-.61-1.16-1.23-1.45-2.3-.05-.17.05-.34.22-.39.17-.05.34.05.39.22.29,1.07.66,1.52,1.24,1.97.14.11.16.31.05.44-.06.08-.15.12-.25.12Z"/>
        <path class="cls-1" d="M300.94,190.22c-.81,0-1.69-.47-2.38-1.28-.11-.13-.1-.33.04-.44.13-.11.33-.1.44.04.61.72,1.4,1.12,2.06,1.05.17-.02.33.11.35.28.02.17-.11.33-.28.35-.08,0-.15.01-.23.01Z"/>
        <path class="cls-1" d="M313.49,190.81c-.16,0-.29-.11-.31-.27-.02-.17.1-.33.27-.35.66-.09,1.43-.66,1.86-1.39.09-.15.28-.2.43-.11.15.09.2.28.11.43-.53.9-1.46,1.58-2.32,1.7-.01,0-.03,0-.04,0Z"/>
        <path class="cls-1" d="M314.58,192.07c-.38,0-.76-.07-1.14-.24-.16-.07-.23-.26-.16-.42.07-.16.26-.23.42-.16.86.39,1.82.08,2.49-.24.16-.08.35-.01.42.14.08.16.01.35-.14.42-.51.25-1.18.49-1.89.49Z"/>
        <path class="cls-1" d="M307.12,200.16c-1.07,0-2.22-.33-3.41-.99-2.32.66-3.62.03-4.3-.62-.86-.83-1.19-2.15-.85-3.44.35-1.32.96-1.43,1.86-1.46.65-.01,1.63-.04,3.23-.88,3.58-1.88,5.67-.8,7.72,1.4.21.22.19.57-.03.78-.22.21-.57.19-.78-.03-1.84-1.98-3.4-2.75-6.39-1.17-1.83.96-3.01.99-3.72,1q-.65.01-.82.63c-.24.9-.02,1.83.54,2.37.7.67,1.9.78,3.44.29.15-.05.31-.03.44.05,1.93,1.13,4.68,1.81,6.87-1.38.15-.21.42-.3.66-.2,0,0,.72.29,1.36.43.3.07.49.36.42.66-.07.3-.36.49-.66.42-.41-.09-.83-.23-1.13-.33-1.24,1.64-2.76,2.47-4.47,2.47Z"/>
        <path class="cls-1" d="M306.42,204.33c-.61,0-1.2-.14-1.74-.43-.87-.47-1.42-1.13-1.64-1.97-.44-1.65.61-3.36.66-3.43.16-.26.5-.34.76-.18.26.16.34.5.18.76,0,.01-.84,1.38-.53,2.57.14.54.5.96,1.1,1.28.85.46,1.91.39,2.98-.19,1.52-.82,3.14-2.8,3.35-5.36.02-.3.29-.53.6-.5.3.02.53.29.5.6-.21,2.62-1.75,5.07-3.92,6.24-.77.42-1.55.63-2.29.63Z"/>
        <path class="cls-1" d="M320.88,175.31c-.14,0-.27-.04-.39-.14-.27-.22-.32-.61-.1-.89l2.27-2.88c.13-.17.35-.26.56-.24l1.1.12-2.18-4.3-4.7-.44.66,1.33c.11.21.08.47-.06.66l-1.82,2.42c-.21.28-.61.33-.88.12-.28-.21-.33-.6-.12-.88l1.59-2.11-.99-1.99c-.1-.2-.08-.45.05-.64.13-.19.35-.29.58-.27l6.18.58c.22.02.41.15.5.34l2.87,5.65c.1.21.09.45-.04.64-.13.19-.36.29-.59.27l-1.91-.2-2.05,2.6c-.12.16-.31.24-.5.24Z"/>
      </g>
      <g>
        <path d="M25.91,146.7c-.69,0-1.79.22-2.54.51-1.59.62-2.64,1.74-2.64,2.83,0,.69.45,1.16,1.35,1.38.41.11,1.11.18,1.61.17h.15c.25,0,.34.09.34.28,0,.5-.09,1.19-.16,1.38-.06.12-.13.16-.29.16-.91,0-2.07-.24-2.85-.6-1.15-.51-1.79-1.39-1.79-2.5,0-.71.27-1.43.78-2.07.29-.35.51-.55,1.05-.93-2.73.82-4.1,1.35-5.01,1.95-.12.08-.2.11-.27.11-.17,0-.3-.13-.51-.51-.21-.35-.36-.77-.36-.99,0-.13.06-.18.42-.29.35-.11.59-.25,1.16-.66.69-.51,1.77-1.44,2.7-2.32.77-.74,1.2-1.19,2.1-2.24-.87.1-3.22.51-3.57.6-.21.06-.22.06-.27.06-.13,0-.2-.06-.25-.21-.12-.33-.23-.88-.3-1.52.21.02.31.02.45.02.68,0,2.13-.12,3.93-.35.68-.07,1.07-.16,1.34-.3.18-.09.21-.11.31-.11.18,0,.42.2.84.71.3.34.39.51.39.67s-.06.24-.26.38q-.27.17-1.53,1.33c-1.04.96-2.27,2.01-3.64,3.1,2.12-.63,3.22-.93,5.52-1.44.51-.1,1.01-.24,1.57-.42.08-.03.13-.04.18-.04.12,0,.18.06.25.2.17.35.36,1.08.36,1.35,0,.21-.06.3-.22.3h-.34Z"/>
        <path d="M33.41,144.5c.97-.25,1.62-.35,2.32-.35,2.13,0,3.36,1.26,3.36,3.42,0,1.88-.81,3.39-2.45,4.59-.87.65-2.19,1.29-2.62,1.29-.2,0-.24-.04-.56-.5-.22-.34-.45-.55-.82-.82,1.72-.58,2.45-.96,3.22-1.63.9-.79,1.35-1.76,1.35-2.89,0-1.22-.57-1.91-1.57-1.91-.81,0-1.86.32-3.22.98-.2.09-.3.17-.55.34-.06.03-.12.06-.18.06-.29,0-.77-.84-1.1-1.96.55-.04.84-.12,2.82-.62ZM34.41,140.84c.54.17,1.35.32,2.09.41.3.03.4.04,1.17.08.22,0,.29.06.29.22,0,.5-.11,1.3-.2,1.46-.03.09-.11.12-.21.12-.34,0-1.56-.17-2.26-.32-1.19-.24-2.22-.54-2.43-.71-.05-.04-.08-.1-.08-.16,0-.12.31-.93.46-1.21.08-.12.12-.15.21-.15q.07,0,.96.27Z"/>
        <path d="M54.83,146.7c-.69,0-1.79.22-2.54.51-1.59.62-2.64,1.74-2.64,2.83,0,.69.45,1.16,1.35,1.38.41.11,1.11.18,1.61.17h.15c.25,0,.34.09.34.28,0,.5-.09,1.19-.16,1.38-.06.12-.13.16-.29.16-.91,0-2.07-.24-2.85-.6-1.15-.51-1.79-1.39-1.79-2.5,0-.71.27-1.43.78-2.07.29-.35.51-.55,1.05-.93-2.73.82-4.1,1.35-5.01,1.95-.12.08-.2.11-.27.11-.17,0-.3-.13-.51-.51-.21-.35-.36-.77-.36-.99,0-.13.06-.18.42-.29.35-.11.59-.25,1.16-.66.69-.51,1.77-1.44,2.7-2.32.77-.74,1.2-1.19,2.1-2.24-.87.1-3.22.51-3.57.6-.21.06-.22.06-.27.06-.13,0-.2-.06-.25-.21-.12-.33-.23-.88-.3-1.52.21.02.31.02.45.02.68,0,2.13-.12,3.93-.35.68-.07,1.07-.16,1.34-.3.18-.09.21-.11.31-.11.18,0,.42.2.84.71.3.34.39.51.39.67s-.06.24-.26.38q-.27.17-1.53,1.33c-1.04.96-2.27,2.01-3.64,3.1,2.12-.63,3.22-.93,5.52-1.44.51-.1,1.01-.24,1.57-.42.08-.03.13-.04.18-.04.12,0,.18.06.25.2.17.35.36,1.08.36,1.35,0,.21-.06.3-.22.3h-.34Z"/>
        <path d="M62.33,144.5c.97-.25,1.62-.35,2.32-.35,2.13,0,3.36,1.26,3.36,3.42,0,1.88-.81,3.39-2.45,4.59-.87.65-2.19,1.29-2.62,1.29-.2,0-.24-.04-.56-.5-.22-.34-.45-.55-.82-.82,1.72-.58,2.45-.96,3.22-1.63.9-.79,1.35-1.76,1.35-2.89,0-1.22-.57-1.91-1.57-1.91-.81,0-1.86.32-3.22.98-.2.09-.3.17-.55.34-.06.03-.12.06-.18.06-.29,0-.77-.84-1.1-1.96.55-.04.84-.12,2.82-.62ZM63.33,140.84c.54.17,1.35.32,2.09.41.3.03.4.04,1.17.08.22,0,.29.06.29.22,0,.5-.11,1.3-.2,1.46-.03.09-.11.12-.21.12-.34,0-1.56-.17-2.26-.32-1.19-.24-2.22-.54-2.43-.71-.05-.04-.08-.1-.08-.16,0-.12.31-.93.46-1.21.08-.12.12-.15.21-.15q.07,0,.96.27Z"/>
        <path d="M79.8,152.13c0,.66-.53,1.18-1.19,1.18s-1.19-.52-1.19-1.18.53-1.19,1.19-1.19,1.19.53,1.19,1.19ZM79.28,149.91h-1.33l-.41-8.98h2.16l-.42,8.98Z"/>
        <path d="M88.3,141.84c0-.69-.01-1.01-.09-1.47h1.73c-.08.45-.09.79-.09,1.46v1.19h.79c.32,0,.5-.02.72-.04v1.48c-.25-.03-.48-.04-.75-.04h-.77v2.19c.44-.15.65-.22,1.26-.46v1.41q-.84.33-1.26.48v4.18c0,.63-.22,1.05-.64,1.19-.3.11-.86.17-1.39.17-.26,0-.45-.01-.87-.04-.06-.63-.12-.92-.35-1.5.54.08.93.1,1.28.1s.43-.07.43-.43v-3.13q-1.32.42-1.59.54l-.31-1.61c.62-.07.71-.09,1.9-.42v-2.65h-.73c-.36,0-.62.01-1.02.06v-1.53c.33.06.6.08,1.04.08h.72v-1.17ZM98.78,147.3q-.11.13-.38.58c-.75,1.25-1.3,1.98-2.1,2.75,1.11.71,2.07,1.08,3.55,1.37-.39.48-.68.99-.9,1.56-1.77-.54-2.82-1.04-3.93-1.86-1.17.86-2.38,1.41-4.05,1.89-.31-.64-.51-.97-.88-1.44,1.5-.32,2.45-.7,3.77-1.53-.84-.9-1.23-1.5-1.8-2.8-.27.02-.45.03-.69.06v-1.52c.31.06.66.08,1.15.08h4.54c.39,0,.66-.02.87-.06l.84.93ZM99.72,143.27c-.17,2.16-.33,2.34-2.22,2.34-.69,0-1.04-.03-1.26-.1-.44-.15-.57-.41-.57-1.08v-2.19h-1.74c-.06,2.12-.62,3.24-2.05,4.19-.34-.45-.63-.71-1.15-1.08,1.3-.72,1.72-1.67,1.72-3.91,0-.23-.02-.41-.04-.72.27.03.62.04.95.04h2.97c.32,0,.63-.02.9-.04-.03.18-.04.51-.04.92v2.2c0,.23.02.29.12.32.06.03.24.04.39.04.21,0,.42-.03.48-.08.13-.1.18-.39.18-1.17v-.16c0-.11,0-.27-.02-.48.83.45.96.51,1.41.66v.31ZM93.64,147.81c.38.74.83,1.34,1.44,1.91.69-.58,1.04-.99,1.6-1.91h-3.04Z"/>
        <path d="M106.71,142.56c-.42.45-.79.78-1.37,1.21-.33-.45-.59-.69-.97-.96,1.14-.75,1.99-1.72,2.31-2.58l1.52.27q-.11.15-.26.41c-.07.14-.18.29-.31.46h4.23c.62,0,.95-.01,1.2-.06l.86.67c-.12.15-.15.19-.26.36-.54.78-.73,1.04-1.33,1.62-.44-.24-.81-.39-1.34-.55.46-.31.63-.46.96-.86h-2.22c.45,1.43,1.95,2.21,4.54,2.34-.3.51-.43.83-.58,1.41-.6-.1-.83-.15-1.32-.27-.02.42-.02.81-.02,1.23v2.67q.02,1.27.06,1.53c-.31-.03-.91-.04-1.53-.04h-.68c1.15.54,2.13.78,3.99.96-.36.42-.53.67-.9,1.32-2.13-.36-3.16-.72-4.7-1.65l.84-.63h-3.94l.88.63c-1.5.92-2.46,1.26-4.56,1.65-.33-.6-.45-.76-.88-1.27,1.9-.23,2.87-.48,3.84-1h-.58c-.68,0-1.19.02-1.53.04.03-.27.06-.86.06-1.44v-2.85c0-.66-.02-1.07-.06-1.47.29.02.83.03,1.47.03h.75c-.17-.36-.33-.6-.6-.93-.77.36-.98.45-2.09.9-.21.09-.36.15-.62.29l-.57-1.48c.96-.18,2.24-.65,3.53-1.29l.44,1.26-.51.26c1-.13,1.63-.29,2.17-.53.9-.4,1.34-.87,1.53-1.65h-1.46ZM103.65,143.03c-.82-.66-1.33-.97-2.28-1.41l.93-1.09c1.06.49,1.48.73,2.34,1.32l-.99,1.18ZM104.22,147.33h6.63v-.54h-6.63v.54ZM104.22,148.83h6.63v-.57h-6.63v.57ZM104.22,150.3h6.63v-.54h-6.63v.54ZM110.94,145.74h.5c-1.2-.43-1.89-.99-2.46-1.9-.38.62-.71.93-1.33,1.3-.45.27-.88.44-1.62.6h4.92Z"/>
        <path d="M119.43,149.58c.04.06.06.11.06.17q0,.09-.25.78c-.32.92-.51,1.67-.57,2.25-.02.2-.08.27-.27.32-.21.06-.61.09-1,.09-.15,0-.22-.03-.27-.12-.13-.29-.38-1.32-.5-2.16-.1-.71-.15-1.44-.15-2.21,0-1.72.2-3.36.74-6.3.09-.48.12-.71.16-1.17.69.09,1.17.22,1.61.43.22.12.31.23.31.36,0,.09-.03.16-.11.29-.61,1.05-1.18,4.29-1.18,6.69,0,.36.01.93.06,1.65.36-.93.52-1.35.85-2.07.11.4.21.6.51,1ZM121.95,145.64c-.72,0-.87-.03-.92-.19-.04-.13-.09-.62-.09-.96,0-.12,0-.24.02-.51.4.03.64.04,1.14.04.81,0,1.32-.01,2.1-.07-.02-1.91-.03-2.15-.18-2.85.74.01,1.29.07,1.77.19.22.06.31.14.31.29,0,.06-.02.1-.06.22-.15.34-.22.93-.25,1.98.55-.07,1.03-.18,1.93-.39.08-.03.11-.03.15-.03.09,0,.13.04.17.15.03.13.07.71.07,1.02,0,.38-.02.44-.17.5-.24.12-.9.22-2.17.39,0,1.03.09,2.75.2,3.72.95.4,1.59.75,2.25,1.21.42.3.51.41.51.51,0,.17-.27.68-.59,1.11-.18.25-.27.33-.38.33s-.1,0-.45-.33c-.33-.33-.68-.58-1.34-1.02v.12c0,1.32-1.09,2.19-2.76,2.19s-2.8-.9-2.8-2.25,1.14-2.36,2.66-2.36c.55,0,.84.02,1.24.08q-.06-1.17-.11-3.18c-.64.04-1.66.09-2.26.09ZM123.18,150.05c-.75,0-1.24.34-1.24.87,0,.48.46.78,1.19.78.79,0,1.21-.36,1.21-1.05,0-.21-.02-.38-.02-.38-.39-.15-.73-.23-1.14-.23Z"/>
        <path d="M130.25,149.84c.27-.24.34-.3.45-.3.2,0,1.1.66,1.76,1.29.75.69,1.59,1.69,1.59,1.9,0,.13-.03.17-.46.55-.57.53-.69.62-.79.62-.09,0-.18-.06-.26-.21-.53-.93-1.72-2.16-2.79-2.85-.12-.09-.18-.15-.18-.24,0-.1.03-.15.69-.76Z"/>
        <path d="M146.22,141.53c-.77.39-1.05.75-1.15,1.42.13-.03.27-.04.31-.04.6,0,1.05.48,1.05,1.09,0,.66-.46,1.12-1.11,1.12-.79,0-1.26-.58-1.26-1.59,0-.6.18-1.27.44-1.69.25-.39.58-.68,1.12-.98l.6.66ZM149.12,141.53c-.77.39-1.05.75-1.15,1.42.13-.03.27-.04.31-.04.6,0,1.05.48,1.05,1.09,0,.66-.47,1.12-1.11,1.12-.79,0-1.26-.58-1.26-1.54,0-1.29.46-2.11,1.56-2.71l.6.66Z"/>
        <path d="M160.72,142.23c.87,0,1.34-.03,1.74-.09v1.65c-.45-.06-.92-.08-1.72-.08h-3.15v2h3.95c.79,0,1.3-.03,1.74-.09v1.68c-.48-.06-1.02-.09-1.74-.09h-3.24c1.38,1.96,3,3.25,5.38,4.29-.44.59-.59.81-.96,1.55-1.3-.72-2.01-1.22-2.98-2.08-1-.88-1.47-1.43-2.19-2.56.03.87.04,1.06.04,1.33v2.37c0,.58.03,1.05.11,1.56h-1.83c.07-.45.11-.9.11-1.54v-2.31c0-.48,0-.65.04-1.35-.63.97-1.16,1.59-2.03,2.4-.92.86-1.74,1.47-2.85,2.12-.33-.62-.53-.88-.99-1.46,1.23-.58,2.27-1.28,3.31-2.25.68-.62,1.19-1.2,1.79-2.05h-2.93c-.69,0-1.17.03-1.71.09v-1.68c.55.07.96.09,1.71.09h3.65v-2h-2.84c-.78,0-1.24.01-1.74.08v-1.65c.48.06.92.09,1.72.09h2.85v-.87c0-.42-.02-.72-.08-1.04h1.77c-.06.31-.07.53-.07,1.04v.87h3.13Z"/>
        <path d="M166.62,147.87c-.69,0-1.15.03-1.69.09v-1.63c.48.07.87.09,1.68.09h1.24c-.33-.93-.6-1.53-1.11-2.38l1.35-.62c.49.83.66,1.17,1.2,2.49l-1.14.51h2.31v-3.12h-3.25c-.69,0-1.11.01-1.61.08v-1.61c.51.06.95.09,1.68.09h3.18v-.4c0-.45-.01-.72-.07-1.11h1.74c-.06.38-.08.63-.08,1.12v.39h3.42c.84,0,1.31-.03,1.71-.09v1.61c-.44-.06-.86-.08-1.61-.08h-3.53v3.12h.99c.65-1.02,1.05-1.88,1.4-2.89l1.51.49c-.38.88-.67,1.47-1.24,2.4h1.5c.87,0,1.28-.02,1.66-.09v1.63c-.48-.06-1-.09-1.74-.09h-3.16c1.24,1.68,2.82,2.85,5.17,3.81-.43.52-.64.87-.97,1.51-1.42-.73-2.29-1.3-3.25-2.17-.78-.71-1.28-1.28-1.91-2.22.03.73.04,1.04.04,1.37v2.04c0,.54.03.99.11,1.47h-1.8c.07-.48.1-.87.1-1.47v-2.02c0-.46.02-.76.04-1.35-.66,1.08-1.35,1.86-2.38,2.71-.79.66-1.54,1.16-2.44,1.63-.35-.65-.54-.94-.98-1.46,1.32-.58,2.43-1.32,3.53-2.33.46-.42.77-.76,1.32-1.53h-2.93Z"/>
        <path d="M185.7,149.01c-1.48.87-1.9,1.31-1.9,1.96,0,.27.11.45.33.58.33.2,1.06.3,2.01.3.81,0,1.94-.08,2.7-.18.32-.04.5-.09,1.1-.24h.07c.11,0,.18.07.23.18.09.31.15.76.15,1.3,0,.22-.07.31-.27.36-.36.08-2.03.17-3.12.17-1.83,0-2.8-.12-3.53-.42-.87-.36-1.3-1.04-1.3-1.98,0-.87.4-1.63,1.21-2.28.64-.51.79-.62,2.17-1.4-.12-.5-.34-.71-.81-.71-.62,0-1.26.24-1.96.71-.44.3-.95.72-1.26,1.03-.45.47-.5.5-.62.5-.15,0-.46-.35-.78-.87-.15-.25-.24-.45-.24-.55,0-.13.03-.16.39-.39,1.23-.83,2.25-1.88,2.87-2.95-1.06.07-1.62.09-2.21.09-.22,0-.27-.04-.34-.3-.05-.2-.12-.99-.14-1.39.51.07.81.09,1.53.09.58,0,1.23-.02,1.9-.04.31-.86.42-1.39.44-2.1,1.33.22,1.95.45,1.95.71,0,.06-.02.09-.06.18-.1.2-.22.43-.42.9q-.03.06-.04.1c.86-.12,1.61-.27,2.13-.39.33-.09.4-.11.48-.11.12,0,.18.04.21.13.06.27.15.96.15,1.17,0,.17-.06.24-.26.29-.48.13-2.13.39-3.51.53-.45.82-.76,1.3-1.23,1.81.67-.31,1.18-.43,1.78-.43.68,0,1.12.39,1.43,1.23,1.48-.81,2.28-1.24,2.37-1.3.69-.4.98-.63,1.31-1,.61.63,1.27,1.58,1.27,1.83,0,.09-.06.15-.25.2-.74.2-2.1.78-4.38,1.89.02.27.04.96.04,1.44v.72c0,.18-.03.27-.1.31-.08.08-.48.12-.93.12-.51,0-.6-.04-.6-.29v-.06c.03-.44.04-1.01.04-1.37v-.08Z"/>
        <path d="M200.84,145.68c.03,1.12.06,1.71.21,3.21,1.26.41,1.86.66,2.75,1.14,1.18.67,1.79,1.12,1.79,1.33,0,.18-.2.53-.54,1.02-.22.33-.39.48-.51.48-.07,0-.13-.03-.24-.13-1.06-1.02-1.92-1.57-3.18-2.08-.03.91-.2,1.39-.63,1.84-.53.53-1.44.81-2.62.81-1.96,0-3.17-.87-3.17-2.29,0-1.52,1.32-2.47,3.38-2.47.5,0,.93.03,1.3.07-.15-2.46-.2-3.64-.21-5.85-.02-.87-.04-1.39-.13-2.1.69.02,1.38.09,1.79.2.24.07.33.15.33.31,0,.08-.01.12-.06.24-.17.39-.22.96-.26,2.62q.12,0,.59-.03c.72-.04,1.74-.23,2.88-.54.04-.01.08-.01.12-.01.09,0,.12.03.18.18.15.36.31,1.09.31,1.35,0,.12-.06.16-.2.21-1.15.27-2.78.5-3.66.5h-.21ZM197.9,150c-1.02,0-1.63.34-1.63.92,0,.53.51.79,1.46.79,1.15,0,1.66-.41,1.66-1.35v-.12c-.49-.18-.92-.24-1.48-.24Z"/>
        <path d="M217.44,141.87c0,.13-.06.18-.32.33-.1.06-.24.18-.38.34-.93,1.08-2.26,2.54-3.45,3.74-.26.25-.36.45-.36.63,0,.17.12.34.4.6.88.81,2.32,2.28,3.39,3.5.75.84.94,1.11.94,1.26,0,.17-.25.42-.87.9-.29.22-.46.33-.55.33-.13,0-.2-.06-.35-.3-.64-1.02-2.22-2.92-3.42-4.14-.67-.67-.81-.83-1.02-1.12-.25-.36-.36-.66-.36-1,0-.3.09-.62.27-.92q.16-.27,1.08-1.25c.87-.9,1.8-2.04,2.38-2.88.39-.56.58-.92.78-1.43,1.17.64,1.82,1.14,1.82,1.41Z"/>
        <path d="M229.11,144.3c-3.29.21-4.56.35-5.51.6-.06.02-.12.03-.16.03-.11,0-.2-.08-.24-.2-.13-.38-.21-.87-.26-1.62h.36c.48,0,.93-.01,2.37-.1,1.11-.06,2.05-.11,3.4-.15-.01-1.35-.03-1.56-.16-2.24,1.15.03,1.74.08,1.95.17.09.04.13.12.13.27,0,.03-.01.09-.04.17-.13.33-.18.66-.21,1.59,2.19-.06,2.52-.06,4.02-.06.4,0,.46,0,.51.04.06.06.09.29.09.79,0,.69-.02.77-.21.77h-.06c-.64-.06-2.25-.12-3.3-.12q-.34,0-1.09.01l-.03,2.46c.23.5.3.92.3,1.64,0,1.87-.69,3.31-2.14,4.38-.6.45-1.37.84-1.63.84-.13,0-.21-.04-.33-.16-.42-.48-.74-.72-1.28-1.02.9-.25,1.37-.46,1.95-.83.44-.29.83-.6,1.11-.91.19-.24.34-.47.57-.95-.43.45-.79.62-1.35.62-1.26,0-2.08-.96-2.08-2.42,0-1.53.97-2.64,2.32-2.64.44,0,.71.06,1.01.19v-1.16ZM227.3,147.81c0,.63.36,1.07.9,1.07.57,0,.92-.41.92-1.09s-.33-1.11-.9-1.11c-.54,0-.92.46-.92,1.14Z"/>
        <path d="M22.34,171.92c2.12,0,3.62,1.44,3.62,3.48,0,1.39-.74,2.65-1.96,3.39-.86.51-1.91.77-3.09.77-1.91,0-3.02-.77-3.02-2.07,0-1.18.99-2.02,2.4-2.02,1.27,0,2.19.64,2.8,1.96.76-.56,1.08-1.14,1.08-1.95,0-1.29-.92-2.13-2.36-2.13s-3.04.74-4.35,2.04c-.24.24-.46.5-.73.84-.11.15-.18.21-.27.21-.27,0-1.33-1.05-1.33-1.32,0-.13.06-.21.39-.45.34-.27.84-.7,1.47-1.3,1.46-1.38,2.52-2.54,4.1-4.46-1.88.24-3.13.45-3.6.62-.08.02-.12.03-.17.03-.12,0-.2-.08-.29-.3-.18-.45-.27-.95-.31-1.61.4.06.69.08,1.02.08.72,0,1.94-.11,3.51-.29.55-.06.73-.11,1.15-.27.14-.06.21-.08.3-.08.21,0,.42.18.81.78.29.39.38.58.38.71,0,.19-.04.25-.38.46-.27.17-.44.3-.78.63-.75.72-.76.72-1.69,1.67-.66.67-.74.75-1.34,1.35.97-.54,1.74-.77,2.64-.77ZM20.9,177.11c-.23-.15-.48-.22-.77-.22-.46,0-.77.22-.77.58,0,.43.46.71,1.19.71.33,0,.62-.03.99-.14-.18-.49-.33-.72-.64-.93Z"/>
        <path d="M30.63,175.53c0-.59,0-.78.03-1.67-.39.45-.82.86-1.3,1.22-.24-.65-.4-1.02-.73-1.54,1.53-.98,3-2.55,3.55-3.79l1.35.9c-.15.17-.27.33-.48.63-.33.48-.45.64-.82,1.11v5.69c0,.78.03,1.35.09,1.81h-1.79c.06-.45.11-1.08.11-1.83v-2.52ZM33.3,167.49q-.18.19-.44.5c-.97,1.15-1.95,2.01-3.31,2.88-.3-.57-.53-.92-.9-1.37,1.12-.61,1.86-1.18,2.56-1.98.33-.36.51-.63.71-1.01l1.38.98ZM35.25,172.44c-.67,0-1.32.03-1.77.09v-1.62c.45.06,1.08.09,1.77.09h4.89c.81,0,1.39-.03,1.75-.09v1.62c-.48-.06-1.08-.09-1.71-.09h-.62v5.73c0,1.25-.42,1.54-2.14,1.54-.53,0-.99-.01-1.62-.05-.07-.63-.18-1.02-.4-1.6.75.1,1.5.16,1.95.16.57,0,.65-.04.65-.36v-5.43h-2.75ZM34.05,167.25c.39.06.93.09,1.68.09h3.88c.73,0,1.21-.03,1.65-.09v1.6c-.51-.06-1.05-.09-1.62-.09h-3.91c-.6,0-1.21.03-1.68.09v-1.6Z"/>
        <path d="M46.26,168.35c-.75.06-1.42.11-2.46.17-.12-.41-.22-.65-.51-1.16,2.79,0,5.28-.3,6.27-.76l.86,1.17c-.08.01-.11.01-.2.03q-.12.02-.35.06s-.12.01-.24.04c-.57.1-1.27.21-1.96.3v.81h1.5c.66,0,1.02-.01,1.32-.06v1.29c-.22-.03-.42-.04-1.04-.04h-1.79v.62h1.41c.64,0,.93-.02,1.21-.03-.03.26-.04.54-.04,1.26v1.95c.02.67.03,1.11.04,1.3-.33-.03-.62-.03-1.3-.03h-1.32v.65h1.26c.72,0,1.02-.02,1.35-.04v1.32c-.27-.04-.45-.06-1.01-.06h-1.61v.71c.72-.06,1.19-.12,2.58-.32v.61c.63-.94,1.1-2.08,1.35-3.31.23-1.05.32-1.88.39-3.78-.6,0-.82.01-1.2.06v-1.56c.3.04.52.06,1.02.06h.22v-1.05c0-1.2-.02-1.44-.09-1.83h1.66c-.06.32-.07.6-.09,1.19,0,.1,0,.75-.01,1.7h1.24c.62,0,.95-.02,1.35-.06-.06.53-.06.63-.1,2.7-.06,3.71-.26,5.75-.62,6.57-.26.63-.74.86-1.77.86-.22,0-.94-.03-1.17-.04-.04-.65-.1-.93-.33-1.56-.36.73-.59,1.12-1.17,1.89-.29-.43-.66-.81-1.11-1.14-2.08.3-2.98.4-5.65.62-.29.03-.51.04-.86.1l-.25-1.53c.33.03.43.03.76.03.63,0,.87-.01,2.43-.1v-.79h-1.47c-.46,0-.96.01-1.35.06v-1.33c.4.04.71.06,1.35.06h1.47v-.65h-1.24c-.64,0-.95.01-1.39.03.03-.36.04-.66.04-1.35v-1.88c0-.66-.02-.98-.04-1.3.36.03.79.04,1.41.04h1.23v-.62h-1.75c-.6,0-.92.01-1.34.06v-1.32c.39.06.75.07,1.35.07h1.74v-.66ZM45.02,171.89v.62h1.24v-.62h-1.24ZM45.02,173.55v.63h1.24v-.63h-1.24ZM47.67,172.5h1.25v-.62h-1.25v.62ZM47.67,174.18h1.25v-.63h-1.25v.63ZM53.46,171.03c-.15,3.45-.46,5.14-1.35,7.02.64.11.97.13,1.27.13.65,0,.75-.18.92-1.51.11-.75.13-1.37.2-2.97q.03-.51.04-1.7c0-.42.01-.53.01-.97h-1.09Z"/>
        <path d="M57.51,170.81c.77-.39,1.07-.75,1.16-1.43-.13.03-.26.04-.3.04-.6,0-1.06-.48-1.06-1.09,0-.66.46-1.12,1.11-1.12.79,0,1.26.57,1.26,1.54,0,1.29-.46,2.12-1.56,2.71l-.6-.66ZM60.41,170.81c.76-.39,1.06-.75,1.15-1.43-.13.03-.26.04-.3.04-.6,0-1.06-.48-1.06-1.09,0-.66.46-1.12,1.11-1.12.79,0,1.26.57,1.26,1.54,0,1.29-.47,2.12-1.56,2.71l-.6-.66Z"/>
        <path d="M73.71,170.76c-.39.09-.53.13-1.07.33-.19.08-.3.1-.39.1-.33,0-.63-.61-.9-1.9.96-.04,1.3-.09,2.97-.34,1.8-.27,4.08-.62,5.28-.76,1.35-.18,2.43-.36,3-.48.1-.03.15-.03.22-.03.2,0,.27.09.4.46.12.31.21.76.21.97,0,.18-.06.24-.27.24-.32,0-.6.03-.89.07-2.53.42-4.56,2.64-4.56,4.98,0,1.75,1.38,2.91,3.72,3.12.21.02.29.09.29.27,0,.38-.15,1.09-.29,1.42-.07.17-.19.24-.39.24s-.65-.09-1.11-.22c-2.55-.75-3.88-2.37-3.88-4.67,0-1.24.41-2.4,1.19-3.39.42-.54.78-.84,1.63-1.43-1.96.33-4.04.72-5.17,1.01ZM81.39,171.15c.21,0,1.48,1.43,1.48,1.65,0,.08-.09.17-.36.41-.29.24-.3.24-.42.28q-.08.03-.11.03c-.06,0-.08-.02-.35-.44-.24-.38-.49-.71-.97-1.2-.03-.03-.07-.1-.07-.12.03-.07.04-.12.06-.12.04-.06.3-.27.36-.32.15-.08.24-.14.25-.15.02-.03.04-.03.04-.03h.08ZM83.96,172.19c-.22.17-.36.26-.44.26-.06,0-.09-.03-.16-.15-.45-.67-.68-.96-1.16-1.42-.03-.05-.06-.09-.06-.12,0-.08.09-.17.3-.31.21-.15.39-.24.46-.24.11,0,.29.13.6.45.44.45.84,1.01.84,1.14,0,.09-.11.2-.39.4Z"/>
        <path d="M89.72,171.39c-1.06-.21-1.88-.52-2.43-.91-.27-.18-.33-.26-.33-.39,0-.17.12-.46.54-1.3.73.46,1.56.79,2.5.99.21-1.05.3-1.92.31-2.9.77.14,1.44.36,1.82.57.16.09.22.18.21.3,0,.06-.03.12-.11.27-.22.46-.24.51-.55,1.98.15.02.35.02.46.02h.11c.36-.02.63-.02.77-.02h.04c.13,0,.18.06.18.25,0,.66-.04,1.2-.11,1.31-.04.07-.24.1-.87.1-.29,0-.51-.01-.93-.03q-.32,1.54-.45,2.36c.51.04.62.04.87.04l.84-.02c.15,0,.22.03.27.11.06.09.11.57.11,1.11,0,.27-.02.35-.11.39-.08.03-.4.04-.97.04-.27,0-.68-.02-1.2-.04-.01.27-.01.45-.01.57,0,1.38.64,2.01,2.05,2.01,1.57,0,2.52-.77,2.52-2.05,0-.47-.11-.89-.35-1.35-.3-.57-.58-.9-1.3-1.47h.13c.24,0,.75-.08,1.2-.17.24-.05.33-.06.4-.06.22,0,.38.1.68.48.69.84,1.04,1.72,1.04,2.66,0,2.11-1.71,3.51-4.31,3.51-2.43,0-3.64-1.21-3.64-3.68,0-.21,0-.38.03-.63-1.49-.32-2.29-1.05-2.29-2.12,0-.55.16-.96.58-1.38.04-.06.11-.07.17-.07.09,0,.19.07.54.36.27.23.31.27.31.35q0,.06-.09.2c-.06.1-.12.27-.12.36,0,.2.12.36.35.46.21.11.27.12.75.22l.39-2.43Z"/>
        <path d="M104.22,170.31c-.69.04-1.34.06-1.91.06-.63,0-.67,0-.71-.09-.04-.09-.09-.72-.09-1.16v-.28c.71.03,1.01.04,1.38.04s.95-.02,1.39-.03c.07-.87.09-1.17.09-1.47,0-.14,0-.23-.02-.44.72.02,1.28.06,1.71.17.12.03.18.09.18.19,0,.08-.02.14-.09.32-.12.29-.21.67-.27,1.14.96-.07,2.12-.22,2.58-.33.45-.1.76-.16.84-.16.31-.03.54-.09.63-.17.02-.01.03-.01.03-.01.03,0,.04.01.07.01.06,0,.11.06.13.17.03.22.08.75.08,1.08,0,.22-.04.29-.2.31-.88.18-2.71.4-4.29.54-.01.06-.01.09-.01.24-.03.29-.03.32-.04,1.07.66-.15,1.24-.23,1.98-.23.11-.48.12-.6.15-.95,1.16.24,1.72.45,1.72.63,0,.06-.01.11-.13.3-.04.06-.07.1-.11.21,1.94.45,3.17,1.88,3.17,3.72,0,1.63-.88,2.94-2.58,3.84-.63.33-1.52.63-1.85.63-.16,0-.29-.06-.38-.18-.31-.45-.51-.66-.99-1.06,1.56-.29,2.32-.6,3.07-1.21.69-.58,1.02-1.26,1.02-2.1,0-1.2-.71-2.1-1.9-2.45-.9,2.07-1.5,3.04-2.58,4.15.07.26.13.41.27.72.06.12.07.16.07.21,0,.15-.06.2-.4.38-.38.2-.81.35-.96.35-.13,0-.17-.04-.33-.51-.87.62-1.8.95-2.71.95-1.02,0-1.71-.83-1.71-2.03,0-1.88,1.37-3.71,3.63-4.83.01-.78.03-1.44.04-1.74ZM102.11,176.61c0,.38.22.6.6.6.51,0,1.19-.29,1.86-.78-.21-1.02-.3-1.71-.38-2.83-1.32.97-2.08,2.1-2.08,3.02ZM107.36,172.47c-.68.06-1.04.12-1.65.33.03,1.06.06,1.52.18,2.28.63-.8,1.05-1.54,1.47-2.61Z"/>
        <path d="M122.61,171.92c2.12,0,3.62,1.44,3.62,3.48,0,1.39-.73,2.65-1.96,3.39-.86.51-1.9.77-3.09.77-1.9,0-3.02-.77-3.02-2.07,0-1.18.99-2.02,2.4-2.02,1.28,0,2.19.64,2.8,1.96.77-.56,1.08-1.14,1.08-1.95,0-1.29-.91-2.13-2.36-2.13s-3.04.74-4.35,2.04c-.24.24-.46.5-.73.84-.11.15-.18.21-.27.21-.27,0-1.34-1.05-1.34-1.32,0-.13.06-.21.39-.45.35-.27.84-.7,1.47-1.3,1.46-1.38,2.52-2.54,4.09-4.46-1.88.24-3.13.45-3.6.62-.07.02-.12.03-.16.03-.12,0-.2-.08-.29-.3-.18-.45-.27-.95-.32-1.61.41.06.69.08,1.02.08.72,0,1.93-.11,3.51-.29.55-.06.73-.11,1.15-.27.13-.06.21-.08.3-.08.21,0,.42.18.81.78.29.39.38.58.38.71,0,.19-.04.25-.38.46-.27.17-.43.3-.78.63-.75.72-.77.72-1.7,1.67-.66.67-.73.75-1.33,1.35.97-.54,1.74-.77,2.64-.77ZM121.17,177.11c-.22-.15-.48-.22-.77-.22-.46,0-.76.22-.76.58,0,.43.46.71,1.18.71.33,0,.62-.03.99-.14-.18-.49-.33-.72-.64-.93Z"/>
        <path d="M134.76,176.27c-.72,1.25-1.71,1.94-2.73,1.94-1.56,0-2.67-1.53-2.67-3.66,0-2.37,1.2-4.41,3.26-5.49,1-.54,2.08-.78,3.51-.78,3.13,0,5.46,2.22,5.46,5.19,0,2.62-1.29,4.51-3.78,5.58-.49.21-.88.33-1.08.33-.18,0-.25-.06-.45-.35-.26-.39-.54-.67-.95-.95,3.09-.79,4.48-2.25,4.48-4.68,0-1.24-.53-2.29-1.46-2.96-.53-.36-.95-.51-1.77-.64-.42,3.17-.91,4.89-1.83,6.46ZM132.6,170.96c-1,.88-1.57,2.15-1.57,3.55,0,1.16.38,1.83,1,1.83.75,0,1.52-1.04,2.09-2.82.36-1.12.54-1.98.77-3.65-1.07.23-1.59.48-2.28,1.08Z"/>
        <path d="M150.49,171.93c.03,1.12.06,1.71.21,3.21,1.26.41,1.86.66,2.74,1.14,1.19.67,1.79,1.12,1.79,1.33,0,.18-.2.53-.54,1.02-.23.33-.39.48-.51.48-.08,0-.14-.03-.24-.13-1.07-1.02-1.92-1.57-3.18-2.08-.03.91-.2,1.39-.63,1.84-.53.53-1.44.81-2.62.81-1.96,0-3.16-.87-3.16-2.29,0-1.52,1.32-2.47,3.38-2.47.49,0,.93.03,1.3.07-.15-2.46-.2-3.64-.21-5.85-.01-.87-.04-1.39-.13-2.1.69.02,1.38.09,1.79.2.24.07.33.15.33.31,0,.08-.02.12-.06.24-.16.39-.22.96-.25,2.62q.12,0,.58-.03c.72-.04,1.74-.23,2.88-.54.04-.01.07-.01.12-.01.09,0,.12.03.18.18.15.36.32,1.09.32,1.35,0,.12-.06.16-.2.21-1.16.27-2.78.5-3.66.5h-.21ZM147.55,176.25c-1.02,0-1.63.34-1.63.92,0,.53.51.79,1.46.79,1.15,0,1.66-.41,1.66-1.35v-.12c-.49-.18-.91-.24-1.48-.24Z"/>
        <path d="M165.62,178.38c0,.66-.53,1.18-1.19,1.18s-1.19-.52-1.19-1.18.53-1.19,1.19-1.19,1.19.53,1.19,1.19ZM165.09,176.16h-1.33l-.41-8.98h2.16l-.42,8.98Z"/>
      </g>
      <path class="cls-7" d="M329.77,1.42H90.4c-4.68,0-8.47,3.79-8.47,8.47v61.18s-9.69,9.69-9.69,9.69h9.69v.5c0,4.68,3.79,8.47,8.47,8.47h239.38c4.68,0,8.47-3.79,8.47-8.47V9.89c0-4.68-3.79-8.47-8.47-8.47Z"/>
      <g>
        <path d="M96.82,18.37c-.27.02-.44.03-.62.05-.13.01-.15.01-.16.01-.12,0-.18-.04-.23-.2-.07-.24-.18-1.04-.19-1.48.16.01.6.03,1.14.03.17,0,1.35-.07,1.88-.12.26-1.21.35-1.84.35-2.65,1.54.21,2.1.39,2.1.67,0,.11-.02.13-.24.48-.12.18-.16.34-.42,1.27.71-.12,1.12-.22,1.68-.41.11-.03.15-.04.22-.04.11,0,.13.08.23.51.07.38.12.69.12.85,0,.18-.04.21-.44.3-.51.12-1.38.27-2.31.39-.56,1.68-.93,2.58-1.62,3.99-.53,1.05-.82,1.61-1.23,2.24-.12.18-.19.24-.3.24-.15,0-.57-.22-1.1-.61-.24-.17-.3-.24-.3-.35s.06-.19.25-.46c.44-.54,1.01-1.47,1.5-2.46.42-.82.57-1.17,1.01-2.35-.59.04-.63.06-1.32.1ZM101.76,27.01c-1.64,0-2.75-.9-2.75-2.23s1.15-2.42,2.7-2.42c.36,0,.53.01,1.14.11-.06-.72-.06-1.01-.12-2.4,0-.29-.03-.67-.06-1.16.77.08,1.35.17,1.63.29.12.04.18.12.18.24,0,.08-.01.13-.03.24-.08.31-.09.54-.09.94,0,.56.04,1.5.09,2.24,1.06.48,1.5.72,2.25,1.3.33.25.45.39.45.51,0,.15-.07.29-.49.96-.18.3-.31.44-.42.44q-.09,0-.51-.39c-.33-.33-.71-.58-1.23-.9,0,1.39-1.02,2.23-2.74,2.23ZM101.73,23.8c-.72,0-1.21.34-1.21.87,0,.5.45.81,1.12.81.79,0,1.21-.41,1.21-1.2,0-.12,0-.24-.02-.24-.3-.15-.7-.24-1.11-.24ZM107.34,19.54c-.18.26-.27.33-.38.33-.07,0-.13-.03-.24-.13-.38-.36-.9-.75-1.46-1.09q-.36-.22-1.02-.53c-.21-.09-.29-.15-.29-.27,0-.11.08-.24.3-.58.36-.53.45-.62.59-.62.28,0,1.39.57,2.19,1.11.64.43.84.61.84.78,0,.12-.24.57-.54,1Z"/>
        <path d="M117.66,19.2c2.12,0,3.62,1.44,3.62,3.48,0,1.39-.73,2.65-1.96,3.39-.86.51-1.9.76-3.09.76-1.9,0-3.02-.76-3.02-2.07,0-1.19.99-2.03,2.4-2.03,1.28,0,2.19.64,2.8,1.96.77-.55,1.08-1.14,1.08-1.95,0-1.29-.91-2.13-2.36-2.13s-3.04.74-4.35,2.04c-.24.24-.46.5-.73.84-.11.15-.18.21-.27.21-.27,0-1.34-1.05-1.34-1.32,0-.13.06-.21.39-.45.35-.27.84-.71,1.47-1.3,1.46-1.38,2.52-2.54,4.09-4.46-1.88.24-3.13.45-3.6.62-.07.01-.12.03-.16.03-.12,0-.2-.07-.29-.3-.18-.45-.27-.94-.32-1.6.41.06.69.08,1.02.08.72,0,1.93-.11,3.51-.29.55-.06.73-.11,1.15-.27.13-.06.21-.08.3-.08.21,0,.42.18.81.78.29.39.38.58.38.71,0,.2-.04.25-.38.46-.27.17-.43.3-.78.63-.75.72-.77.72-1.7,1.67-.66.67-.73.75-1.33,1.35.97-.54,1.74-.77,2.64-.77ZM116.22,24.39c-.22-.15-.48-.23-.77-.23-.46,0-.76.23-.76.58,0,.44.46.71,1.18.71.33,0,.62-.03.99-.13-.18-.5-.33-.72-.64-.93Z"/>
        <path d="M127.77,23.17s.06.12.06.18c0,.09-.01.17-.12.43-.39,1.11-.51,1.61-.59,2.42-.03.22-.07.29-.25.34-.3.09-.66.14-1.06.14-.18,0-.24-.05-.32-.26-.42-1.18-.69-2.98-.69-4.56s.2-3.15.75-5.68c.17-.79.18-.92.24-1.47.66.09,1.1.21,1.53.43.3.15.39.25.39.42,0,.12-.03.2-.17.39-.12.17-.19.36-.3.7-.54,1.71-.86,3.74-.86,5.38,0,.5.03,1.08.13,2.1.21-.58.44-1.21.69-1.88.15.41.24.57.55.9ZM130.72,20.53c-.96,0-1.19-.03-1.23-.13-.06-.13-.12-.71-.12-1.11,0-.1,0-.22.03-.43.55.06,1.08.08,1.86.08.44,0,.72,0,1.24-.03,0-1.16,0-1.28.02-1.75-.49.01-1.02.03-1.33.03-1.12,0-1.44-.03-1.49-.15-.06-.12-.1-.62-.1-1.02,0-.12,0-.24.03-.5.45.04.87.06,1.65.06,1.65,0,3.04-.13,4.27-.42.08-.03.11-.03.15-.03.11,0,.13.03.17.15.04.15.07.63.07.96s-.02.41-.13.48c-.15.09-.75.19-1.71.31q-.02.17-.03.51c0,.24-.02.3-.02,1.21.63-.1.83-.15,1.7-.34.08-.03.11-.03.15-.03.11,0,.13.03.17.15.03.15.07.67.07,1s-.02.41-.13.48c-.18.09-.99.24-1.92.34.02.69.04,1.14.18,2.42.79.34,1.33.66,2.04,1.17.56.42.72.58.72.73,0,.2-.27.69-.62,1.11-.2.22-.3.32-.42.32q-.11,0-.44-.38c-.31-.36-.78-.75-1.3-1.11,0,.6-.1.93-.38,1.27-.45.59-1.26.9-2.29.9-1.69,0-2.83-.9-2.83-2.25s1.14-2.26,2.83-2.26c.39,0,.69.01,1.07.08-.08-1.25-.09-1.56-.09-1.88q-1.48.06-1.83.06ZM131.49,23.68c-.76,0-1.18.27-1.18.75s.4.76,1.11.76c.81,0,1.23-.34,1.23-1.02v-.27c-.39-.17-.74-.22-1.16-.22Z"/>
        <path d="M142.96,18.94c-.19-.66-.25-1.06-.43-2.91-.06-.72-.12-1.08-.27-1.59.91.02,1.5.06,1.9.17.22.06.33.17.33.33,0,.06-.02.13-.04.25-.11.36-.15.63-.15,1.02,0,.73.15,1.93.31,2.46.09.28.18.39.35.39.36,0,1.68-.69,2.4-1.25.19-.15.22-.17.3-.17.13,0,.27.11.5.39.38.51.67,1.06.67,1.27,0,.17-.11.27-.36.34-.93.25-2.46.86-3.49,1.35-1.83.9-2.66,1.72-2.66,2.65s.77,1.29,2.7,1.29c1.12,0,2.14-.1,3.52-.33.06-.01.17-.03.2-.03.12,0,.2.06.26.18.04.15.15,1.06.15,1.42,0,.21-.06.29-.26.34-.33.08-2.14.18-3.29.18-1.92,0-3.2-.25-3.99-.79-.67-.47-1.04-1.2-1.04-2.1,0-.69.2-1.3.6-1.9.52-.78,1.09-1.28,2.35-2.03-.31-.29-.43-.5-.57-.96ZM148.41,15.58c.12-.09.2-.12.29-.12.21,0,1.52,1.38,1.52,1.6,0,.09-.12.23-.41.46-.3.25-.33.27-.4.27-.09,0-.11,0-.39-.42-.3-.42-.72-.9-1.04-1.17-.04-.04-.07-.09-.07-.14,0-.07.13-.21.51-.49ZM151.66,15.99c0,.09-.04.15-.22.3-.21.18-.5.38-.56.38-.09,0-.12-.04-.3-.28-.35-.5-.55-.74-1.1-1.23-.06-.06-.07-.09-.07-.13,0-.13.57-.57.75-.57.25,0,1.5,1.28,1.5,1.54Z"/>
        <path d="M152.59,20.56c.55-.67.83-.92,1.48-1.33.92-.57,1.59-.78,2.46-.78.69,0,1.29.13,1.94.45q.39.2,1.36.83c1.14.73,1.94,1.05,2.66,1.05.31,0,.75-.12,1.11-.29.64-.33,1.04-.66,1.56-1.37l1.2,1.2c-.62.78-.93,1.09-1.42,1.46-.77.57-1.62.86-2.6.86-.45,0-.92-.08-1.32-.21-.58-.19-.88-.34-2.05-1.11-1.32-.84-1.79-1.02-2.58-1.02-.97,0-1.66.36-2.61,1.38l-1.19-1.11Z"/>
        <path d="M175.12,25.66c0,.66-.52,1.18-1.18,1.18s-1.19-.52-1.19-1.18.53-1.18,1.19-1.18,1.18.52,1.18,1.18ZM174.6,23.44h-1.34l-.4-8.98h2.16l-.42,8.98Z"/>
        <path d="M182.4,15.84c0-.62-.01-1-.06-1.46.3.03.97.06,1.62.06h8.97c.66,0,1.25-.01,1.56-.06-.04.46-.06.87-.06,1.58v9.58c0,1.17-.46,1.46-2.34,1.46-.42,0-1.11-.03-1.6-.06-.09-.66-.17-.92-.42-1.53.72.08,1.54.13,1.98.13.64,0,.78-.06.78-.31v-9.34h-8.82v9.58c0,.86.02,1.25.09,1.68h-1.79c.06-.54.09-1.05.09-1.71v-9.6ZM184.68,16.9c.3.06.55.08,1.27.08h4.98c.73,0,.93-.01,1.28-.08v1.53c-.36-.04-.64-.06-1.26-.06h-5.01c-.6,0-.9.02-1.26.06v-1.53ZM191.38,23.49c0,.34.02.64.03.9-.45-.03-.6-.03-.95-.03h-3.48v1.08h-1.57c.04-.41.06-.74.06-1.28v-3.73c0-.36-.02-.66-.04-.93.39.02.6.03,1,.03h3.91c.59,0,.79,0,1.08-.03-.03.32-.04.51-.04.95v3.04ZM186.97,22.98h2.91v-2.07h-2.91v2.07Z"/>
        <path d="M201.01,14.59c.38.1.48.18.48.34,0,.11-.02.15-.09.36-.17.43-.29,1.2-.35,2.25-.12,2.42-.18,4.29-.18,5.77,0,.48.04.84.12,1.08.17.5.69.75,1.53.75,1.35,0,2.62-.55,3.79-1.65.54-.51.87-.92,1.42-1.74.09.48.21.79.54,1.47.04.12.07.21.07.34,0,.27-.29.63-1.04,1.3-1.48,1.33-3.13,2.03-4.86,2.03-1.14,0-1.98-.29-2.52-.83-.57-.6-.79-1.38-.79-2.86,0-1.17.01-2.07.13-5.57.02-.52.03-.84.03-.97,0-1.28-.01-1.65-.11-2.29.77.03,1.35.09,1.8.21ZM205.99,18.43c-.06,0-.12-.04-.17-.12-.33-.57-.66-.99-1.15-1.5-.08-.06-.09-.09-.09-.13,0-.09.12-.21.38-.39.22-.16.31-.21.39-.21.12,0,.32.15.69.57.49.54.81.95.81,1.07,0,.17-.66.72-.85.72ZM207.51,15.58c.45.48.83.96.83,1.09,0,.15-.63.67-.81.67-.06,0-.12-.04-.18-.15-.24-.42-.57-.82-1.16-1.42-.06-.06-.07-.09-.07-.12,0-.13.6-.55.78-.55.11,0,.29.15.62.48Z"/>
        <path d="M214.18,18.99c-1.19.12-1.48.13-2.16.13-.46,0-.54-.19-.64-1.53h.58c.74,0,1.4-.04,2.22-.13v-.32c0-.97-.06-1.74-.21-2.55,1.14.06,1.59.12,1.9.21.15.04.21.12.21.27,0,.09-.01.15-.09.3-.13.28-.21.82-.22,1.84.5-.09,1.29-.29,1.89-.46.04-.02.07-.02.1-.02.12,0,.2.06.23.17.07.3.16.9.16,1.12,0,.12-.07.23-.2.27-.18.07-1.27.3-2.23.46v1.93c1.48-.5,2.64-.73,3.63-.73,1.92,0,3.16,1.23,3.16,3.13,0,1.23-.49,2.22-1.38,2.74-.46.27-1.12.44-1.84.44s-1.37-.06-1.53-.17c-.16-.09-.18-.13-.21-.5-.03-.42-.12-.78-.3-1.21.62.22,1.12.31,1.71.31,1.17,0,1.83-.6,1.83-1.66s-.63-1.67-1.63-1.67c-.95,0-2.14.3-3.44.85q0,.06.02.65.01.99.01,1.2c.02.27.02.54.02.68,0,1.21-.46,1.8-1.46,1.8s-1.94-.51-2.54-1.29c-.24-.33-.36-.67-.36-1.08,0-.97.87-1.86,2.76-2.83v-2.37ZM214.18,23.01c-.87.53-1.23.87-1.23,1.19,0,.34.5.72.95.72.21,0,.29-.13.29-.48v-1.43ZM222.55,19.6c-.76-.81-1.81-1.49-2.8-1.8-.12-.04-.18-.11-.18-.18,0-.09.15-.33.57-.9.16-.22.18-.24.33-.24.15.02.72.21,1.11.39.95.43,2.18,1.36,2.18,1.65,0,.27-.75,1.21-.97,1.21-.08,0-.14-.03-.23-.13Z"/>
        <path d="M229.54,19.21c-.55,0-1,.01-1.41.06v-.69c-.76.48-1.39.8-2.34,1.2-.34-.76-.46-.96-.84-1.5,2.7-.94,4.85-2.49,5.89-4.21h1.77c.58.84,1.2,1.47,2.22,2.24,1.19.87,2.27,1.41,3.83,1.92-.36.55-.57.99-.78,1.6-1.17-.5-1.63-.73-2.54-1.29v.74c-.38-.04-.79-.06-1.41-.06h-1.45v1.39h3.64c.76,0,1.17-.01,1.56-.08v1.59c-.39-.06-.9-.09-1.57-.09h-3.63v3.22h3.91c.73,0,1.21-.03,1.7-.09v1.65c-.54-.06-1.12-.09-1.74-.09h-9.09c-.66,0-1.23.03-1.8.09v-1.65c.53.06,1.04.09,1.79.09h3.63v-3.22h-3.4c-.62,0-1.14.03-1.58.09v-1.59c.42.06.84.08,1.58.08h3.4v-1.39h-1.34ZM228.52,22.15c.5.87.75,1.39,1.15,2.4l-1.44.57c-.3-.9-.67-1.67-1.14-2.38l1.42-.58ZM229.51,17.86h4.81c-1.08-.76-1.84-1.47-2.58-2.42-.73.96-1.38,1.58-2.54,2.42h.3ZM236.38,22.75q-.18.33-.71,1.38c-.06.11-.1.2-.6,1.02l-1.35-.51c.44-.71.79-1.47,1.14-2.48l1.51.58Z"/>
        <path d="M246.09,22.54c-1.48.87-1.9,1.31-1.9,1.96,0,.27.11.45.33.58.33.2,1.06.3,2.01.3.81,0,1.94-.08,2.7-.18.32-.04.5-.09,1.1-.24h.07c.11,0,.18.07.23.18.09.31.15.76.15,1.3,0,.23-.07.32-.27.36-.36.08-2.03.17-3.12.17-1.83,0-2.8-.12-3.53-.42-.87-.36-1.3-1.04-1.3-1.98,0-.87.4-1.63,1.21-2.28.64-.51.79-.62,2.18-1.4-.12-.5-.35-.71-.81-.71-.62,0-1.26.24-1.96.71-.44.3-.95.72-1.26,1.04-.45.46-.5.5-.62.5-.15,0-.46-.34-.78-.87-.15-.25-.24-.45-.24-.55,0-.14.03-.17.39-.39,1.23-.82,2.25-1.88,2.87-2.95-1.06.07-1.62.09-2.21.09-.22,0-.27-.04-.34-.3-.05-.2-.12-.99-.14-1.4.51.08.81.09,1.53.09.58,0,1.23-.01,1.9-.04.31-.85.42-1.39.44-2.1,1.33.22,1.95.45,1.95.71,0,.06-.02.09-.06.18-.1.2-.22.43-.42.9q-.03.06-.04.1c.86-.12,1.61-.27,2.13-.39.33-.09.4-.11.48-.11.12,0,.18.04.21.14.06.27.15.96.15,1.17,0,.17-.06.24-.26.28-.48.14-2.13.39-3.51.53-.45.83-.76,1.3-1.23,1.81.67-.31,1.18-.43,1.78-.43.68,0,1.12.39,1.43,1.23,1.48-.81,2.28-1.24,2.37-1.3.69-.4.98-.63,1.31-1,.61.63,1.27,1.58,1.27,1.83,0,.09-.06.15-.25.2-.74.19-2.1.78-4.38,1.89.02.27.04.96.04,1.44v.72c0,.18-.03.27-.1.31-.08.08-.48.12-.93.12-.51,0-.6-.04-.6-.29v-.06c.03-.44.04-1,.04-1.37v-.08Z"/>
        <path d="M259.8,15.42c0-.69-.03-1.05-.09-1.44h1.81c-.07.42-.09.76-.09,1.44v3.13h3.06v-2.34c0-.46-.02-.77-.06-1.12h1.74c-.06.42-.08.72-.08,1.25v2.85c0,.38.02.66.04.92-.3-.03-.66-.04-1.02-.04h-3.69v4.74h3.54v-2.37c0-.51-.03-.9-.07-1.24h1.75c-.06.36-.07.81-.07,1.38v3.09c0,.67.02,1.05.07,1.46h-1.68v-.75h-8.55v.75h-1.7c.06-.44.09-.86.09-1.46v-3.03c0-.58-.03-.97-.07-1.38h1.74c-.04.36-.06.65-.06,1.23v2.32h3.38v-4.74h-3.45c-.39,0-.72.01-1.03.04.03-.38.04-.58.04-.92v-2.83c0-.53-.03-.9-.08-1.26h1.74c-.04.33-.06.66-.06,1.14v2.33h2.84v-3.13Z"/>
        <path d="M275.04,17.83c-3.29.21-4.56.34-5.51.6-.06.01-.12.03-.16.03-.11,0-.2-.08-.24-.2-.13-.38-.21-.87-.26-1.62h.36c.48,0,.93-.01,2.37-.1,1.11-.06,2.05-.11,3.4-.15-.01-1.35-.03-1.56-.16-2.24,1.15.03,1.74.08,1.95.17.09.04.13.12.13.27,0,.03-.01.09-.04.17-.13.33-.18.66-.21,1.59,2.19-.06,2.52-.06,4.02-.06.4,0,.46,0,.51.05.06.06.09.28.09.79,0,.69-.02.76-.21.76h-.06c-.64-.06-2.25-.12-3.3-.12q-.34,0-1.09.01l-.03,2.46c.23.5.3.92.3,1.64,0,1.87-.69,3.31-2.14,4.38-.6.45-1.37.84-1.63.84-.13,0-.21-.04-.33-.17-.42-.48-.74-.72-1.28-1.02.9-.25,1.37-.46,1.95-.83.44-.28.83-.6,1.11-.91.19-.24.34-.47.57-.95-.43.45-.79.62-1.35.62-1.26,0-2.08-.96-2.08-2.42,0-1.53.97-2.64,2.32-2.64.44,0,.71.06,1.01.19v-1.15ZM273.22,21.34c0,.63.36,1.06.9,1.06.57,0,.92-.41.92-1.09s-.33-1.11-.9-1.11c-.54,0-.92.46-.92,1.14Z"/>
        <path d="M285.01,22.81c0-.58,0-.78.03-1.67-.39.45-.83.85-1.3,1.21-.24-.64-.41-1.02-.74-1.54,1.53-.97,3-2.55,3.55-3.79l1.35.9c-.15.17-.27.33-.48.63-.33.48-.45.64-.83,1.11v5.69c0,.78.03,1.35.09,1.81h-1.79c.06-.45.1-1.08.1-1.83v-2.52ZM287.68,14.77q-.18.2-.43.5c-.97,1.16-1.95,2.01-3.32,2.88-.3-.57-.52-.92-.9-1.37,1.12-.61,1.86-1.18,2.56-1.98.33-.36.51-.63.71-1l1.38.97ZM289.64,19.72c-.68,0-1.32.03-1.77.09v-1.62c.45.06,1.08.09,1.77.09h4.89c.81,0,1.4-.03,1.76-.09v1.62c-.48-.06-1.08-.09-1.71-.09h-.61v5.73c0,1.25-.42,1.54-2.15,1.54-.52,0-.99-.01-1.62-.04-.07-.63-.18-1.02-.4-1.6.75.1,1.5.17,1.95.17.57,0,.64-.05.64-.36v-5.43h-2.74ZM288.43,14.53c.39.06.93.09,1.68.09h3.88c.73,0,1.21-.03,1.65-.09v1.61c-.51-.06-1.05-.09-1.62-.09h-3.91c-.6,0-1.22.03-1.68.09v-1.61Z"/>
        <path d="M307.18,16.18c.63,0,1.02-.01,1.44-.06-.08.36-.12.63-.2,1.06-.04.34-.2,1.09-.3,1.5.46,0,.77-.01,1.12-.04q-.07.33-.15.81c-.06.42-.21,1.1-.34,1.63h.46c.46,0,.78-.01,1.18-.06-.01.21-.01.25-.06.72-.13,2.19-.38,3.67-.69,4.41-.33.79-.87,1.05-2.17,1.05-.39,0-.71-.01-1.23-.06-.04-.6-.15-1-.39-1.5.68.09,1.02.12,1.46.12.63,0,.78-.04.92-.32.2-.38.4-1.67.49-3.03h-8.31c-1.16,1.1-1.29,1.22-2.18,1.83-.22-.52-.44-.84-.95-1.38,1.37-.84,2.27-1.59,3.13-2.64.68-.83,1.23-1.7,1.71-2.71h-2.42c-.61,0-1.11.03-1.59.09v-1.51c.42.06.86.09,1.5.09h.96c-.38-.62-.69-1.02-1.32-1.63l1.29-.69c.51.5.9.98,1.38,1.71l-1.08.62h1.83c.31-.88.51-1.72.55-2.29l1.71.24c-.11.24-.13.33-.3.87-.02.04-.13.45-.39,1.18h2.91ZM301.48,23.35c-.53,1.77-.81,2.47-1.52,3.71l-1.39-.89c.77-1.06,1.14-1.88,1.52-3.28l1.39.46ZM307.24,21.09c.07-.27.16-.7.22-1.11h-5.04c-.3.43-.42.58-.83,1.11h5.64ZM303.1,23.04c.26,1.12.36,1.91.46,3.36l-1.44.22c0-1.42-.06-2.14-.27-3.45l1.24-.13ZM303.75,17.52c-.24.51-.32.66-.57,1.17h3.43c.12-.43.15-.58.24-1.17h-3.1ZM305.17,22.83c.48,1.25.62,1.71.83,2.67l-1.34.44c-.13-1.01-.31-1.79-.67-2.82l1.18-.29ZM307.05,22.56c.5.72.72,1.11,1.06,1.92l-1.12.54c-.27-.79-.52-1.33-.97-2.01l1.04-.45Z"/>
        <path d="M314.58,18.04c-.39.09-.53.13-1.07.33-.19.08-.3.11-.39.11-.33,0-.63-.62-.9-1.91.96-.04,1.3-.09,2.97-.34,1.8-.27,4.08-.62,5.28-.76,1.35-.18,2.43-.36,3-.48.1-.03.15-.03.22-.03.2,0,.27.09.4.46.12.31.21.76.21.97,0,.18-.06.24-.27.24-.32,0-.6.03-.89.08-2.53.42-4.56,2.64-4.56,4.98,0,1.75,1.38,2.91,3.72,3.12.21.01.29.09.29.27,0,.38-.15,1.09-.29,1.42-.07.17-.19.24-.39.24s-.65-.09-1.11-.22c-2.55-.75-3.88-2.37-3.88-4.67,0-1.25.41-2.4,1.19-3.39.42-.54.78-.84,1.63-1.43-1.96.33-4.04.72-5.17,1.01ZM322.26,18.43c.21,0,1.48,1.42,1.48,1.65,0,.08-.09.17-.36.41-.29.24-.3.24-.42.29q-.08.03-.11.03c-.06,0-.08-.02-.35-.44-.24-.38-.49-.71-.97-1.2-.03-.03-.07-.1-.07-.12.03-.08.04-.12.06-.12.04-.06.3-.27.36-.32.15-.08.24-.13.25-.15.02-.03.04-.03.04-.03h.08ZM324.82,19.47c-.22.17-.36.25-.44.25-.06,0-.09-.03-.16-.15-.45-.67-.68-.96-1.16-1.42-.03-.04-.06-.09-.06-.12,0-.08.09-.17.3-.31.21-.15.39-.24.46-.24.11,0,.29.13.6.45.44.45.84,1,.84,1.14,0,.09-.11.2-.39.41Z"/>
        <path d="M99.22,44.92c-1.07-.21-1.88-.53-2.43-.92-.27-.18-.33-.25-.33-.39,0-.17.12-.46.54-1.3.73.46,1.56.79,2.51.99.21-1.05.3-1.92.31-2.9.77.14,1.44.36,1.81.57.17.09.22.18.21.3,0,.06-.03.12-.11.27-.22.46-.24.51-.55,1.98.15.02.34.02.46.02h.11c.36-.02.63-.02.76-.02h.04c.13,0,.18.06.18.25,0,.66-.04,1.2-.1,1.31-.04.07-.24.1-.87.1-.29,0-.51-.01-.93-.03q-.31,1.54-.45,2.36c.51.04.62.04.87.04h.84c.15-.01.22.01.27.09.06.09.11.57.11,1.11,0,.27-.02.34-.11.39-.07.03-.4.04-.97.04-.27,0-.67-.01-1.2-.04-.02.27-.02.45-.02.57,0,1.38.64,2.01,2.05,2.01,1.58,0,2.52-.77,2.52-2.05,0-.47-.1-.89-.34-1.35-.3-.57-.59-.9-1.3-1.47h.13c.24,0,.75-.08,1.2-.17.24-.04.33-.06.41-.06.22,0,.38.1.67.48.69.84,1.04,1.72,1.04,2.66,0,2.11-1.71,3.51-4.3,3.51-2.43,0-3.64-1.21-3.64-3.67,0-.21,0-.38.03-.63-1.48-.32-2.29-1.05-2.29-2.12,0-.55.17-.96.59-1.38.04-.06.1-.08.16-.08.09,0,.2.08.54.36.27.22.31.27.31.34q0,.06-.09.2c-.06.1-.12.27-.12.36,0,.2.12.36.35.46.21.11.27.12.75.23l.39-2.43Z"/>
        <path d="M109.89,49.62c.27-.24.35-.3.45-.3.19,0,1.09.66,1.75,1.29.75.69,1.59,1.69,1.59,1.9,0,.14-.03.17-.46.56-.57.52-.69.62-.79.62-.09,0-.18-.06-.25-.21-.53-.93-1.73-2.16-2.79-2.85-.12-.09-.18-.15-.18-.24,0-.1.03-.15.69-.76Z"/>
        <path d="M125.95,45.46c-.78,0-1.38.03-1.86.09v-1.58c.38.06.96.09,1.85.09h3.16v-1.17h-1.96c-.82,0-1.17.01-1.63.06v-1.56c.4.06.87.09,1.62.09h1.98v-.15c0-.54-.02-.81-.09-1.2h1.72c-.07.33-.09.63-.09,1.2v.15h1.11c.75,0,1.22-.03,1.64-.09v1.09c.79-.81,1.29-1.45,1.6-2.05l1.41.96c-.09.09-.11.11-.2.23-.82.93-1.71,1.81-2.49,2.44h1.54c.84,0,1.36-.03,1.74-.09v1.58c-.45-.06-1.04-.09-1.75-.09h-3.33c-.73.52-1.3.88-2.14,1.35l-.02.08c2.51-.24,2.96-.29,4.02-.5.63-.12,1.08-.25,1.38-.39l1.02,1.33q-.13.03-.33.06c-.18.03-.57.1-1.12.21-1.15.22-3.77.51-5.37.6-.02.04-.09.24-.21.57h4.76c.9,0,1.12-.01,1.5-.06q0,.06-.03.19c-.01.08-.06.44-.09.67-.16,1.61-.31,2.34-.62,2.92-.34.66-.91.87-2.37.87-.42,0-1.29-.04-1.96-.1-.04-.65-.12-.98-.38-1.56,1.21.15,1.83.21,2.4.21.54,0,.75-.07.91-.31.17-.25.26-.65.36-1.46h-5.01c-.15.33-.22.5-.48.97l-1.62-.27c.55-1,.81-1.59,1.37-3.06-.96.46-1.24.58-3.24,1.38-.27-.57-.48-.92-.87-1.35,1.92-.55,4.09-1.46,5.71-2.37h-3.54ZM131.58,44.07c.54-.42.97-.78,1.37-1.14-.36-.03-.51-.03-1.04-.03h-1.26v1.17h.93Z"/>
        <path d="M144.34,48.01c.35-.11.6-.15.86-.15,1.04,0,1.51.62,1.71,2.16.11.88.15,1.05.36,1.23.18.18.46.24.99.24.71,0,1.05-.06,2.28-.39.04-.02.07-.02.1-.02.09,0,.14.03.2.14.11.24.23,1.03.23,1.47,0,.13-.03.19-.17.22-.4.11-1.83.23-2.7.23-1.3,0-2-.24-2.4-.86-.26-.41-.38-.85-.46-1.79-.11-1.15-.29-1.44-.88-1.44-.54,0-.96.27-1.85,1.15s-1.59,1.76-2.08,2.54c-.09.15-.2.24-.29.24-.11,0-.21-.09-.68-.58-.45-.5-.62-.69-.62-.78,0-.1.03-.13.3-.38q.36-.3,5.94-6.24c-2.41.43-3.95.75-4.3.88-.16.06-.22.08-.3.08-.13,0-.16-.04-.25-.34-.15-.5-.22-.89-.29-1.49.31.01.42.01.53.01.66,0,2.5-.18,4.17-.42,1.26-.17,1.46-.21,1.79-.38.09-.04.18-.08.24-.08.38,0,1.23.98,1.23,1.41,0,.18-.06.25-.25.36-.23.09-.54.3-.81.52-.15.12-.6.54-.81.74l-1.77,1.7ZM142.56,40.51c.06-.18.11-.25.18-.24.08.02.12.02.15.03.62.21,1.19.34,1.83.46.93.18,1.06.2,2.67.27.18.01.2.06.2.42,0,.45-.06,1-.13,1.12-.04.09-.11.13-.18.13s-1.7-.18-1.94-.21c-1.08-.17-2.03-.39-2.87-.69-.13-.06-.18-.1-.18-.21,0-.13.11-.58.27-1.09Z"/>
        <path d="M155.52,44.29c-.39.09-.53.13-1.07.33-.19.08-.3.11-.39.11-.33,0-.63-.62-.9-1.91.96-.04,1.3-.09,2.97-.34,1.8-.27,4.08-.62,5.28-.76,1.35-.18,2.43-.36,3-.48.1-.03.15-.03.22-.03.2,0,.27.09.4.46.12.31.21.76.21.97,0,.18-.06.24-.27.24-.32,0-.6.03-.89.08-2.53.42-4.56,2.64-4.56,4.98,0,1.75,1.38,2.91,3.72,3.12.21.01.29.09.29.27,0,.38-.15,1.09-.29,1.42-.07.17-.19.24-.39.24s-.65-.09-1.11-.22c-2.55-.75-3.88-2.37-3.88-4.67,0-1.25.41-2.4,1.19-3.39.42-.54.78-.84,1.63-1.43-1.96.33-4.04.72-5.17,1.01Z"/>
        <path d="M168.63,47.56c0-.44.02-.93.04-1.61-.31.56-.54.92-1.02,1.52-.18-.69-.35-1.12-.64-1.71,1.32-1.46,2.43-3.83,2.68-5.73l1.65.39c-.53,1.65-.68,2.05-1.19,3.19v8.19c0,.63.02,1.08.08,1.66h-1.7c.07-.55.09-.96.09-1.68v-4.23ZM176.11,48.28c-.16.9-.38,1.5-.81,2.21,1.54.83,3,1.17,5.42,1.26-.27.51-.48,1.07-.63,1.61-2.41-.26-4.08-.78-5.67-1.79-.81.78-1.74,1.32-3.19,1.84-.27-.53-.57-.97-.89-1.35,1.32-.38,2.16-.77,2.91-1.4-.36-.33-.57-.57-.9-.99-.2-.26-.3-.39-.45-.53l1.26-.67c.18.36.46.72.95,1.15.27-.46.4-.82.51-1.35h-2.1c-.48,0-.82.01-1.17.06.03-.42.04-.71.04-1.2v-2.01c0-.6-.02-.87-.04-1.21.4.03.66.04,1.32.04h2.23c0-.08,0-.42-.02-1.04h-2.37c-.58,0-.95.01-1.38.06v-1.54c.42.06.99.09,1.55.09h2.2c-.01-.75-.03-.99-.09-1.45h1.65q-.04.42-.04,1.45h2.51c.66,0,1.11-.03,1.63-.09v1.54c-.44-.04-.86-.06-1.44-.06h-2.7v1.04h2.13c.61,0,.94-.02,1.35-.04-.03.36-.04.73-.04,1.26v1.86c0,.67.01.95.04,1.31-.42-.05-.74-.06-1.41-.06h-2.36ZM172.89,45.34v1.57h1.9c.04-.58.06-.72.09-1.57h-1.99ZM176.37,45.34c-.02.52-.04,1.05-.09,1.57h2.04v-1.57h-1.95Z"/>
        <path d="M186.57,44.28c.97-.25,1.62-.34,2.33-.34,2.13,0,3.36,1.26,3.36,3.42,0,1.88-.81,3.39-2.45,4.59-.87.64-2.19,1.29-2.62,1.29-.2,0-.24-.04-.55-.5-.22-.34-.45-.55-.82-.83,1.72-.58,2.44-.96,3.22-1.63.9-.79,1.35-1.75,1.35-2.89,0-1.22-.57-1.91-1.58-1.91-.81,0-1.86.31-3.22.97-.2.09-.3.17-.55.35-.06.03-.12.06-.18.06-.29,0-.77-.84-1.1-1.96.56-.04.84-.12,2.82-.62ZM187.57,40.62c.54.17,1.35.32,2.08.41.3.03.41.04,1.17.08.22,0,.29.06.29.22,0,.5-.11,1.31-.2,1.46-.03.09-.1.12-.21.12-.35,0-1.56-.17-2.27-.31-1.19-.24-2.22-.54-2.43-.71-.04-.04-.07-.11-.07-.17,0-.12.31-.93.46-1.21.07-.12.12-.15.21-.15q.08,0,.96.27Z"/>
        <path d="M202.11,49.8c-.72,1.25-1.71,1.94-2.73,1.94-1.56,0-2.67-1.53-2.67-3.66,0-2.37,1.2-4.41,3.25-5.49,1.01-.54,2.09-.78,3.51-.78,3.14,0,5.46,2.22,5.46,5.19,0,2.62-1.29,4.51-3.78,5.58-.5.21-.89.33-1.08.33-.18,0-.26-.06-.45-.34-.25-.39-.54-.68-.95-.95,3.09-.79,4.49-2.25,4.49-4.68,0-1.25-.53-2.29-1.46-2.96-.53-.36-.95-.51-1.77-.64-.42,3.16-.92,4.89-1.83,6.46ZM199.95,44.49c-1.01.88-1.58,2.15-1.58,3.55,0,1.16.38,1.83,1.01,1.83.75,0,1.52-1.04,2.08-2.82.36-1.12.54-1.98.77-3.65-1.06.23-1.59.48-2.28,1.08Z"/>
        <path d="M212.16,46.08c-.12.03-.18.06-.27.11-.07.04-.12.06-.18.06-.33,0-.57-.57-.75-1.68h.29c.63,0,2.23-.2,3.2-.39.31-1.31.48-2.31.48-3.02,0-.06,0-.15-.01-.25.64.06,1.26.2,1.68.38.24.09.36.21.36.36,0,.08-.02.13-.09.25q-.22.39-.69,2.04c.36-.04.76-.08,1.02-.08.62,0,1.1.12,1.44.36.6.43.9,1.32.9,2.68,0,2.24-.4,4.16-1.1,5.1-.48.66-1.11.98-1.99.98-.54,0-1.05-.08-1.2-.17q-.12-.08-.17-.63c-.04-.41-.13-.77-.31-1.19.78.27.97.32,1.46.32.72,0,1.02-.35,1.35-1.56.22-.79.35-1.81.35-2.92,0-1.17-.29-1.59-1.08-1.59-.27,0-.71.04-1.05.09-.04.18-.06.2-.12.39-.42,1.54-1.19,3.55-1.95,5.17-.79,1.63-.99,1.96-1.18,1.96-.12,0-.53-.21-.96-.5-.35-.21-.44-.3-.44-.42q0-.08.62-1.05c.83-1.28,1.91-3.77,2.28-5.25-1.11.25-1.73.39-1.86.43ZM221.58,43c-.24.18-.4.25-.48.25-.04,0-.09-.03-.13-.11-.31-.51-.84-1.09-1.28-1.47-.03-.03-.04-.06-.04-.09,0-.06.11-.17.36-.36.25-.18.33-.22.43-.22.24,0,1.56,1.33,1.56,1.58,0,.09-.12.19-.42.42ZM219.99,44.59c0-.11.13-.24.57-.58.3-.23.45-.32.57-.32.2,0,.87.72,1.5,1.61.52.75,1.09,1.81,1.09,2.07,0,.15-.04.2-.52.58-.3.24-.65.44-.77.44-.11,0-.15-.04-.26-.3-.29-.72-.54-1.21-.95-1.86-.4-.65-.43-.67-1.15-1.46-.06-.08-.09-.12-.09-.18ZM221.95,39.99c.26,0,1.53,1.28,1.53,1.53,0,.08-.09.17-.39.38-.27.21-.41.29-.46.29q-.08,0-.38-.42c-.26-.34-.74-.86-1.01-1.08-.04-.04-.07-.08-.07-.12,0-.12.62-.57.78-.57Z"/>
        <path d="M227.01,41.62c0-.69-.01-1.01-.09-1.47h1.73c-.08.45-.09.79-.09,1.46v1.19h.79c.32,0,.5-.02.72-.04v1.48c-.25-.03-.48-.04-.75-.04h-.77v2.19c.44-.15.65-.22,1.26-.46v1.41q-.84.33-1.26.48v4.18c0,.63-.22,1.05-.64,1.18-.3.11-.86.17-1.39.17-.26,0-.45-.01-.87-.04-.06-.63-.12-.92-.35-1.5.54.08.93.11,1.28.11s.43-.08.43-.44v-3.13q-1.32.42-1.59.54l-.31-1.6c.62-.08.71-.09,1.9-.42v-2.66h-.73c-.36,0-.62.01-1.02.06v-1.53c.33.06.6.08,1.04.08h.72v-1.17ZM237.48,47.08q-.11.14-.38.58c-.75,1.25-1.3,1.98-2.1,2.75,1.11.71,2.07,1.08,3.55,1.37-.39.48-.68.99-.9,1.56-1.77-.54-2.82-1.04-3.93-1.86-1.17.85-2.38,1.41-4.05,1.89-.31-.64-.51-.97-.88-1.44,1.5-.31,2.45-.7,3.77-1.53-.84-.9-1.23-1.5-1.8-2.8-.27.01-.45.03-.69.06v-1.51c.31.06.66.08,1.15.08h4.54c.39,0,.66-.02.87-.06l.84.93ZM238.42,43.05c-.17,2.16-.33,2.34-2.22,2.34-.69,0-1.04-.03-1.26-.11-.44-.15-.57-.4-.57-1.08v-2.19h-1.74c-.06,2.12-.62,3.24-2.05,4.18-.34-.45-.63-.71-1.15-1.08,1.3-.72,1.72-1.67,1.72-3.91,0-.23-.02-.41-.04-.72.27.03.62.04.95.04h2.97c.32,0,.63-.01.9-.04-.03.18-.04.51-.04.92v2.21c0,.22.02.29.12.32.06.03.24.04.39.04.21,0,.42-.03.48-.08.13-.11.18-.39.18-1.17v-.17c0-.11,0-.27-.02-.48.83.45.96.51,1.41.66v.32ZM232.35,47.59c.38.73.83,1.33,1.44,1.9.69-.58,1.04-.99,1.6-1.9h-3.04Z"/>
        <path d="M245.41,42.34c-.42.45-.79.78-1.37,1.21-.33-.45-.59-.69-.97-.96,1.14-.75,1.99-1.72,2.31-2.58l1.52.27q-.11.15-.26.4c-.07.14-.18.29-.31.46h4.23c.62,0,.95-.01,1.2-.06l.86.67c-.12.15-.15.2-.26.36-.54.78-.73,1.04-1.33,1.62-.44-.24-.81-.39-1.34-.56.46-.31.63-.46.96-.85h-2.22c.45,1.42,1.95,2.21,4.54,2.34-.3.51-.43.83-.58,1.41-.6-.11-.83-.15-1.32-.27-.02.42-.02.81-.02,1.23v2.67q.02,1.27.06,1.53c-.31-.03-.91-.04-1.53-.04h-.68c1.15.54,2.13.78,3.99.96-.36.42-.53.67-.9,1.32-2.13-.36-3.16-.72-4.7-1.65l.84-.63h-3.94l.88.63c-1.5.92-2.46,1.26-4.56,1.65-.33-.6-.45-.76-.88-1.28,1.9-.22,2.87-.48,3.84-1h-.58c-.68,0-1.19.02-1.53.04.03-.27.06-.85.06-1.44v-2.85c0-.66-.02-1.07-.06-1.47.29.02.83.03,1.47.03h.75c-.17-.36-.33-.6-.6-.93-.77.36-.98.45-2.09.9-.21.09-.36.15-.62.29l-.57-1.48c.96-.18,2.24-.65,3.53-1.29l.44,1.26-.51.25c1-.13,1.63-.29,2.17-.53.9-.4,1.34-.87,1.53-1.65h-1.46ZM242.35,42.81c-.82-.66-1.33-.97-2.28-1.41l.93-1.09c1.06.5,1.48.74,2.34,1.32l-.99,1.18ZM242.92,47.11h6.63v-.54h-6.63v.54ZM242.92,48.61h6.63v-.57h-6.63v.57ZM242.92,50.08h6.63v-.54h-6.63v.54ZM249.64,45.52h.5c-1.2-.43-1.89-.99-2.46-1.91-.38.62-.71.93-1.33,1.31-.45.27-.88.43-1.62.6h4.92Z"/>
        <path d="M254.49,49.62c.27-.24.35-.3.45-.3.19,0,1.09.66,1.75,1.29.75.69,1.59,1.69,1.59,1.9,0,.14-.03.17-.46.56-.57.52-.69.62-.79.62-.09,0-.18-.06-.25-.21-.53-.93-1.73-2.16-2.79-2.85-.12-.09-.18-.15-.18-.24,0-.1.03-.15.69-.76Z"/>
        <path d="M268.57,45.66c.38.06.62.08,1.15.08h1.06c.41,0,.75-.01,1.1-.06-.04.42-.06.78-.06,1.56v3.22c.38.63.72.9,1.47,1.12.53.15,1.39.21,3.34.21,2.34,0,4.02-.08,5.42-.22-.26.63-.35.94-.44,1.53-1.92.08-3.13.11-4.86.11-.86,0-2.03-.03-2.64-.08-1.41-.1-2.26-.52-3.07-1.54-.69.65-1.04.93-1.67,1.38-.1.08-.24.18-.42.32l-.71-1.63c.53-.21,1.2-.66,2.06-1.4v-3.1h-.77c-.39,0-.6.01-.97.08v-1.56ZM269.8,40.32c1.11,1.11,1.4,1.46,2.16,2.54l-1.14,1.25c-.77-1.23-1.3-1.91-2.19-2.71l1.17-1.07ZM274.15,43.77c-.45,0-.77.01-1.07.06v-.52h-.97c.04-.3.06-.53.06-.88v-.9c0-.36-.02-.66-.04-.93.42.03.76.04,1.38.04h6.71c.59,0,.96-.02,1.38-.06-.04.29-.06.53-.06.92v.87c0,.39.02.65.06.95h-1.02v.52c-.3-.04-.55-.06-1.05-.06h-2.04v.62h2.19c.62,0,.82-.02,1.17-.04-.03.34-.04.6-.04,1.06v2.16c0,.48.01.71.04,1.05-.42-.03-.74-.04-1.17-.04h-2.19v.66h2.91c.59,0,.83-.02,1.14-.06v1.35c-.33-.04-.62-.06-1.19-.06h-2.87c.02.48.03.71.09,1.05h-1.61c.06-.4.07-.55.09-1.05h-2.67c-.51,0-.82.02-1.15.06v-1.35c.34.03.73.06,1.14.06h2.69v-.66h-2.05c-.53,0-.77.01-1.16.04.04-.34.04-.46.04-1.05v-2.16q0-.72-.04-1.06c.36.03.62.04,1.16.04h2.05v-.62h-1.9ZM276.06,41.86h-2.43v.71c.16.02.27.02.45.02h1.98v-.72ZM274.3,45.39v.63h1.76v-.63h-1.76ZM274.3,46.96v.58h1.76v-.58h-1.76ZM279.66,42.58h.39v-.72h-2.57v.72h2.18ZM277.48,46.02h1.88v-.63h-1.88v.63ZM277.48,47.55h1.88v-.58h-1.88v.58Z"/>
        <path d="M287.14,49.08c.04.08.06.13.06.21,0,.11-.02.12-.15.45-.3.69-.66,1.77-.84,2.58-.04.17-.09.25-.15.29-.07.03-.58.1-.75.1h-.06c-.07,0-.18-.01-.3-.01-.2,0-.24-.04-.3-.23-.29-.97-.51-2.98-.51-4.5,0-1.65.11-2.67.53-4.92.15-.81.22-1.26.29-1.75.63.12,1.17.27,1.62.48.26.11.33.18.33.33,0,.11-.02.15-.18.39-.5.79-1.05,3.98-1.05,6.12,0,.34.02.81.06,1.56.42-.94.57-1.23.92-1.96.13.32.22.46.49.87ZM290.4,50.14c.48.25,1.05.34,2.06.34s1.53-.08,2.46-.34c.09-.03.17-.04.21-.04.1,0,.18.06.19.21.08.51.13,1.11.13,1.41,0,.15-.04.2-.25.26-.81.21-1.63.31-2.64.31-1.38,0-2.23-.17-2.94-.58-.66-.41-1.35-1.23-1.35-1.63,0-.21.31-.5,1.12-.99.27.54.53.81,1,1.07ZM289.35,42.49c.33.08,1.29.14,2.03.14.99,0,1.98-.08,2.91-.24q.08-.01.14-.01c.1,0,.15.04.18.16.03.15.07.81.07,1.22,0,.22-.04.3-.21.33-.62.12-1.63.19-2.71.19-1.29,0-2.45-.08-2.6-.17-.07-.04-.11-.15-.11-.42,0-.41.04-1,.08-1.12.01-.06.06-.09.15-.09.02,0,.05,0,.08.01Z"/>
        <path d="M303.31,45.76q-.03-.74-.04-1.67c-.13.01-.27.01-.33.01-.99,0-2.27-.1-2.79-.24-.15-.04-.18-.07-.18-.22,0-.33.04-.74.15-1.32.84.17,1.88.27,2.78.27.07,0,.21,0,.38-.01v-.99c0-.53-.02-.76-.04-1.29.75.04,1.26.09,1.62.18.3.06.39.13.39.3,0,.08-.02.11-.12.35-.1.25-.12.31-.18,1.35.9-.1,1.62-.25,2.33-.46.04-.01.06-.01.07-.01.11,0,.11.01.27.49.11.32.21.71.21.83,0,.11-.04.17-.2.21-.49.17-1.79.39-2.73.5,0,1.07,0,1.11.02,1.63,1.05-.13,1.62-.29,2.8-.72.07-.03.11-.04.15-.04.09,0,.12.04.27.41.15.38.29.79.29.94,0,.08-.06.13-.16.18-.83.3-2.33.66-3.27.76.03.57.06.88.15,2.05.84.25,1.19.39,1.83.74.72.36,1.11.61,1.76,1.12.12.09.16.17.16.29,0,.1-.13.36-.42.81-.33.5-.49.69-.6.69-.04,0-.09-.01-.13-.06-.9-.85-1.49-1.28-2.49-1.77-.06.72-.22,1.12-.63,1.5-.51.49-1.36.76-2.43.76-1.84,0-2.98-.81-2.98-2.12,0-.57.24-1.12.64-1.5.59-.54,1.47-.82,2.6-.82.36,0,.67.03,1.05.07-.07-.97-.1-1.32-.12-1.63-.35.01-.54.01-.72.01-1.04,0-2.29-.16-3-.37-.15-.05-.21-.12-.21-.24,0-.23.09-.71.22-1.32.93.23,2.12.36,3.22.36h.44ZM302.28,50.34c-.96,0-1.48.29-1.48.79,0,.45.43.69,1.28.69.97,0,1.42-.34,1.42-1.09v-.25c-.39-.11-.69-.14-1.21-.14Z"/>
        <path d="M313.59,45.75c-.12.03-.18.06-.27.11-.08.04-.12.06-.2.06-.32,0-.55-.58-.74-1.69.12.01.23.01.29.01.63,0,2.24-.2,3.2-.39.31-1.32.48-2.31.48-3.03,0-.06,0-.13-.02-.25.64.08,1.26.21,1.68.38.24.09.36.22.36.38,0,.08-.02.12-.09.24q-.23.4-.69,2.05c.36-.04.77-.08,1.02-.08.62,0,1.1.12,1.44.36.6.43.9,1.32.9,2.68,0,2.24-.41,4.14-1.1,5.08-.48.66-1.11.97-1.99.97-.54,0-1.05-.07-1.2-.17q-.12-.07-.16-.63c-.04-.4-.13-.75-.32-1.17.78.25.98.3,1.46.3.72,0,1.02-.34,1.35-1.54.23-.79.35-1.83.35-2.92,0-1.17-.29-1.59-1.08-1.59-.27,0-.71.03-1.05.09-.04.17-.06.18-.12.39-.42,1.53-1.19,3.55-1.95,5.17-.79,1.63-.99,1.96-1.19,1.96-.12,0-.53-.21-.96-.5-.35-.21-.44-.3-.44-.42q0-.08.62-1.05c.82-1.28,1.9-3.78,2.28-5.25-1.11.24-1.72.39-1.86.43ZM321.24,44.07c0-.1.14-.24.57-.58.3-.22.45-.31.55-.31.09,0,.17.04.36.24.88.86,1.71,2,2.19,2.99.15.33.24.54.24.63,0,.15-.04.2-.53.58-.3.24-.64.43-.77.43-.1,0-.15-.04-.25-.3-.3-.73-.59-1.3-.95-1.86-.39-.6-.46-.69-1.35-1.64-.06-.09-.08-.13-.08-.18Z"/>
        <path d="M99.73,72.46v.91c0,2.21.01,2.66.13,2.97.2.54.71.73,1.92.73,1.3,0,2.89-.15,3.58-.33.15-.04.17-.04.21-.04.09,0,.16.04.2.15.09.21.16.79.16,1.21,0,.33-.04.42-.25.48-.3.08-2.29.18-3.39.18-2.67,0-3.78-.66-4.05-2.38-.07-.47-.09-.83-.09-3.63-.09.01-.1.03-.21.04-1.08.18-1.54.3-1.98.5-.12.06-.21.09-.27.09-.22,0-.48-.69-.66-1.82h.13c.33,0,.55-.03,2.97-.33-.04-2.35-.06-2.49-.21-3.21.75.03,1.39.11,1.76.21.25.09.34.17.34.35,0,.09-.01.15-.09.31-.12.29-.18.92-.2,2.13,1.95-.24,2.04-.25,3.62-.39v-.88c0-1.35-.04-2-.16-2.45.72.03,1.37.12,1.75.24.18.06.24.13.24.29,0,.1-.01.15-.07.33-.12.31-.12.39-.15,2.16v.18c2.19-.17,2.56-.2,2.82-.2.09,0,.15.03.18.08.03.08.07.72.07,1.23,0,.21-.01.25-.09.3t-1.33.03c-.59,0-1.04.02-1.71.06-.06,1.27-.15,2.08-.31,2.56-.27.81-.79,1.11-1.95,1.11-.41,0-.86-.08-1.01-.17-.13-.09-.15-.15-.24-.65s-.13-.64-.31-1.02c.57.2.93.25,1.33.25.36,0,.51-.06.63-.24.15-.21.18-.45.26-1.77-1.43.1-2.52.24-3.57.41Z"/>
        <path d="M117.66,71.7c2.12,0,3.62,1.44,3.62,3.48,0,1.39-.73,2.65-1.96,3.39-.86.51-1.9.76-3.09.76-1.9,0-3.02-.76-3.02-2.07,0-1.19.99-2.03,2.4-2.03,1.28,0,2.19.64,2.8,1.96.77-.55,1.08-1.14,1.08-1.95,0-1.29-.91-2.13-2.36-2.13s-3.04.74-4.35,2.04c-.24.24-.46.5-.73.84-.11.15-.18.21-.27.21-.27,0-1.34-1.05-1.34-1.32,0-.13.06-.21.39-.45.35-.27.84-.71,1.47-1.3,1.46-1.38,2.52-2.54,4.09-4.46-1.88.24-3.13.45-3.6.62-.07.01-.12.03-.16.03-.12,0-.2-.07-.29-.3-.18-.45-.27-.94-.32-1.6.41.06.69.08,1.02.08.72,0,1.93-.11,3.51-.29.55-.06.73-.11,1.15-.27.13-.06.21-.08.3-.08.21,0,.42.18.81.78.29.39.38.58.38.71,0,.2-.04.25-.38.46-.27.17-.43.3-.78.63-.75.72-.77.72-1.7,1.67-.66.67-.73.75-1.33,1.35.97-.54,1.74-.77,2.64-.77ZM116.22,76.89c-.22-.15-.48-.23-.77-.23-.46,0-.76.23-.76.58,0,.44.46.71,1.18.71.33,0,.62-.03.99-.13-.18-.5-.33-.72-.64-.93Z"/>
        <path d="M129.81,76.05c-.72,1.25-1.71,1.94-2.73,1.94-1.56,0-2.67-1.53-2.67-3.66,0-2.37,1.2-4.41,3.26-5.49,1-.54,2.08-.78,3.51-.78,3.13,0,5.46,2.22,5.46,5.19,0,2.62-1.29,4.51-3.78,5.58-.49.21-.88.33-1.08.33-.18,0-.25-.06-.45-.34-.26-.39-.54-.68-.95-.95,3.09-.79,4.48-2.25,4.48-4.68,0-1.25-.53-2.29-1.46-2.96-.53-.36-.95-.51-1.77-.64-.42,3.16-.91,4.89-1.83,6.46ZM127.65,70.74c-1,.88-1.57,2.15-1.57,3.55,0,1.16.38,1.83,1,1.83.75,0,1.52-1.04,2.09-2.82.36-1.12.54-1.98.77-3.65-1.07.23-1.59.48-2.28,1.08Z"/>
        <path d="M139.86,72.33c-.12.03-.18.06-.27.11-.08.04-.12.06-.18.06-.33,0-.57-.57-.75-1.68h.29c.63,0,2.24-.2,3.2-.39.31-1.31.48-2.31.48-3.02,0-.06,0-.15-.02-.25.64.06,1.26.2,1.68.38.24.09.36.21.36.36,0,.08-.02.13-.09.25q-.23.39-.69,2.04c.36-.04.77-.08,1.02-.08.62,0,1.1.12,1.44.36.6.43.9,1.32.9,2.68,0,2.24-.41,4.16-1.1,5.1-.48.66-1.11.98-2,.98-.54,0-1.05-.08-1.2-.17q-.12-.08-.16-.63c-.04-.41-.13-.77-.32-1.19.78.27.98.32,1.46.32.72,0,1.02-.35,1.35-1.56.23-.79.35-1.81.35-2.92,0-1.17-.29-1.59-1.08-1.59-.27,0-.71.04-1.05.09-.04.18-.06.2-.12.39-.42,1.54-1.19,3.55-1.95,5.17-.79,1.63-.99,1.96-1.19,1.96-.12,0-.53-.21-.96-.5-.35-.21-.44-.3-.44-.42q0-.08.62-1.05c.82-1.28,1.9-3.77,2.28-5.25-1.11.25-1.72.39-1.86.43ZM149.28,69.25c-.24.18-.41.25-.48.25-.04,0-.09-.03-.13-.11-.32-.51-.84-1.09-1.28-1.47-.03-.03-.04-.06-.04-.09,0-.06.11-.17.36-.36.26-.18.33-.22.44-.22.24,0,1.56,1.33,1.56,1.58,0,.09-.12.19-.42.42ZM147.69,70.84c0-.11.13-.24.57-.58.3-.23.45-.32.57-.32.2,0,.87.72,1.5,1.61.53.75,1.1,1.81,1.1,2.07,0,.15-.04.2-.53.58-.3.24-.64.44-.77.44-.1,0-.15-.04-.25-.3-.29-.72-.54-1.21-.95-1.86-.4-.65-.44-.67-1.15-1.46-.06-.08-.09-.12-.09-.18ZM149.65,66.24c.25,0,1.53,1.28,1.53,1.53,0,.08-.09.17-.39.38-.27.21-.4.29-.46.29q-.07,0-.38-.42c-.25-.34-.73-.86-1-1.08-.04-.04-.08-.08-.08-.12,0-.12.62-.57.78-.57Z"/>
        <path d="M157.12,67.15c.68-.13,1.32-.19,1.91-.19.3,0,.4.07.4.28,0,.06,0,.11-.04.26-.02.09-.03.19-.03.3,0,.27.03.52.22,1.62,1.21-.2,2.64-.51,3.29-.71.1-.04.13-.04.22-.04.11,0,.15.09.21.38.06.28.18,1.05.18,1.17,0,.18-.06.21-.65.27-.38.03-.58.06-1.33.2q-.27.04-1.63.29.25,1.32.39,2.02.33-.06.66-.12c1.5-.27,2.52-.5,3.21-.71.24-.07.39-.12.44-.12.12,0,.16.06.21.21.12.39.27,1.11.27,1.35,0,.13-.03.15-.48.22q-.24.04-.74.13-.81.14-3.25.56.39,1.89.93,4.06c.03.12.04.21.04.24,0,.15-.06.2-.31.29-.42.15-1.2.31-1.41.31-.15,0-.18-.04-.22-.33-.11-.72-.35-2.05-.74-4.26-3.06.57-3.3.63-4.15.93-.2.06-.26.07-.33.07-.12,0-.2-.06-.27-.22-.18-.38-.33-.85-.51-1.59.78-.03,1.6-.15,4.98-.74-.18-.88-.3-1.53-.4-2.04q-2.73.48-3.49.71c-.12.04-.15.04-.18.04q-.24,0-.67-1.75.82-.01,4.05-.54c-.24-1.14-.48-1.99-.75-2.55ZM164.14,69.21c-.31-.58-.64-1.02-1.11-1.5-.09-.09-.09-.11-.09-.15,0-.09.09-.18.35-.38.24-.18.33-.22.42-.22.12,0,.27.12.64.52.48.54.82,1,.82,1.12,0,.18-.67.72-.87.72-.06,0-.11-.03-.17-.12ZM166.23,68.07c-.09.06-.22.15-.27.17t-.08.03s-.03.01-.04.01c-.04,0-.1-.04-.13-.12-.21-.39-.76-1.11-1.15-1.48t-.08-.11.24-.25c.23-.15.46-.3.5-.3q.18.03.36.18c.4.36,1.12,1.26,1.12,1.44,0,.08-.16.22-.46.43Z"/>
        <path d="M176.92,71.01c.15-.09.21-.11.31-.11.36,0,1.34.99,1.34,1.35,0,.1-.04.16-.15.25-.21.18-.29.25-.48.58-.39.64-.95,1.36-1.53,1.98-.24.25-.38.34-.5.34-.09,0-.18-.04-.29-.12-.4-.31-.61-.42-1.26-.64.84-.55,1.41-1.09,2.07-2.01q-1.95.46-3.12.76c.63,2.49.85,3.3,1.41,5.16.03.13.04.19.04.25,0,.13-.15.22-.55.33-.26.08-.77.17-.9.17-.18,0-.21-.06-.29-.5-.13-.79-.68-2.97-1.23-5.02-1.11.31-1.29.36-1.86.63-.17.07-.26.1-.33.1-.29,0-.62-.67-.87-1.72.75-.03,1.11-.09,2.67-.44-.31-1.17-.46-1.59-.82-2.25.81-.13,1.41-.19,1.8-.19.25,0,.36.08.36.24,0,.04,0,.07-.02.17-.03.09-.03.15-.03.22,0,.3.06.6.27,1.48,2.88-.64,3.59-.82,3.95-1.03Z"/>
        <path d="M194.13,70.93c.07.15.1.25.1.34,0,.15-.06.25-.25.53-.82,1.08-1.71,1.95-3.04,2.98-1.5,1.17-2.78,1.95-4.57,2.8-1.16.54-1.21.57-1.4.74-.12.12-.18.15-.27.15-.13,0-.25-.12-.48-.45-.3-.45-.58-1.07-.75-1.59,1.52-.34,3.33-1.16,5.09-2.26,2.31-1.46,3.76-2.9,4.89-4.86.17.55.3.86.69,1.62ZM184.14,68.41c.26-.29.36-.36.49-.36.29.01,1.41.73,2.34,1.48.57.47.75.66.75.81,0,.1-.27.51-.63.92-.33.38-.49.51-.62.51q-.11,0-.72-.58c-.39-.38-1.17-1-1.56-1.25q-.53-.34-.63-.41c-.06-.04-.09-.09-.09-.13,0-.13.29-.55.66-.99Z"/>
        <path d="M202.21,69.97c-2.68.01-4.57.1-5.05.24-.01.01-.03.01-.04.01-.29,0-.38-.5-.42-2.04.74.11,1.7.15,3.92.15,2.01,0,4.36-.04,4.74-.09.27-.03.36-.05.63-.15.07-.03.11-.03.16-.03.26,0,.57.24,1.05.81.29.36.35.45.35.61,0,.11-.04.2-.15.33-.15.18-.17.23-.5,1.28-.84,2.64-2.5,5.01-4.75,6.75-.9.69-1.76,1.21-1.98,1.21-.16,0-.2-.02-.54-.36-.41-.41-.72-.64-1.12-.85,2.21-1.11,3.4-2.03,4.56-3.5,1.04-1.3,1.68-2.71,2.03-4.39q-1.17.01-2.87.01ZM208.69,68.46c-.33.28-.53.42-.62.42s-.09,0-.36-.45c-.24-.41-.6-.87-.95-1.21-.06-.06-.07-.09-.07-.13,0-.12.57-.54.73-.54.12,0,.3.15.75.66.4.47.69.87.69.98s-.04.17-.18.29ZM209.37,67.69c-.36-.61-.71-1.05-1.11-1.44-.06-.06-.07-.09-.07-.12,0-.08.07-.15.33-.33.2-.15.29-.18.39-.18.16.01.55.39,1.06,1.05.21.27.34.5.34.57s-.04.15-.22.29c-.24.18-.46.32-.55.32-.06,0-.11-.03-.16-.15Z"/>
        <path d="M215.38,68.23c.12.04.18.13.18.25,0,.06,0,.09-.03.21-.09.33-.11.57-.11,1.17-.03,3.66-.69,6-2.26,8-.35.42-.48.55-.63.55-.06,0-.13-.03-.25-.09-.41-.25-.78-.39-1.46-.54,1.04-1.05,1.44-1.6,1.89-2.62.63-1.41.89-2.83.89-4.98,0-.99-.03-1.44-.15-2.19.84.02,1.53.11,1.93.24ZM216.99,69.69c0-.74-.04-1.32-.13-1.95,1.62.06,2.21.18,2.21.48,0,.09-.02.13-.07.3-.04.09-.09.33-.11.55q-.04.41-.08,7c1.91-1.08,3.15-2.12,4.41-3.71.03.78.09,1.35.22,1.8.04.13.04.18.04.25,0,.24-.15.43-.84,1.08-1.11,1.02-1.86,1.55-3.25,2.28-.33.17-.53.3-.71.46-.11.09-.24.15-.35.15-.18,0-.72-.36-1.11-.74-.3-.3-.44-.52-.44-.72,0-.08.02-.12.06-.25.11-.29.13-.55.13-1.38v-5.62Z"/>
        <path d="M226.96,70.87c-.27.02-.43.03-.61.05-.14.01-.15.01-.17.01-.12,0-.18-.04-.22-.2-.08-.24-.18-1.04-.2-1.48.17.01.6.03,1.14.03.16,0,1.35-.07,1.88-.12.25-1.21.34-1.84.34-2.65,1.54.21,2.1.39,2.1.67,0,.11-.01.13-.24.48-.12.18-.17.34-.42,1.27.7-.12,1.12-.22,1.68-.41.1-.03.15-.04.22-.04.11,0,.13.08.22.51.07.38.12.69.12.85,0,.18-.04.21-.43.3-.51.12-1.38.27-2.31.39-.55,1.68-.93,2.58-1.62,3.99-.53,1.05-.83,1.61-1.23,2.24-.12.18-.2.24-.3.24-.15,0-.57-.22-1.09-.61-.24-.17-.3-.24-.3-.35s.06-.19.26-.46c.43-.54,1-1.47,1.5-2.46.42-.82.57-1.17,1-2.35-.58.04-.63.06-1.32.1ZM231.9,79.51c-1.63,0-2.74-.9-2.74-2.23s1.15-2.42,2.7-2.42c.36,0,.53.01,1.14.11-.06-.72-.06-1.01-.12-2.4,0-.29-.03-.67-.06-1.16.77.08,1.35.17,1.64.29.12.04.18.12.18.24,0,.08-.02.13-.03.24-.07.31-.09.54-.09.94,0,.56.04,1.5.09,2.24,1.07.48,1.5.72,2.25,1.3.33.25.45.39.45.51,0,.15-.08.29-.5.96-.18.3-.31.44-.42.44q-.09,0-.51-.39c-.33-.33-.71-.58-1.23-.9,0,1.39-1.02,2.23-2.74,2.23ZM231.87,76.3c-.72,0-1.21.34-1.21.87,0,.5.45.81,1.12.81.79,0,1.21-.41,1.21-1.2,0-.12,0-.24-.02-.24-.3-.15-.71-.24-1.11-.24ZM237.48,72.04c-.18.26-.27.33-.38.33-.08,0-.13-.03-.24-.13-.38-.36-.9-.75-1.46-1.09q-.36-.22-1.02-.53c-.21-.09-.29-.15-.29-.27,0-.11.07-.24.3-.58.36-.53.45-.62.58-.62.29,0,1.39.57,2.19,1.11.65.43.84.61.84.78,0,.12-.24.57-.54,1Z"/>
        <path d="M246.72,67.41c.18.12.25.21.25.32s-.01.12-.24.38c-.08.09-.3.42-.54.83q-.75,1.25-1.15,1.96c-.42.71-.69,1.18-.84,1.41q-.04.07-.26.45c-.2.35-.31.53-.53.81.97-.86,1.5-1.08,2.49-1.08.66,0,1.25.29,1.62.78.31.42.4.81.54,2.28.07.88.15,1.28.26,1.5.1.21.31.33.58.33,1.04,0,2.27-1.25,2.87-2.88.15.63.27.93.58,1.49.11.18.14.3.14.45,0,.17-.08.38-.26.66-.78,1.26-2.05,2.01-3.42,2.01-.86,0-1.57-.3-1.95-.79-.3-.42-.44-.97-.56-2.44-.07-.96-.15-1.29-.36-1.53-.16-.18-.4-.27-.73-.27-.99,0-2.29,1.33-3.06,3.1-.22.51-.38.97-.54,1.54-.06.22-.13.32-.24.32-.31,0-1.04-.3-1.43-.58-.1-.09-.15-.15-.15-.24,0-.08.03-.15.22-.57.12-.27.16-.34.27-.62q1.11-2.59,4.19-8.82c.34-.69.51-1.12.61-1.58.78.29,1.14.47,1.62.79Z"/>
        <path d="M255.13,71.43h-.09c-.07.01-.13.01-.16.01-.13,0-.21-.06-.26-.25-.09-.38-.15-.83-.18-1.41.21.02.38.02.48.02.81,0,1.75-.06,2.55-.17.15-.99.23-1.74.23-2.37v-.34c1.74.24,2.07.33,2.05.6,0,.08-.03.12-.09.25-.18.34-.2.39-.44,1.58.58-.11,1.33-.3,1.63-.41.06-.03.07-.03.12-.03.13,0,.16.06.28.58.06.3.12.72.12.84,0,.1-.04.16-.18.19q-.27.09-2.33.45c-.69,3.06-1.41,5.29-2.56,8-.07.19-.15.27-.24.27-.2,0-.72-.21-1.23-.5-.26-.13-.33-.2-.33-.29,0-.06.04-.17.12-.31,1.14-2.16,1.96-4.46,2.54-6.92-.66.08-1.12.12-2.04.2ZM261.54,77.13c.43.29,1.06.42,1.95.42.97,0,1.81-.09,2.29-.24.12-.03.15-.04.21-.04.13,0,.19.04.24.18.11.31.18.93.18,1.39,0,.2-.06.27-.26.32-.49.1-1.33.17-2.22.17-1.88,0-2.92-.3-3.61-1.02-.26-.27-.46-.6-.59-.97-.09-.22-.15-.48-.15-.57,0-.25.45-.52,1.23-.78.17.63.35.92.72,1.15ZM265.75,72.76c-.3-.04-.93-.08-1.46-.08-1.11,0-1.58.04-2.89.27-.03.02-.08.02-.11.02-.09,0-.13-.03-.17-.12-.04-.11-.1-.84-.1-1.16,0-.19.03-.29.15-.33.06-.03.15-.04.46-.1,1.02-.18,1.88-.25,2.93-.25.87,0,1.32.03,1.43.1.07.06.09.18.09.67,0,.44-.03.83-.06.92-.02.04-.08.08-.15.08-.03,0-.07,0-.12-.01ZM264.1,67.48c.2,0,1.47,1.42,1.47,1.65,0,.06-.1.19-.22.29-.06.04-.15.12-.25.21-.13.12-.18.15-.33.21t-.08.03c-.06,0-.06-.01-.34-.45-.26-.39-.74-.99-.99-1.22-.03-.03-.07-.09-.07-.1.03-.06.04-.09.04-.09.07-.09.33-.3.39-.34.15-.08.24-.14.26-.15.01-.03.03-.03.04-.03h.09ZM266.64,68.53c-.21.15-.36.24-.44.24-.06,0-.09-.03-.16-.15-.33-.54-.65-.93-1.14-1.43-.04-.04-.06-.07-.06-.12,0-.14.57-.56.77-.56.11,0,.29.15.62.5.48.5.82.95.82,1.09,0,.09-.11.2-.4.42Z"/>
        <path d="M271.35,71.02c-1.06.18-1.3.22-1.56.3-.15.04-.27.06-.36.06-.27,0-.4-.48-.46-1.65.87,0,1.35-.04,2.42-.24,0-.48.01-1.03.01-1.23,0-.58-.03-1.09-.09-1.47,1.58.07,2.04.18,2.04.46q0,.08-.13.39t-.2,1.62c.48.38.73.67.72.87,0,.04-.03.08-.09.13-.22.2-.25.22-.52.62q-.06.08-.15.19l-.06.09c0,.22,0,.25-.02.54.45-.51.87-.93,1.28-1.26,1.32-1.08,2.31-1.53,3.39-1.53s1.77.43,2.29,1.33c.45.78.69,1.88.69,3.17,0,.78-.06,1.38-.22,2.5.72.51,1.5,1.3,1.5,1.51,0,.24-.84,1.08-1.1,1.08-.1,0-.12-.02-.31-.32-.12-.17-.29-.36-.62-.72-.21.39-.33.55-.54.75-.55.51-1.3.78-2.19.78-1.56,0-2.56-.79-2.56-2,0-1.28,1.04-2.24,2.4-2.24.78,0,1.35.11,1.86.33.06-.55.08-.83.08-1.3,0-2.37-.45-3.3-1.59-3.3-.81,0-1.89.57-3.03,1.59-.4.38-.72.69-1.37,1.39v.87c0,2,.04,4,.11,4.53v.06c0,.27-.21.34-.93.34-.66,0-.79-.06-.79-.34v-.12c.03-.43.04-.96.04-1.62q0-.99.02-2.17s-.03.04-.06.08c-.33.41-.87,1.14-1.21,1.63-.17.24-.26.32-.36.32-.15,0-.42-.27-.88-.87-.18-.22-.29-.42-.29-.5s.07-.17.45-.5c.27-.25,1.29-1.5,1.81-2.19.27-.38.46-.65.59-.84v-1.16ZM277.09,76.17c-.69,0-1.11.29-1.11.75s.32.69.89.69c.49,0,.9-.15,1.17-.45.13-.13.34-.51.34-.57h0c-.51-.33-.81-.42-1.29-.42Z"/>
        <path d="M290.8,78.16c0,.66-.53,1.18-1.19,1.18s-1.19-.52-1.19-1.18.53-1.18,1.19-1.18,1.19.52,1.19,1.18ZM290.28,75.94h-1.33l-.41-8.98h2.16l-.42,8.98Z"/>
      </g>
      <circle class="cls-9" cx="31.42" cy="77.86" r="30"/>
      <g>
        <path class="cls-6" d="M40.6,67.58c5.99-4.81,10.66-4.4,11.63-2.77.89,1.5-.2,9.39-9.11,4.98"/>
        <path class="cls-4" d="M44.84,70.16c2.15-3.69,6.52-2.97,7.64-2.44-1.95,3.62-3.96,4.96-7.64,2.44Z"/>
        <path class="cls-1" d="M47.84,71.73c-1.31,0-2.94-.38-4.99-1.39-.3-.15-.42-.51-.28-.82.15-.3.52-.42.82-.28,3.32,1.64,5.84,1.68,7.29.12,1.3-1.4,1.35-3.69,1.02-4.24-.21-.35-.72-.62-1.4-.75-.91-.16-4.27-.39-9.33,3.68-.26.21-.65.17-.86-.09-.21-.26-.17-.65.09-.86,3.68-2.96,7.53-4.43,10.31-3.92,1.04.19,1.83.66,2.23,1.32.64,1.09.43,3.95-1.18,5.69-.75.81-1.93,1.54-3.74,1.54Z"/>
        <path class="cls-6" d="M46.09,81.8c1.64-16.82-17.11-22.8-25.64-13.47-2.97,3.25-5.19,9.02-4.06,15.77-3.29,3.25-2.73,7.92,2.42,10.46,3.1,1.53,6.19,2.19,13.34,2.19,6.63,0,14.3-2.8,16.45-6.93,1.2-2.31.78-5.72-2.5-8.03Z"/>
        <path class="cls-2" d="M35.87,64.17c-.6-4.19-4.15-6.52-4.34-.47"/>
        <path class="cls-2" d="M24.18,65.24c-.51-4.2,2.31-7.38,4.07-1.58"/>
        <path class="cls-6" d="M19.73,68.3c-6.66-3.82-11.21-2.69-11.91-.92-.65,1.62,2.36,9.82,10.47,4.08"/>
        <ellipse class="cls-1" cx="35.35" cy="83.75" rx="1.44" ry="1.56" transform="translate(-12.6 6.52) rotate(-8.95)"/>
        <path class="cls-4" d="M16.46,72.11c-2.15-3.69-7.03-2.78-8.16-2.25,1.95,3.62,4.47,4.77,8.16,2.25Z"/>
        <path class="cls-4" d="M29.28,63.69c1.23,7.46-2.33,14.45-12.53,14.45,0-11.42,12.53-14.45,12.53-14.45Z"/>
        <path class="cls-4" d="M31.53,63.71c0,8.41,6.81,12.72,13.84,13.25,0-11.42-13.84-13.25-13.84-13.25Z"/>
        <path class="cls-4" d="M15.31,90.57c13.81-6.39,25.45-3.61,33.28-.74-3.13,7.57-29.25,10.15-33.28.74Z"/>
        <path class="cls-1" d="M32.14,97.37c-7.59,0-10.64-.79-13.61-2.26-2.68-1.33-4.37-3.31-4.74-5.59-.32-1.98.37-3.96,1.94-5.63-1.1-7.13,1.47-12.92,4.26-15.97,4.25-4.65,11.25-5.93,17.42-3.18,3.01,1.34,5.47,3.51,7.11,6.28,1.79,3.02,2.53,6.54,2.2,10.49,3.38,2.56,3.63,6.22,2.4,8.6-2.36,4.54-10.49,7.26-16.99,7.26ZM30.76,64.53c-3.76,0-7.35,1.46-9.87,4.22-2.64,2.89-5.06,8.42-3.91,15.26.03.2-.03.39-.17.53-1.44,1.42-2.08,3.13-1.81,4.79.3,1.88,1.75,3.54,4.07,4.69,2.8,1.38,5.71,2.13,13.07,2.13,6.88,0,14.01-2.96,15.91-6.6,1.03-1.98.75-5.1-2.31-7.25-.18-.13-.28-.34-.26-.56.71-7.25-2.49-13.19-8.56-15.89-2.01-.89-4.11-1.33-6.15-1.33Z"/>
        <path class="cls-1" d="M31.78,93.86c-1.88,0-3.48-.99-4.4-2.72l-.45.09c-.33.07-.65-.14-.72-.47-.07-.33.14-.65.47-.72l.91-.19c.28-.06.57.09.68.35.73,1.67,2.12,2.55,3.82,2.43,1.72-.13,3.25-1.27,3.64-2.72.07-.28.34-.46.62-.45l.77.04c.34.02.59.3.58.64-.02.34-.31.59-.64.58l-.31-.02c-.69,1.72-2.5,2.99-4.57,3.14-.14.01-.27.02-.41.02Z"/>
        <ellipse class="cls-1" cx="35.35" cy="83.75" rx="1.44" ry="1.56" transform="translate(-12.6 6.52) rotate(-8.95)"/>
        <ellipse class="cls-1" cx="27.68" cy="84.11" rx="1.56" ry="1.44" transform="translate(-57.72 107.5) rotate(-87.1)"/>
        <path class="cls-1" d="M13.08,74.09c-1.46,0-2.58-.54-3.4-1.18-2.09-1.64-2.9-4.58-2.43-5.75.29-.72.99-1.3,1.99-1.65,2.66-.93,6.69-.08,10.79,2.27.29.17.39.54.22.83-.17.29-.54.39-.83.22-5.62-3.23-8.91-2.48-9.78-2.18-.65.23-1.11.57-1.26.95-.21.53.31,2.97,2.06,4.35,1.89,1.49,4.48,1.14,7.49-.99.27-.19.65-.13.85.15.19.27.13.65-.15.85-2.23,1.58-4.07,2.14-5.55,2.14Z"/>
        <path class="cls-1" d="M35.87,64.78c-.3,0-.56-.22-.6-.52-.32-2.23-1.48-3.66-2.12-3.62-.31.02-.93.69-1,3.09-.01.34-.3.59-.63.59-.34-.01-.6-.29-.59-.63.11-3.61,1.4-4.22,2.15-4.27.03,0,.06,0,.09,0,1.46,0,2.94,2.06,3.31,4.67.05.33-.18.64-.52.69-.03,0-.06,0-.09,0Z"/>
        <path class="cls-1" d="M24.18,65.85c-.3,0-.57-.23-.6-.54-.32-2.66.61-5.08,2.07-5.39.74-.15,2.14.1,3.19,3.56.1.32-.08.66-.41.76-.32.1-.66-.08-.76-.41-.7-2.3-1.46-2.78-1.77-2.72-.62.13-1.38,1.81-1.11,4.05.04.33-.2.64-.53.68-.02,0-.05,0-.07,0Z"/>
        <path class="cls-1" d="M36.61,75.28c-.65-1.09-1.64-1.26-2.41-.7-.18.13-.11.42.12.44.71.07,1.33.3,1.98.61.22.1.44-.14.31-.35Z"/>
        <path class="cls-1" d="M25.72,75.68c.65-1.09,1.64-1.26,2.41-.7.18.13.11.42-.12.44-.71.07-1.33.3-1.98.61-.22.1-.44-.14-.31-.35Z"/>
        <circle class="cls-1" cx="32.99" cy="89.69" r=".57"/>
        <circle class="cls-1" cx="31.21" cy="89.69" r=".57"/>
      </g>
    </g>
  </g>
</svg>