<?xml version="1.0" encoding="UTF-8"?>
<svg id="_レイヤー_2" data-name="レイヤー 2" xmlns="http://www.w3.org/2000/svg" width="374" height="77.36" viewBox="0 0 374 77.36">
  <defs>
    <style>
      .cls-1 {
        fill: #d3e9ea;
      }

      .cls-2 {
        fill: #fff;
      }

      .cls-3 {
        fill: #479d93;
      }
    </style>
  </defs>
  <g id="_レイヤー_1-2" data-name="レイヤー 1">
    <g>
      <rect class="cls-1" x="0" y="0" width="374" height="77.36"/>
      <rect class="cls-2" x="78.41" y="14.39" width="287.86" height="51.32" rx="25.35" ry="25.35"/>
      <g>
        <path class="cls-3" d="M104.39,35.15c0-.74-.02-1.07-.1-1.57h1.84c-.08.48-.1.85-.1,1.55v1.26h.85c.34,0,.53-.02.77-.05v1.58c-.27-.03-.51-.05-.8-.05h-.82v2.34c.46-.16.69-.24,1.34-.5l.02,1.5q-.91.35-1.36.51v4.47c0,.67-.24,1.12-.69,1.26-.32.11-.91.18-1.49.18-.27,0-.48-.02-.93-.05-.06-.67-.13-.98-.37-1.6.58.08.99.11,1.36.11s.46-.08.46-.46v-3.35q-1.41.45-1.7.58l-.34-1.71c.66-.08.75-.1,2.03-.45v-2.83h-.78c-.38,0-.66.02-1.09.06v-1.63c.35.06.64.08,1.11.08h.77v-1.25ZM115.56,40.97q-.11.14-.4.62c-.8,1.33-1.39,2.11-2.24,2.93,1.18.75,2.21,1.15,3.79,1.46-.42.51-.72,1.06-.96,1.67-1.89-.58-3.01-1.1-4.19-1.98-1.25.91-2.54,1.5-4.32,2.02-.34-.69-.54-1.04-.95-1.54,1.6-.34,2.61-.75,4.02-1.63-.9-.96-1.31-1.6-1.92-2.99-.29.02-.48.03-.74.06v-1.62c.34.06.7.08,1.23.08h4.85c.42,0,.71-.02.93-.06l.9.99ZM116.57,36.67c-.18,2.3-.35,2.5-2.37,2.5-.74,0-1.11-.03-1.35-.11-.46-.16-.61-.43-.61-1.15v-2.34h-1.86c-.06,2.26-.66,3.46-2.19,4.47-.37-.48-.67-.75-1.23-1.15,1.39-.77,1.84-1.78,1.84-4.18,0-.24-.02-.43-.05-.77.29.03.66.05,1.01.05h3.17c.34,0,.67-.02.96-.05-.03.19-.05.54-.05.98v2.35c0,.24.02.3.13.34.06.03.26.05.42.05.22,0,.45-.03.51-.08.14-.11.19-.42.19-1.25v-.18c0-.11,0-.29-.02-.51.88.48,1.02.54,1.5.7l-.02.34ZM110.09,41.52c.4.78.88,1.42,1.54,2.03.74-.62,1.11-1.06,1.71-2.03h-3.25Z"/>
        <path class="cls-3" d="M125,35.91c-.45.48-.85.83-1.46,1.3-.35-.48-.62-.74-1.04-1.02,1.22-.8,2.13-1.84,2.46-2.75l1.62.29q-.11.16-.27.43c-.08.14-.19.3-.34.5h4.51c.66,0,1.01-.02,1.28-.06l.91.72c-.13.16-.16.21-.27.38-.58.83-.78,1.1-1.42,1.73-.46-.26-.86-.42-1.42-.59.5-.34.67-.5,1.02-.91h-2.37c.48,1.52,2.08,2.35,4.85,2.5-.32.54-.46.88-.62,1.5-.64-.11-.88-.16-1.41-.29-.02.45-.02.86-.02,1.31v2.85q.02,1.36.06,1.63c-.34-.03-.98-.05-1.63-.05h-.72c1.23.58,2.27.83,4.26,1.02-.38.45-.56.72-.96,1.41-2.27-.38-3.38-.77-5.01-1.76l.9-.67h-4.21l.95.67c-1.6.98-2.62,1.34-4.87,1.76-.35-.64-.48-.82-.94-1.36,2.03-.24,3.06-.51,4.1-1.07h-.62c-.72,0-1.26.02-1.63.05.03-.29.06-.91.06-1.54v-3.04c0-.7-.02-1.14-.06-1.57.3.02.88.03,1.57.03h.8c-.18-.38-.35-.64-.64-.99-.82.38-1.04.48-2.22.96-.22.1-.38.16-.66.3l-.61-1.58c1.02-.19,2.38-.69,3.76-1.38l.46,1.34-.54.27c1.07-.14,1.74-.3,2.32-.56.96-.43,1.42-.93,1.63-1.76h-1.55ZM121.73,36.41c-.88-.7-1.42-1.04-2.43-1.5l.99-1.17c1.14.53,1.58.78,2.5,1.41l-1.06,1.26ZM122.34,41h7.07v-.58h-7.07v.58ZM122.34,42.6h7.07v-.61h-7.07v.61ZM122.34,44.17h7.07v-.58h-7.07v.58ZM129.51,39.31h.53c-1.28-.46-2.02-1.06-2.62-2.03-.4.66-.75.99-1.43,1.39-.48.29-.94.46-1.73.64h5.25Z"/>
        <path class="cls-3" d="M139.54,43.4c.05.06.06.11.06.18q0,.1-.27.83c-.34.98-.54,1.78-.61,2.4-.02.21-.08.29-.29.34-.22.06-.66.1-1.07.1-.16,0-.24-.03-.29-.13-.14-.3-.4-1.41-.53-2.31-.11-.75-.16-1.54-.16-2.35,0-1.84.21-3.59.78-6.72.1-.51.13-.75.18-1.25.74.1,1.25.24,1.71.46.24.13.34.24.34.38,0,.1-.03.18-.11.3-.66,1.12-1.26,4.58-1.26,7.14,0,.38.02.99.06,1.76.38-.99.56-1.44.91-2.21.11.43.22.64.54,1.07ZM142.23,39.19c-.77,0-.93-.03-.98-.21-.05-.14-.1-.66-.1-1.02,0-.13,0-.26.02-.54.43.03.69.05,1.22.05.86,0,1.41-.02,2.24-.08-.02-2.03-.03-2.29-.19-3.04.78.02,1.38.08,1.89.21.24.06.34.14.34.3,0,.06-.02.11-.06.24-.16.37-.24.99-.27,2.11.59-.08,1.1-.19,2.06-.42.08-.03.11-.03.16-.03.1,0,.14.05.18.16.03.14.08.75.08,1.09,0,.4-.02.46-.18.53-.26.13-.96.24-2.32.42,0,1.1.1,2.93.21,3.97,1.01.43,1.7.8,2.4,1.3.45.32.54.43.54.54,0,.18-.29.72-.62,1.18-.19.27-.29.35-.4.35s-.11,0-.48-.35c-.35-.35-.72-.62-1.42-1.09v.13c0,1.41-1.17,2.34-2.94,2.34s-2.99-.96-2.99-2.4,1.22-2.51,2.83-2.51c.59,0,.9.02,1.33.08q-.06-1.25-.11-3.39c-.69.05-1.78.1-2.42.1ZM143.54,43.9c-.8,0-1.33.37-1.33.93,0,.51.5.83,1.26.83.85,0,1.3-.38,1.3-1.12,0-.22-.02-.4-.02-.4-.42-.16-.79-.24-1.22-.24Z"/>
        <path class="cls-3" d="M156.17,34.38c.72-.14,1.41-.21,2.03-.21.32,0,.43.08.43.3,0,.06,0,.11-.05.27-.02.1-.03.21-.03.32,0,.29.03.56.24,1.73,1.3-.21,2.82-.54,3.51-.75.11-.05.14-.05.24-.05.11,0,.16.1.22.4s.19,1.12.19,1.25c0,.19-.06.22-.69.29-.4.03-.62.06-1.42.21q-.29.05-1.74.3.27,1.41.42,2.16.35-.06.7-.13c1.6-.29,2.69-.53,3.42-.75.26-.08.42-.13.46-.13.13,0,.18.06.22.22.13.42.29,1.18.29,1.44,0,.14-.03.16-.51.24q-.26.05-.79.14-.86.14-3.47.59.42,2.02.99,4.34c.03.13.05.22.05.26,0,.16-.06.21-.34.3-.45.16-1.28.34-1.5.34-.16,0-.19-.05-.24-.35-.11-.77-.37-2.19-.78-4.55-3.27.61-3.52.67-4.43.99-.21.06-.27.08-.35.08-.13,0-.21-.06-.29-.24-.19-.4-.35-.91-.54-1.7.83-.03,1.71-.16,5.31-.78-.19-.94-.32-1.63-.43-2.18q-2.91.51-3.73.75c-.13.05-.16.05-.19.05q-.26,0-.72-1.87.88-.02,4.32-.58c-.26-1.22-.51-2.13-.8-2.72ZM163.66,36.57c-.34-.62-.69-1.09-1.18-1.6-.1-.1-.1-.11-.1-.16,0-.1.1-.19.37-.4.26-.19.35-.24.45-.24.13,0,.29.13.69.56.51.58.88,1.07.88,1.2,0,.19-.72.77-.93.77-.06,0-.11-.03-.18-.13ZM165.88,35.35c-.1.06-.24.16-.29.18t-.08.03s-.03.02-.05.02c-.05,0-.11-.05-.14-.13-.22-.42-.82-1.18-1.23-1.58t-.08-.11q.1-.16.26-.27c.24-.16.5-.32.53-.32q.19.03.38.19c.43.38,1.2,1.34,1.2,1.54,0,.08-.18.24-.5.46Z"/>
        <path class="cls-3" d="M178.26,38.49c.16-.1.22-.11.34-.11.38,0,1.42,1.06,1.42,1.44,0,.11-.05.18-.16.27-.22.19-.3.27-.51.62-.42.69-1.01,1.46-1.63,2.11-.26.27-.4.37-.53.37-.1,0-.19-.05-.3-.13-.43-.34-.66-.45-1.34-.69.9-.59,1.5-1.17,2.21-2.14q-2.08.5-3.33.82c.67,2.66.91,3.52,1.5,5.51.03.14.05.21.05.27,0,.14-.16.24-.59.35-.27.08-.82.18-.96.18-.19,0-.22-.06-.3-.53-.14-.85-.72-3.17-1.31-5.36-1.19.34-1.38.38-1.99.67-.18.08-.27.11-.35.11-.3,0-.66-.72-.93-1.84.8-.03,1.18-.1,2.85-.46-.34-1.25-.5-1.7-.88-2.4.86-.14,1.5-.21,1.92-.21.27,0,.38.08.38.26,0,.05,0,.08-.02.18-.03.1-.03.16-.03.24,0,.32.06.64.29,1.58,3.07-.69,3.83-.88,4.21-1.1Z"/>
        <path class="cls-3" d="M197.59,38.41c.08.16.11.27.11.37,0,.16-.06.27-.27.56-.88,1.15-1.83,2.08-3.25,3.19-1.6,1.25-2.96,2.08-4.88,2.99-1.23.58-1.3.61-1.49.78-.13.13-.19.16-.29.16-.14,0-.27-.13-.51-.48-.32-.48-.62-1.14-.8-1.7,1.62-.37,3.55-1.23,5.43-2.42,2.46-1.55,4.02-3.09,5.22-5.19.18.59.32.91.74,1.73ZM186.93,35.72c.27-.3.38-.38.53-.38.3.02,1.5.78,2.5,1.58.61.5.8.7.8.86,0,.11-.29.54-.67.98-.35.4-.53.54-.66.54q-.11,0-.77-.62c-.42-.4-1.25-1.07-1.67-1.33q-.56-.37-.67-.43c-.06-.05-.1-.1-.1-.14,0-.14.3-.59.71-1.06Z"/>
        <path class="cls-3" d="M207.19,37.39c-2.87.02-4.88.11-5.39.26-.02.02-.03.02-.05.02-.3,0-.4-.53-.45-2.18.78.11,1.81.16,4.18.16,2.15,0,4.66-.05,5.06-.1.29-.03.38-.05.67-.16.08-.03.11-.03.18-.03.27,0,.61.26,1.12.86.3.38.37.48.37.66,0,.11-.05.21-.16.35-.16.19-.18.24-.53,1.36-.9,2.82-2.67,5.35-5.07,7.2-.96.74-1.87,1.3-2.11,1.3-.18,0-.21-.02-.58-.38-.43-.43-.77-.69-1.2-.91,2.35-1.18,3.63-2.16,4.87-3.73,1.1-1.39,1.79-2.9,2.16-4.69q-1.25.02-3.06.02ZM214.11,35.77c-.35.3-.56.45-.66.45s-.1,0-.38-.48c-.26-.43-.64-.93-1.01-1.3-.06-.06-.08-.1-.08-.14,0-.13.61-.58.78-.58.13,0,.32.16.8.7.43.5.74.93.74,1.04s-.05.18-.19.3ZM214.83,34.95c-.38-.66-.75-1.12-1.19-1.54-.06-.06-.08-.1-.08-.13,0-.08.08-.16.35-.35.21-.16.3-.19.42-.19.18.02.59.42,1.14,1.12.22.29.37.53.37.61s-.05.16-.24.3c-.26.19-.5.34-.59.34-.06,0-.11-.03-.18-.16Z"/>
        <path class="cls-3" d="M222.21,35.53c.13.05.19.14.19.27,0,.06,0,.1-.03.22-.1.35-.11.61-.11,1.25-.03,3.91-.74,6.4-2.42,8.53-.37.45-.51.59-.67.59-.06,0-.14-.03-.27-.1-.43-.27-.83-.42-1.55-.58,1.1-1.12,1.54-1.71,2.02-2.8.67-1.5.94-3.03.94-5.31,0-1.06-.03-1.54-.16-2.34.9.02,1.63.11,2.07.26ZM223.93,37.08c0-.78-.05-1.41-.14-2.08,1.73.06,2.35.19,2.35.51,0,.1-.02.14-.08.32-.05.1-.1.35-.11.59q-.05.43-.08,7.48c2.03-1.15,3.36-2.26,4.71-3.95.03.83.1,1.44.24,1.92.05.14.05.19.05.27,0,.26-.16.46-.9,1.15-1.18,1.09-1.98,1.65-3.47,2.43-.35.18-.56.32-.75.5-.11.1-.26.16-.37.16-.19,0-.77-.38-1.18-.78-.32-.32-.46-.56-.46-.77,0-.08.02-.13.06-.27.11-.3.14-.59.14-1.47v-6Z"/>
        <path class="cls-3" d="M238.49,38.95c-.21-.7-.27-1.14-.46-3.1-.06-.77-.13-1.15-.29-1.7.98.02,1.6.06,2.03.18.24.06.35.18.35.35,0,.06-.02.14-.05.27-.11.38-.16.67-.16,1.09,0,.78.16,2.06.34,2.62.1.3.19.42.37.42.38,0,1.79-.74,2.56-1.33.21-.16.24-.18.32-.18.14,0,.29.11.53.42.4.54.72,1.14.72,1.36,0,.18-.11.29-.38.37-.99.27-2.62.91-3.73,1.44-1.95.96-2.83,1.84-2.83,2.83s.82,1.38,2.88,1.38c1.2,0,2.29-.11,3.76-.35.06-.02.18-.03.21-.03.13,0,.21.06.27.19.05.16.16,1.14.16,1.52,0,.22-.06.3-.27.37-.35.08-2.29.19-3.51.19-2.05,0-3.41-.27-4.26-.85-.72-.5-1.1-1.28-1.1-2.24,0-.74.21-1.39.64-2.03.56-.83,1.17-1.36,2.51-2.16-.34-.3-.46-.53-.61-1.02Z"/>
        <path class="cls-3" d="M254.34,43.4c.05.06.06.11.06.18q0,.1-.27.83c-.34.98-.54,1.78-.61,2.4-.02.21-.08.29-.29.34-.22.06-.66.1-1.07.1-.16,0-.24-.03-.29-.13-.14-.3-.4-1.41-.53-2.31-.11-.75-.16-1.54-.16-2.35,0-1.84.21-3.59.78-6.72.1-.51.13-.75.18-1.25.74.1,1.25.24,1.71.46.24.13.34.24.34.38,0,.1-.03.18-.11.3-.66,1.12-1.26,4.58-1.26,7.14,0,.38.02.99.06,1.76.38-.99.56-1.44.91-2.21.11.43.22.64.54,1.07ZM257.03,39.19c-.77,0-.93-.03-.98-.21-.05-.14-.1-.66-.1-1.02,0-.13,0-.26.02-.54.43.03.69.05,1.22.05.86,0,1.41-.02,2.24-.08-.02-2.03-.03-2.29-.19-3.04.78.02,1.38.08,1.89.21.24.06.34.14.34.3,0,.06-.02.11-.06.24-.16.37-.24.99-.27,2.11.59-.08,1.1-.19,2.06-.42.08-.03.11-.03.16-.03.1,0,.14.05.18.16.03.14.08.75.08,1.09,0,.4-.02.46-.18.53-.26.13-.96.24-2.32.42,0,1.1.1,2.93.21,3.97,1.01.43,1.7.8,2.4,1.3.45.32.54.43.54.54,0,.18-.29.72-.62,1.18-.19.27-.29.35-.4.35s-.11,0-.48-.35c-.35-.35-.72-.62-1.43-1.09v.13c0,1.41-1.17,2.34-2.94,2.34s-2.99-.96-2.99-2.4,1.22-2.51,2.83-2.51c.59,0,.9.02,1.33.08q-.06-1.25-.11-3.39c-.69.05-1.78.1-2.42.1ZM258.34,43.9c-.8,0-1.33.37-1.33.93,0,.51.5.83,1.26.83.85,0,1.3-.38,1.3-1.12,0-.22-.02-.4-.02-.4-.42-.16-.79-.24-1.22-.24Z"/>
        <path class="cls-3" d="M266.47,39.44c.42.06.69.08,1.23.08h1.15c.51,0,.82-.02,1.17-.06-.05.42-.06.75-.06,1.66v3.31c.26.56.62.91,1.23,1.17.53.22,1.49.32,3.19.32,2.88,0,4.42-.06,6.5-.27-.18.42-.29.83-.46,1.73-1.44.05-3.63.1-5.22.1-2.14,0-3.41-.1-4.08-.3-.78-.24-1.38-.67-1.95-1.42q-.83.77-2.24,1.84l-.75-1.74c.61-.24,1.42-.82,2.18-1.5v-3.31h-.83c-.43,0-.62.02-1.04.08v-1.66ZM272.58,36.33q.24-.42.37-.67h-.61c-.5,0-.8.02-1.18.05v-1.38c.43.06.77.08,1.41.08h.98c.19-.46.26-.62.35-1.02l1.68.18c-.05.1-.16.38-.35.85h2.21c.72,0,1.06-.02,1.55-.06-.05.45-.06.82-.06,1.47v.51h.37c.51,0,.82-.02,1.18-.08v1.41c-.43-.05-.78-.06-1.39-.06h-7.48c-.77,0-1.01.02-1.47.06v-.91l-1.09,1.02c-1.07-1.42-1.49-1.87-2.58-2.83l1.23-1.15c1.12.99,1.7,1.57,2.43,2.5v-.02c.32.05.54.06,1.27.06h1.18ZM272.52,40.84c-.45,0-.85.02-1.17.03.03-.37.05-.59.05-1.14v-.56c0-.48-.02-.82-.05-1.09.29.02.56.03,1.15.03h5.78c.64,0,.9-.02,1.17-.05q-.02.14-.03.37c-.02.13-.02.42-.02.72v.59c0,.14.02.51.05,1.1q-.67-.02-1.14-.02h-1.17v.54h1.42c.74,0,1.01-.02,1.35-.06v1.33c-.43-.05-.72-.06-1.33-.06h-1.44v.74h1.84c.64,0,1.01-.02,1.39-.08v1.39c-.37-.03-.74-.05-1.42-.05h-1.81c.02.46.03.67.1,1.01h-1.78c.06-.38.06-.54.08-1.01h-3.74c-.64,0-.96.02-1.3.05v-1.36c.27.03.51.05,1.06.05h.38v-.74c-.54,0-.75.02-1.07.05v-1.31c.32.05.58.06,1.28.06h3.41v-.54h-3.04ZM272.95,39.82h4.85v-.67h-4.85v.67ZM273.51,43.32h2.05v-.74h-2.05v.74ZM277.34,36.33v-.67h-2.67q-.13.26-.35.67h3.03Z"/>
        <path class="cls-3" d="M287.93,37.98c1.04-.27,1.73-.37,2.48-.37,2.27,0,3.59,1.34,3.59,3.65,0,2-.86,3.62-2.61,4.9-.93.69-2.34,1.38-2.8,1.38-.21,0-.26-.05-.59-.53-.24-.37-.48-.59-.88-.88,1.84-.62,2.61-1.02,3.44-1.74.96-.85,1.44-1.87,1.44-3.09,0-1.3-.61-2.03-1.68-2.03-.86,0-1.98.34-3.44,1.04-.21.1-.32.18-.59.37-.06.03-.13.06-.19.06-.3,0-.82-.9-1.17-2.1.59-.05.9-.13,3.01-.66ZM289,34.07c.58.18,1.44.34,2.22.43.32.03.43.05,1.25.08.24,0,.3.06.3.24,0,.53-.11,1.39-.21,1.55-.03.1-.11.13-.22.13-.37,0-1.66-.18-2.42-.34-1.26-.26-2.37-.58-2.59-.75-.05-.05-.08-.11-.08-.18,0-.13.34-.99.5-1.3.08-.13.13-.16.22-.16q.08,0,1.02.29Z"/>
        <path class="cls-3" d="M305.48,43.87c-.77,1.33-1.83,2.06-2.91,2.06-1.66,0-2.85-1.63-2.85-3.91,0-2.53,1.28-4.71,3.47-5.86,1.07-.58,2.22-.83,3.75-.83,3.34,0,5.83,2.37,5.83,5.54,0,2.8-1.38,4.82-4.03,5.95-.53.22-.94.35-1.15.35-.19,0-.27-.06-.48-.37-.27-.42-.58-.72-1.01-1.01,3.3-.85,4.79-2.4,4.79-4.99,0-1.33-.56-2.45-1.55-3.15-.56-.38-1.01-.54-1.89-.69-.45,3.38-.98,5.22-1.95,6.9ZM303.17,38.2c-1.07.94-1.68,2.29-1.68,3.79,0,1.23.4,1.95,1.07,1.95.8,0,1.62-1.1,2.23-3.01.38-1.2.58-2.11.82-3.89-1.14.24-1.7.51-2.43,1.15Z"/>
        <path class="cls-3" d="M318.6,36.79c.37-.96.72-1.47,1.33-1.98.74-.61,1.62-.9,2.74-.9,2.4,0,3.94,1.31,3.94,3.36,0,.69-.19,1.34-.56,1.87-.29.42-.42.54-1.31,1.36-1.25,1.12-1.52,1.55-1.52,2.4v.85h-1.63v-.9c0-.72.14-1.36.43-1.87.22-.4.46-.67,1.1-1.31.67-.66.88-.9,1.06-1.18.22-.32.35-.77.35-1.2,0-1.07-.72-1.74-1.86-1.74s-1.81.59-2.29,1.98l-1.78-.74ZM323.7,46.13c0,.7-.56,1.26-1.26,1.26s-1.27-.56-1.27-1.26.56-1.26,1.27-1.26,1.26.56,1.26,1.26Z"/>
      </g>
      <g>
        <g>
          <path class="cls-3" d="M28.45,36.41c.02-1.97.63-3.49,1.83-4.55,1.13-1.05,2.47-1.58,4.03-1.58s2.98.53,4.1,1.58c1.15,1.06,1.74,2.58,1.78,4.56v9.42c-.04,1.96-.63,3.48-1.78,4.54-1.13,1.05-2.5,1.59-4.1,1.61-1.56-.02-2.91-.56-4.03-1.61-1.2-1.06-1.81-2.57-1.83-4.53v-9.44ZM37.23,36.61c-.06-2.14-1.03-3.23-2.92-3.27-1.9.04-2.87,1.13-2.91,3.27v9.07c.04,2.16,1.01,3.25,2.91,3.27,1.89-.02,2.87-1.11,2.92-3.27v-9.07Z"/>
          <path class="cls-3" d="M42.25,45.77l6.91-15.31h3.3l-6.99,15.31h5.4v-6.15h2.96v6.15h1.66v2.87h-1.66v3.18h-2.96v-3.18h-8.62v-2.87Z"/>
        </g>
        <path class="cls-3" d="M19.56,43.68c-.76.79-1.8,1.41-3.01,1.81-.17-.32-.31-.52-.56-.82,1.2-.29,2.21-.79,2.94-1.47h-1.5c-.05.18-.06.22-.13.43l-1.01-.02c.24-.56.38-1.02.49-1.58.08-.39.14-.77.14-.95.17.02.4.03.82.03h1.78l-.02-.58h-1.93c-.34,0-.56,0-.8.04v-.83c-.1.08-.13.12-.26.23-.17-.29-.35-.5-.56-.69.74-.57,1.16-1.12,1.35-1.76l.93.17c-.11.23-.14.29-.25.47h1.11c.41,0,.64-.02.85-.04v.7c.34-.4.55-.78.7-1.3l.92.16q-.07.17-.22.49h1.65c.46,0,.67,0,.95-.05v.9c-.26-.04-.52-.05-.9-.05h-.68c.23.33.23.35.38.59l-.71.2h.41c.43,0,.59,0,.81-.03-.03.16-.04.3-.04.61v.91c0,.31,0,.45.04.63-.2-.02-.47-.03-.81-.03h-1.99v.57h2.47c.33,0,.52,0,.74-.03-.02.11-.02.17-.03.26t-.03.26s-.02.22-.05.55c-.09.86-.14,1.07-.31,1.27-.17.2-.43.26-1.02.26-.25,0-.43,0-.8-.03-.05-.36-.11-.56-.22-.85.33.04.74.08.95.08.47,0,.49-.05.55-1.01h-2.22l.02,1.45c0,.46.02.68.06.95h-1.02c.04-.25.05-.4.05-.75v-.22l-.02-.96ZM18.33,39.77c-.11-.29-.22-.5-.39-.8h-.48c-.21.29-.4.5-.68.77.21.03.38.04.79.04h.75ZM19.54,41.87h-1.77c-.03.19-.04.21-.12.57h1.9v-.57ZM20.03,39.77c-.13-.16-.31-.33-.56-.51.15-.12.2-.15.32-.27-.15,0-.32-.02-.49-.02h-.48c.11.17.17.26.34.58l-.71.22h1.58ZM21.86,39.77c-.1-.22-.26-.51-.44-.79h-.53c-.23.33-.42.55-.69.79h1.67ZM20.44,41.11h1.87v-.58h-1.88v.58Z"/>
        <path class="cls-3" d="M66.99,45.58v-.47h-5.38v.47h-1.01c.04-.28.05-.64.05-1.12v-5.46c0-.42-.02-.69-.05-1.04.31.04.59.05,1.02.05h5.36c.42,0,.7,0,1.02-.05-.04.32-.04.6-.04,1.04v5.47c0,.47.02.89.04,1.11h-1ZM61.6,44.25h5.38v-5.39h-5.38v5.39ZM65.2,39.84c.38,0,.6,0,.83-.03-.02.21-.03.41-.03.68v2.06c0,.29,0,.47.03.68-.26-.02-.47-.03-.83-.03h-1.85c-.43,0-.57,0-.84.03.03-.23.04-.42.04-.68v-2.06c0-.25,0-.45-.04-.68.22.02.46.03.84.03h1.85ZM63.47,42.41h1.63v-1.76h-1.63v1.76Z"/>
      </g>
    </g>
  </g>
</svg>